<svg width="350" height="500" viewbox = "0 0 350 500"  xmlns="http://www.w3.org/2000/svg">
<!--<json>{
  "glyph": "0330,0330,0330,0332,0332,0332,0336,0336,0333,0337,0337,0107,0145,0157,0155,0145,0164,0162,0157,0156,0210,0365,0331,0336,0333,0123,0157,0143,0151,0141,0154,040,0155,0145,0144,0151,0141,040,0146,0157,0162,040,0141,040,0365,0331,0331,0160,0157,0163,0164,055,0163,0143,0141,0162,0143,0151,0164,0171,040,0167,0157,0162,0154,0144,0365,0300,0331,0321,0336,0332,0337,0341,0340,0333,0340,0341,0331,0331,0332,0332,0336,0331,0337,01341,01333,01341,0300,0332,0332,0332,0362,0203,0203,0203,0203,0336,0203,0337,0335,0203,0203,0203,0203,0203,0203,0335,0203,0203,0203,0203,0203,0203,0203,0203,0203,0335,0203,0203,0203,0203,0203,0203,0335,0203,0203,0203,0203,0336,0203,0354,0300,0336,0330,0332,0332,0332,0114,0141,0146,0145,040,0123,0160,0151,0145,0164,0172,0365,",
  "x0": 175,
  "y0": 250,
  "unit": 50,
  "width": 350,
  "height": 500,
  "style": {
    "color0": "black",
    "fill0": "black",
    "line0": 1,
    "color1": "black",
    "fill1": "black",
    "line1": 5,
    "color2": "red",
    "fill2": "red",
    "line2": 1,
    "color3": "#FF7900",
    "fill3": "#FF7900",
    "line3": 1,
    "color4": "yellow",
    "fill4": "yellow",
    "line4": 1,
    "color5": "green",
    "fill5": "green",
    "line5": 1,
    "color6": "blue",
    "fill6": "blue",
    "line6": 1,
    "color7": "purple",
    "fill7": "purple",
    "line7": 1
  },
  "shapes": [
    "0220:0325,0350,0335,0304,0331,0333,0337,0204,0322,0336,0330,0332,0350,0334,0304,0336,0331,0333,0337,0204,0336,0330,0332,0337,0337,0350,0335,0336,0304,0333,0330,0337,0336,0333,0330,0350,0334,0304,",
    "01220:0333,0200,0336,0330,0332,0336,0330,0332,0336,0331,0162,0141,0156,0144,0157,0155,0365,0331,0331,0331,0143,0157,0155,0155,0145,0156,0164,0365,0331,0331,0333,0333,0333,0333,0333,0333,0337,0337,0337,",
    "0222:0336,0332,",
    "01222:0333,0200,"
  ]
}</json>-->    <text x="38" y = "100" fill = "#000000" font-size = "43.701602444882106px" font-family = "Arial">Geometron</text>
    <text x="59" y = "144" fill = "#000000" font-size = "21.850801222441053px" font-family = "Arial">Social media for a </text>
    <text x="59" y = "187" fill = "#000000" font-size = "21.850801222441053px" font-family = "Arial">post-scarcity world</text>
<circle cx="150" cy = "300" r = "50" stroke = "#000000" stroke-width = "5" fill = "none" />
<circle cx="150" cy = "300" r = "5" stroke = "#000000" stroke-width = "5" fill = "#000000" />
<circle cx="200" cy = "300" r = "5" stroke = "#000000" stroke-width = "5" fill = "#000000" />
<circle cx="200" cy = "300" r = "50" stroke = "#000000" stroke-width = "5" fill = "none" />
	<path d = "M150 425 L150 375 L100 375 L100 425 L150 425 Z" stroke = "#000000" stroke-width = "5" fill = "none" /><circle cx="125" cy = "400" r = "25" stroke = "#000000" stroke-width = "5" fill = "none" />
<circle cx="125" cy = "400" r = "5" stroke = "#000000" stroke-width = "5" fill = "#000000" />
	<path d = "M200 425 L200 375 L150 375 L150 425 L200 425 Z" stroke = "#000000" stroke-width = "5" fill = "none" />	<path d = "M163 406 L163 394 L175 394 L175 388 L181 394 L188 400 L181 406 L175 413 L175 406 L162 406 Z" stroke = "#000000" stroke-width = "5" fill = "none" />	<path d = "M250 425 L250 375 L200 375 L200 425 L250 425 Z" stroke = "#000000" stroke-width = "5" fill = "none" /><circle cx="225" cy = "400" r = "25.000000000000004" stroke = "#000000" stroke-width = "5" fill = "none" />
<circle cx="225" cy = "400" r = "5" stroke = "#000000" stroke-width = "5" fill = "#000000" />
	<path d = "M25 250 L25 200 L25 150 L25 100 L25 50 L25 25 L75 25 L125 25 L175 25 L225 25 L275 25 L325 25 L325 75 L325 125 L325 175 L325 225 L325 275 L325 325 L325 375 L325 425 L325 475 L275 475 L225 475 L175 475 L125 475 L75 475 L25 475 L25 425 L25 375 L25 325 L25 275 L25 250 Z" stroke = "#000000" stroke-width = "1" fill = "none" />    <text x="100" y = "225" fill = "#000000" font-size = "25px" font-family = "Arial">Lafe Spietz</text>
</svg>