<svg width="400" height="500" viewbox = "0 0 400 500"  xmlns="http://www.w3.org/2000/svg">
<!--<json>{
  "glyph": "0336,0330,0330,0332,0332,0330,0332,01700,0331,0332,01701,0331,0332,01702,0331,0332,01703,0331,0332,01704,0331,0332,01705,0331,0332,01706,0331,0332,01707,0331,0332,01710,0331,0332,01711,0330,0330,0336,0336,0330,0333,0337,0144,0157,0165,0142,0154,0145,040,0165,0156,0151,0164,0365,0150,0141,0154,0166,0145,040,0165,0156,0151,0164,0330,0330,0365,0155,0157,0166,0145,040,0141,0167,0141,0171,040,061,040,0165,0156,0151,0164,0330,0330,0365,0330,0330,0155,0157,0166,0145,040,0164,0157,0167,0141,0162,0144,040,061,040,0165,0156,0151,0164,0365,0330,0330,0155,0157,0166,0145,040,0144,0157,0167,0156,040,061,040,0165,0156,0151,0164,0365,0330,0330,0155,0157,0166,0145,040,0165,0160,040,061,040,0165,0156,0151,0164,0365,0330,0330,0155,0157,0166,0145,040,0154,0145,0146,0164,040,061,040,0165,0156,0151,0164,0365,0330,0330,0155,0157,0166,0145,040,0162,0151,0147,0150,0164,040,061,040,0165,0156,0151,0164,0365,0331,0331,0331,0331,0331,0331,0331,0331,0331,0331,0331,0331,0331,0331,0331,0331,0144,0162,0141,0167,040,0165,0156,0151,0164,040,0163,0160,0150,0145,0162,0145,0365,0331,0331,0144,0162,0141,0167,040,0165,0156,0151,0164,040,0143,0165,0142,0145,0365,0300,0336,0332,0332,0332,0330,0330,0330,0336,0332,0330,0336,0331,0332,0332,060,067,060,060,0365,0331,0331,0331,0331,060,067,060,061,0365,0331,0331,0331,0331,060,067,060,062,0365,0331,0331,0331,0331,060,067,060,063,0365,0331,0331,0331,0331,060,067,060,064,0365,0331,0331,0331,0331,060,067,060,065,0365,0331,0331,0331,0331,060,067,060,066,0365,0331,0331,0331,0331,060,067,060,067,0365,0331,0331,0331,0331,060,067,061,060,0365,0331,0331,0331,0331,060,067,061,061,0365,",
  "x0": 200,
  "y0": 200,
  "unit": 90.9090909090909,
  "width": 400,
  "height": 500,
  "style": {
    "color0": "black",
    "fill0": "black",
    "line0": 1,
    "color1": "black",
    "fill1": "black",
    "line1": 5,
    "color2": "red",
    "fill2": "#ff000020",
    "line2": 2,
    "color3": "#FF7900",
    "fill3": "#FF7900",
    "line3": 1,
    "color4": "yellow",
    "fill4": "yellow",
    "line4": 1,
    "color5": "green",
    "fill5": "green",
    "line5": 1,
    "color6": "blue",
    "fill6": "blue",
    "line6": 1,
    "color7": "purple",
    "fill7": "purple",
    "line7": 1
  },
  "shapes": [
    "0220:0341,",
    "01220:0333,0200,0336,0330,0332,0336,0332,060,062,062,060,0365,0333,0333,0331,0331,0333,0337,0337,",
    "01221:0333,0200,0336,0330,0332,0336,0332,060,062,062,061,0365,0333,0333,0331,0331,0333,0337,0337,",
    "01222:0333,0200,0336,0330,0332,0336,0332,060,062,062,062,0365,0333,0333,0331,0331,0333,0337,0337,",
    "01223:0333,0200,0336,0330,0332,0336,0332,060,062,062,063,0365,0333,0333,0331,0331,0333,0337,0337,",
    "01224:0333,0200,0336,0330,0332,0336,0332,060,062,062,064,0365,0333,0333,0331,0331,0333,0337,0337,",
    "01225:0333,0200,0336,0330,0332,0336,0332,060,062,062,065,0365,0333,0333,0331,0331,0333,0337,0337,",
    "01226:0333,0200,0336,0330,0332,0336,0332,060,062,062,066,0365,0333,0333,0331,0331,0333,0337,0337,",
    "01227:0333,0200,0336,0330,0332,0336,0332,060,062,062,067,0365,0333,0333,0331,0331,0333,0337,0337,",
    "01230:0333,0200,0336,0330,0332,0336,0332,060,062,063,060,0365,0333,0333,0331,0331,0333,0337,0337,",
    "01231:0333,0200,0336,0330,0332,0336,0332,060,062,063,061,0365,0333,0333,0331,0331,0333,0337,0337,",
    "01232:0333,0200,0336,0330,0332,0336,0332,060,062,062,062,0365,0333,0333,0331,0331,0333,0337,0337,",
    "01233:0333,0200,0336,0330,0332,0336,0332,060,062,062,063,0365,0333,0333,0331,0331,0333,0337,0337,",
    "01234:0333,0200,0336,0330,0332,0336,0332,060,062,062,064,0365,0333,0333,0331,0331,0333,0337,0337,",
    "01235:0333,0200,0336,0330,0332,0336,0332,060,062,062,065,0365,0333,0333,0331,0331,0333,0337,0337,",
    "01236:0333,0200,0336,0330,0332,0336,0332,060,062,062,066,0365,0333,0333,0331,0331,0333,0337,0337,",
    "01237:0333,0200,0336,0330,0332,0336,0332,060,062,062,067,0365,0333,0333,0331,0331,0333,0337,0337,"
  ]
}</json>-->	<path d = "M109 64 L109 18 L64 18 L64 64 L109 64 Z" stroke = "#000000" stroke-width = "1" fill = "none" />    <line x1="86" y1="41" x2="109" y2="41" style="stroke:#ff0000;stroke-width:2" />
	<path d = "M109 41 L104 38 L104 44 L109 41 Z" stroke = "#ff0000" stroke-width = "2" fill = "rgba(255, 0, 0, 0.125)" /> M86,41 C109,41 	<path d = "M109 109 L109 64 L64 64 L64 109 L109 109 Z" stroke = "#000000" stroke-width = "1" fill = "none" />    <line x1="86" y1="86" x2="64" y2="86" style="stroke:#ff0000;stroke-width:2" />
	<path d = "M64 86 L69 89 L69 84 L64 86 Z" stroke = "#ff0000" stroke-width = "2" fill = "rgba(255, 0, 0, 0.125)" /> M86,86 C64,86 	<path d = "M109 155 L109 109 L64 109 L64 155 L109 155 Z" stroke = "#000000" stroke-width = "1" fill = "none" />    <line x1="86" y1="132" x2="86" y2="109" style="stroke:#0000ff;stroke-width:1" />
	<path d = "M86 109 L84 114 L89 114 L86 109 Z" stroke = "#0000ff" stroke-width = "1" fill = "#0000ff" /> M86,132 C86,109 	<path d = "M109 200 L109 155 L64 155 L64 200 L109 200 Z" stroke = "#000000" stroke-width = "1" fill = "none" />    <line x1="86" y1="177" x2="86" y2="200" style="stroke:#0000ff;stroke-width:1" />
	<path d = "M86 200 L89 195 L84 195 L86 200 Z" stroke = "#0000ff" stroke-width = "1" fill = "#0000ff" /> M86,177 C86,200 <circle cx="86" cy = "177" r = "1" stroke = "#0000ff" stroke-width = "1" fill = "#0000ff" />
	<path d = "M109 245 L109 200 L64 200 L64 245 L109 245 Z" stroke = "#000000" stroke-width = "1" fill = "none" />    <line x1="86" y1="223" x2="67" y2="234" style="stroke:#008000;stroke-width:1" />
	<path d = "M67 234 L72 234 L70 229 L67 234 Z" stroke = "#008000" stroke-width = "1" fill = "#008000" /> M86,223 C67,234 	<path d = "M109 291 L109 245 L64 245 L64 291 L109 291 Z" stroke = "#000000" stroke-width = "1" fill = "none" />    <line x1="86" y1="268" x2="106" y2="257" style="stroke:#008000;stroke-width:1" />
	<path d = "M106 257 L100 257 L103 262 L106 257 Z" stroke = "#008000" stroke-width = "1" fill = "#008000" /> M86,268 C106,257 	<path d = "M109 336 L109 291 L64 291 L64 336 L109 336 Z" stroke = "#000000" stroke-width = "1" fill = "none" />	<path d = "M109 336 L109 291 L64 291 L64 336 L109 336 Z" stroke = "#000000" stroke-width = "1" fill = "none" />    <line x1="86" y1="314" x2="75" y2="314" style="stroke:#000000;stroke-width:1" />
    <line x1="86" y1="314" x2="98" y2="314" style="stroke:#000000;stroke-width:1" />
	<path d = "M109 382 L109 336 L64 336 L64 382 L109 382 Z" stroke = "#000000" stroke-width = "1" fill = "none" />    <line x1="86" y1="359" x2="86" y2="348" style="stroke:#000000;stroke-width:1" />
    <line x1="86" y1="359" x2="98" y2="359" style="stroke:#000000;stroke-width:1" />
    <line x1="86" y1="359" x2="86" y2="370" style="stroke:#000000;stroke-width:1" />
    <line x1="86" y1="359" x2="75" y2="359" style="stroke:#000000;stroke-width:1" />
	<path d = "M109 427 L109 382 L64 382 L64 427 L109 427 Z" stroke = "#000000" stroke-width = "1" fill = "none" /><circle cx="86" cy = "405" r = "22.727272727272727" stroke = "#000000" stroke-width = "1" fill = "none" />
  <path d="M106.22800111130773 404.54545454545587           A19.864364747673687 19.864364747673687 0 0 1 86.3636363636344 424.4098192931298" fill = "none" stroke = "#000000" stroke-width = "1" />
  <path d="M102.40411726858632 411.1896392832737           A17.36209142045933 17.36209142045933 0 0 1 93.00782110145217 420.58593545040816" fill = "none" stroke = "#000000" stroke-width = "1" />
	<path d = "M109 473 L109 427 L64 427 L64 473 L109 473 Z" stroke = "#000000" stroke-width = "1" fill = "none" />	<path d = "M92 467 L92 444 L69 444 L69 467 L92 467 Z" stroke = "#000000" stroke-width = "1" fill = "none" />    <line x1="92" y1="467" x2="98" y2="457" style="stroke:#000000;stroke-width:1" />
    <line x1="98" y1="457" x2="98" y2="434" style="stroke:#000000;stroke-width:1" />
    <line x1="98" y1="434" x2="92" y2="444" style="stroke:#000000;stroke-width:1" />
    <line x1="98" y1="434" x2="75" y2="434" style="stroke:#000000;stroke-width:1" />
    <line x1="75" y1="434" x2="69" y2="444" style="stroke:#000000;stroke-width:1" />
    <text x="120" y = "370" fill = "#000000" font-size = "22.727272727272734px" font-family = "Arial">double unit</text>
    <text x="120" y = "325" fill = "#000000" font-size = "22.727272727272734px" font-family = "Arial">halve unit</text>
    <text x="120" y = "280" fill = "#000000" font-size = "22.727272727272734px" font-family = "Arial">move away 1 unit</text>
    <text x="120" y = "234" fill = "#000000" font-size = "22.727272727272734px" font-family = "Arial">move toward 1 unit</text>
    <text x="120" y = "189" fill = "#000000" font-size = "22.727272727272734px" font-family = "Arial">move down 1 unit</text>
    <text x="120" y = "143" fill = "#000000" font-size = "22.727272727272734px" font-family = "Arial">move up 1 unit</text>
    <text x="120" y = "98" fill = "#000000" font-size = "22.727272727272734px" font-family = "Arial">move left 1 unit</text>
    <text x="120" y = "52" fill = "#000000" font-size = "22.727272727272734px" font-family = "Arial">move right 1 unit</text>
    <text x="120" y = "416" fill = "#000000" font-size = "22.727272727272734px" font-family = "Arial">draw unit sphere</text>
    <text x="120" y = "461" fill = "#000000" font-size = "22.727272727272734px" font-family = "Arial">draw unit cube</text>
    <text x="18" y = "52" fill = "#000000" font-size = "11.363636363636363px" font-family = "Arial">0700</text>
    <text x="18" y = "98" fill = "#000000" font-size = "11.363636363636363px" font-family = "Arial">0701</text>
    <text x="18" y = "143" fill = "#000000" font-size = "11.363636363636363px" font-family = "Arial">0702</text>
    <text x="18" y = "189" fill = "#000000" font-size = "11.363636363636363px" font-family = "Arial">0703</text>
    <text x="18" y = "234" fill = "#000000" font-size = "11.363636363636363px" font-family = "Arial">0704</text>
    <text x="18" y = "280" fill = "#000000" font-size = "11.363636363636363px" font-family = "Arial">0705</text>
    <text x="18" y = "325" fill = "#000000" font-size = "11.363636363636363px" font-family = "Arial">0706</text>
    <text x="18" y = "370" fill = "#000000" font-size = "11.363636363636363px" font-family = "Arial">0707</text>
    <text x="18" y = "416" fill = "#000000" font-size = "11.363636363636363px" font-family = "Arial">0710</text>
    <text x="18" y = "461" fill = "#000000" font-size = "11.363636363636363px" font-family = "Arial">0711</text>
</svg>