<svg width="400" height="350" viewbox = "0 0 400 350"  xmlns="http://www.w3.org/2000/svg">
<!--<json>{
  "glyph": "0330,0336,0336,0336,0332,0333,0333,0330,0333,0330,0333,0333,0337,0337,0337,0330,0332,0330,0332,0332,0336,0337,01500,072,0336,0336,0336,0330,0333,0337,0337,0337,0365,0336,0336,0336,0331,0332,0337,0337,0337,0333,0336,0332,0337,01406,01406,01403,01407,01405,01404,0331,0332,0332,0332,0332,0332,0332,0332,0332,0336,0331,0331,0331,0337,01407,01336,01336,01336,01336,01330,01330,01347,0331,0332,0332,0332,0332,0332,0332,0332,0332,0336,0331,0331,0331,0337,01337,01337,01337,01337,01702,01711,0336,0331,0332,0332,0332,0332,0335,0337,0337,0322,0336,0336,0336,0332,0335,0337,0366,0335,0335,0331,0333,0333,0367,0366,0335,0335,0331,0332,0332,0367,0335,0335,0331,0332,0332,0332,0336,0331,0332,0331,0337,0333,063,0144,0365,0325,0330,0332,0332,0332,0332,0332,0332,0332,0332,0332,0330,0336,0332,0337,0335,0335,0366,0332,0332,0332,0332,0335,0335,0331,0367,0366,0330,0335,0335,0332,0332,0332,0332,0367,0335,0335,0331,0332,0332,0332,0332,0332,0331,062,0144,0365,0330,0330,0330,0330,0330,0330,0330,0332,0335,0335,0366,0335,0335,0331,0333,0333,0333,0333,0333,0333,0336,0333,0333,0337,0367,0366,0330,0335,0335,0332,0332,0332,0332,0332,0332,0332,0367,0335,0335,0331,0332,0332,0332,0332,0332,0332,0331,0332,0336,0332,0337,062,0144,0365,0326,0332,0330,0332,0332,0330,0330,0330,0330,0330,0330,0332,0336,0332,0337,0335,0335,0366,0332,0332,0332,0332,0332,0332,0335,0335,0331,0367,0366,0335,0335,0331,0332,0332,0332,0332,0332,0332,0367,0335,0335,0331,0332,0332,0332,0332,0331,0332,0332,0332,0332,0162,0157,0142,0157,0164,0365,0331,0332,0332,0332,0331,0332,0332,0332,0332,0331,0332,0335,0335,0336,0366,0335,0335,0331,0333,0333,0367,0366,0330,0335,0335,0332,0332,0367,0335,0335,0331,0332,0332,0331,0332,0332,0331,0337,0162,0157,0142,0157,0164,0365,0320,0330,0333,0330,0333,0330,0330,0330,0330,0330,0336,0331,0332,0331,0332,0337,0331,0332,0336,0336,0330,0333,0330,0330,0333,0336,0333,0330,0333,0330,0333,0330,0333,0333,0333,0330,0333,0337,0337,060,065,060,060,0365,",
  "x0": 146.34869558499997,
  "y0": 202.50000000000009,
  "unit": 45.45454545454546,
  "width": 400,
  "height": 350,
  "style": {
    "color0": "black",
    "fill0": "black",
    "line0": 1,
    "color1": "black",
    "fill1": "black",
    "line1": 5,
    "color2": "red",
    "fill2": "red",
    "line2": 3,
    "color3": "#FF7900",
    "fill3": "#FF7900",
    "line3": 1,
    "color4": "yellow",
    "fill4": "yellow",
    "line4": 1,
    "color5": "green",
    "fill5": "green",
    "line5": 3,
    "color6": "blue",
    "fill6": "blue",
    "line6": 3,
    "color7": "purple",
    "fill7": "purple",
    "line7": 1
  },
  "shapes": [
    "0220:0341,",
    "01220:0333,0200,0336,0330,0332,0336,0332,060,062,062,060,0365,0333,0333,0331,0331,0333,0337,0337,",
    "01221:0333,0200,0336,0330,0332,0336,0332,060,062,062,061,0365,0333,0333,0331,0331,0333,0337,0337,",
    "01222:0333,0200,0336,0330,0332,0336,0332,060,062,062,062,0365,0333,0333,0331,0331,0333,0337,0337,",
    "01223:0333,0200,0336,0330,0332,0336,0332,060,062,062,063,0365,0333,0333,0331,0331,0333,0337,0337,",
    "01224:0333,0200,0336,0330,0332,0336,0332,060,062,062,064,0365,0333,0333,0331,0331,0333,0337,0337,",
    "01225:0333,0200,0336,0330,0332,0336,0332,060,062,062,065,0365,0333,0333,0331,0331,0333,0337,0337,",
    "01226:0333,0200,0336,0330,0332,0336,0332,060,062,062,066,0365,0333,0333,0331,0331,0333,0337,0337,",
    "01227:0333,0200,0336,0330,0332,0336,0332,060,062,062,067,0365,0333,0333,0331,0331,0333,0337,0337,",
    "01230:0333,0200,0336,0330,0332,0336,0332,060,062,063,060,0365,0333,0333,0331,0331,0333,0337,0337,",
    "01231:0333,0200,0336,0330,0332,0336,0332,060,062,063,061,0365,0333,0333,0331,0331,0333,0337,0337,",
    "01232:0333,0200,0336,0330,0332,0336,0332,060,062,062,062,0365,0333,0333,0331,0331,0333,0337,0337,",
    "01233:0333,0200,0336,0330,0332,0336,0332,060,062,062,063,0365,0333,0333,0331,0331,0333,0337,0337,",
    "01234:0333,0200,0336,0330,0332,0336,0332,060,062,062,064,0365,0333,0333,0331,0331,0333,0337,0337,",
    "01235:0333,0200,0336,0330,0332,0336,0332,060,062,062,065,0365,0333,0333,0331,0331,0333,0337,0337,",
    "01236:0333,0200,0336,0330,0332,0336,0332,060,062,062,066,0365,0333,0333,0331,0331,0333,0337,0337,",
    "01237:0333,0200,0336,0330,0332,0336,0332,060,062,062,067,0365,0333,0333,0331,0331,0333,0337,0337,"
  ]
}</json>-->	<path d = "M78 55 L78 9 L33 9 L33 55 L78 55 Z" stroke = "#000000" stroke-width = "1" fill = "none" />    <circle cx="55" cy = "32" r = "2.8409090909090913" stroke = "#000000" stroke-width = "1" fill = "#000000" />
    <circle cx="55" cy = "24" r = "2.8409090909090913" stroke = "#000000" stroke-width = "1" fill = "#000000" />
    <text x="84" y = "49" fill = "#000000" font-size = "45.45454545454546px" font-family = "Arial">:</text>
	<path d = "M146 55 L146 9 L101 9 L101 55 L146 55 Z" stroke = "#000000" stroke-width = "1" fill = "none" />	<path d = "M124 29 L112 29 L112 35 L124 35 L135 35 L135 29 L124 29 Z" stroke = "#000000" stroke-width = "1" fill = "none" />	<path d = "M192 55 L192 9 L146 9 L146 55 L192 55 Z" stroke = "#000000" stroke-width = "1" fill = "none" />	<path d = "M169 29 L158 29 L158 35 L169 35 L180 35 L180 29 L169 29 Z" stroke = "#000000" stroke-width = "1" fill = "none" />	<path d = "M237 55 L237 9 L192 9 L192 55 L237 55 Z" stroke = "#000000" stroke-width = "1" fill = "none" /><circle cx="215" cy = "32" r = "3" stroke = "#008000" stroke-width = "3" fill = "#008000" />
    <line x1="215" y1="32" x2="195" y2="43" style="stroke:#008000;stroke-width:3" />
	<path d = "M195 43 L201 43 L198 38 L195 43 Z" stroke = "#008000" stroke-width = "3" fill = "#008000" /> M215,32 C195,43 	<path d = "M283 55 L283 9 L237 9 L237 55 L283 55 Z" stroke = "#000000" stroke-width = "1" fill = "none" />	<path d = "M257 29 L257 18 L263 18 L263 29 L274 29 L274 35 L263 35 L263 46 L257 46 L257 35 L246 35 L246 29 L257 29 Z" stroke = "#000000" stroke-width = "1" fill = "none" />	<path d = "M328 55 L328 9 L283 9 L283 55 L328 55 Z" stroke = "#000000" stroke-width = "1" fill = "none" />    <line x1="305" y1="32" x2="305" y2="55" style="stroke:#0000ff;stroke-width:3" />
	<path d = "M305 55 L308 50 L303 50 L305 55 Z" stroke = "#0000ff" stroke-width = "3" fill = "#0000ff" /> M305,32 C305,55 	<path d = "M374 55 L374 9 L328 9 L328 55 L374 55 Z" stroke = "#000000" stroke-width = "1" fill = "none" />    <line x1="351" y1="32" x2="351" y2="9" style="stroke:#0000ff;stroke-width:3" />
	<path d = "M351 9 L348 14 L354 14 L351 9 Z" stroke = "#0000ff" stroke-width = "3" fill = "#0000ff" /> M351,32 C351,9 	<path d = "M55 168 L55 123 L10 123 L10 168 L55 168 Z" stroke = "#000000" stroke-width = "1" fill = "none" />	<path d = "M30 143 L30 131 L36 131 L36 143 L47 143 L47 149 L36 149 L36 160 L30 160 L30 149 L19 149 L19 143 L30 143 Z" stroke = "#000000" stroke-width = "1" fill = "none" />	<path d = "M101 168 L101 123 L55 123 L55 168 L101 168 Z" stroke = "#000000" stroke-width = "1" fill = "none" />    <line x1="90" y1="146" x2="67" y2="146" style="stroke:#000000;stroke-width:1" />
	<path d = "M146 168 L146 123 L101 123 L101 168 L146 168 Z" stroke = "#000000" stroke-width = "1" fill = "none" />    <line x1="135" y1="146" x2="112" y2="146" style="stroke:#000000;stroke-width:1" />
	<path d = "M192 168 L192 123 L146 123 L146 168 L192 168 Z" stroke = "#000000" stroke-width = "1" fill = "none" />    <line x1="180" y1="146" x2="158" y2="146" style="stroke:#000000;stroke-width:1" />
	<path d = "M237 168 L237 123 L192 123 L192 168 L237 168 Z" stroke = "#000000" stroke-width = "1" fill = "none" />    <line x1="226" y1="146" x2="203" y2="146" style="stroke:#000000;stroke-width:1" />
	<path d = "M283 168 L283 123 L237 123 L237 168 L283 168 Z" stroke = "#000000" stroke-width = "1" fill = "none" />	<path d = "M266 157 L254 157 L254 146 L249 146 L254 140 L260 134 L266 140 L271 146 L266 146 L266 157 Z" stroke = "#000000" stroke-width = "1" fill = "none" />	<path d = "M328 168 L328 123 L283 123 L283 168 L328 168 Z" stroke = "#000000" stroke-width = "1" fill = "none" />	<path d = "M311 157 L300 157 L300 146 L294 146 L300 140 L305 134 L311 140 L317 146 L311 146 L311 157 Z" stroke = "#000000" stroke-width = "1" fill = "none" />	<path d = "M374 168 L374 123 L328 123 L328 168 L374 168 Z" stroke = "#000000" stroke-width = "1" fill = "none" />    <circle cx="351" cy = "146" r = "11.363636363636365" stroke = "#000000" stroke-width = "1" fill = "#000000" />
	<path d = "M55 282 L55 237 L10 237 L10 282 L55 282 Z" stroke = "#000000" stroke-width = "1" fill = "none" />    <line x1="33" y1="259" x2="33" y2="248" style="stroke:#000000;stroke-width:1" />
    <line x1="33" y1="259" x2="21" y2="259" style="stroke:#000000;stroke-width:1" />
    <line x1="33" y1="259" x2="33" y2="271" style="stroke:#000000;stroke-width:1" />
    <line x1="33" y1="259" x2="44" y2="259" style="stroke:#000000;stroke-width:1" />
	<path d = "M101 282 L101 237 L55 237 L55 282 L101 282 Z" stroke = "#000000" stroke-width = "1" fill = "none" />    <line x1="78" y1="259" x2="78" y2="248" style="stroke:#000000;stroke-width:1" />
    <line x1="78" y1="259" x2="67" y2="259" style="stroke:#000000;stroke-width:1" />
    <line x1="78" y1="259" x2="78" y2="271" style="stroke:#000000;stroke-width:1" />
    <line x1="78" y1="259" x2="90" y2="259" style="stroke:#000000;stroke-width:1" />
	<path d = "M146 282 L146 237 L101 237 L101 282 L146 282 Z" stroke = "#000000" stroke-width = "1" fill = "none" />    <line x1="124" y1="259" x2="124" y2="248" style="stroke:#000000;stroke-width:1" />
    <line x1="124" y1="259" x2="112" y2="259" style="stroke:#000000;stroke-width:1" />
    <line x1="124" y1="259" x2="124" y2="271" style="stroke:#000000;stroke-width:1" />
    <line x1="124" y1="259" x2="135" y2="259" style="stroke:#000000;stroke-width:1" />
	<path d = "M192 282 L192 237 L146 237 L146 282 L192 282 Z" stroke = "#000000" stroke-width = "1" fill = "none" />    <line x1="169" y1="259" x2="169" y2="248" style="stroke:#000000;stroke-width:1" />
    <line x1="169" y1="259" x2="158" y2="259" style="stroke:#000000;stroke-width:1" />
    <line x1="169" y1="259" x2="169" y2="271" style="stroke:#000000;stroke-width:1" />
    <line x1="169" y1="259" x2="180" y2="259" style="stroke:#000000;stroke-width:1" />
	<path d = "M237 282 L237 237 L192 237 L192 282 L237 282 Z" stroke = "#000000" stroke-width = "1" fill = "none" />    <line x1="215" y1="259" x2="215" y2="237" style="stroke:#0000ff;stroke-width:3" />
	<path d = "M215 237 L212 242 L217 242 L215 237 Z" stroke = "#0000ff" stroke-width = "3" fill = "#0000ff" /> M215,259 C215,237 	<path d = "M283 282 L283 237 L237 237 L237 282 L283 282 Z" stroke = "#000000" stroke-width = "1" fill = "none" />	<path d = "M266 276 L266 254 L243 254 L243 276 L266 276 Z" stroke = "#000000" stroke-width = "1" fill = "none" />    <line x1="266" y1="276" x2="271" y2="267" style="stroke:#000000;stroke-width:1" />
    <line x1="271" y1="267" x2="271" y2="244" style="stroke:#000000;stroke-width:1" />
    <line x1="271" y1="244" x2="266" y2="254" style="stroke:#000000;stroke-width:1" />
    <line x1="271" y1="244" x2="249" y2="244" style="stroke:#000000;stroke-width:1" />
    <line x1="249" y1="244" x2="243" y2="254" style="stroke:#000000;stroke-width:1" />
<path    d = "M192,293 C192,316 237,293 237,316" fill = "none" stroke-width = "3" stroke = "#ff0000" /><path    d = "M237,316 C237,293 283,316 283,293" fill = "none" stroke-width = "3" stroke = "#ff0000" />    <text x="226" y = "339" fill = "#ff0000" font-size = "22.72727272727273px" font-family = "Arial">3d</text>
<path    d = "M10,293 C10,316 101,293 101,316" fill = "none" stroke-width = "3" stroke = "#008000" /><path    d = "M101,316 C101,293 192,316 192,293" fill = "none" stroke-width = "3" stroke = "#008000" />    <text x="78" y = "339" fill = "#008000" font-size = "22.72727272727273px" font-family = "Arial">2d</text>
<path    d = "M55,180 C55,202 215,180 215,203" fill = "none" stroke-width = "3" stroke = "#008000" /><path    d = "M215,203 C215,180 374,203 374,180" fill = "none" stroke-width = "3" stroke = "#008000" />    <text x="203" y = "225" fill = "#008000" font-size = "22.72727272727273px" font-family = "Arial">2d</text>
<path    d = "M101,66 C101,89 237,66 237,89" fill = "none" stroke-width = "3" stroke = "#0000ff" /><path    d = "M237,89 C237,66 374,89 374,66" fill = "none" stroke-width = "3" stroke = "#0000ff" />    <text x="192" y = "112" fill = "#0000ff" font-size = "22.72727272727273px" font-family = "Arial">robot</text>
<path    d = "M10,180 C10,191 33,180 33,191" fill = "none" stroke-width = "3" stroke = "#0000ff" /><path    d = "M33,191 C33,180 55,191 55,180" fill = "none" stroke-width = "3" stroke = "#0000ff" />    <text x="10" y = "214" fill = "#0000ff" font-size = "22.72727272727273px" font-family = "Arial">robot</text>
    <text x="41" y = "72" fill = "#000000" font-size = "11.363636363636365px" font-family = "Arial">0500</text>
</svg>