<svg width="400" height="400" viewbox = "0 0 400 400"  xmlns="http://www.w3.org/2000/svg">
<!--<json>{
  "glyph": "0321,0332,0337,0341,0333,0341,0331,0332,0336,0331,0332,0332,0336,0331,0332,0337,0336,0333,0337,01321,01332,01337,01341,01333,01341,0331,0332,0332,0332,0332,0332,0332,0336,060,063,062,061,054,060,063,063,062,054,060,063,063,067,054,060,063,064,062,054,060,063,063,063,054,060,063,064,062,054,0336,0330,0330,0211,0211,0365,",
  "x0": 200,
  "y0": 150,
  "unit": 50,
  "width": 400,
  "height": 400,
  "style": {
    "color0": "black",
    "fill0": "black",
    "line0": 1,
    "color1": "black",
    "fill1": "black",
    "line1": 5,
    "color2": "red",
    "fill2": "red",
    "line2": 1,
    "color3": "#FF7900",
    "fill3": "#FF7900",
    "line3": 1,
    "color4": "yellow",
    "fill4": "yellow",
    "line4": 1,
    "color5": "green",
    "fill5": "green",
    "line5": 1,
    "color6": "blue",
    "fill6": "blue",
    "line6": 1,
    "color7": "purple",
    "fill7": "purple",
    "line7": 1
  },
  "shapes": [
    "01220:0333,0200,0336,0330,0332,0336,0332,060,062,062,060,0365,0333,0333,0331,0331,0333,0337,0337,",
    "01221:0333,0200,0336,0330,0332,0336,0332,060,062,062,061,0365,0333,0333,0331,0331,0333,0337,0337,",
    "01222:0333,0200,0336,0330,0332,0336,0332,060,062,062,062,0365,0333,0333,0331,0331,0333,0337,0337,",
    "01223:0333,0200,0336,0330,0332,0336,0332,060,062,062,063,0365,0333,0333,0331,0331,0333,0337,0337,",
    "01224:0333,0200,0336,0330,0332,0336,0332,060,062,062,064,0365,0333,0333,0331,0331,0333,0337,0337,",
    "01225:0333,0200,0336,0330,0332,0336,0332,060,062,062,065,0365,0333,0333,0331,0331,0333,0337,0337,",
    "01226:0333,0200,0336,0330,0332,0336,0332,060,062,062,066,0365,0333,0333,0331,0331,0333,0337,0337,",
    "01227:0333,0200,0336,0330,0332,0336,0332,060,062,062,067,0365,0333,0333,0331,0331,0333,0337,0337,",
    "01230:0333,0200,0336,0330,0332,0336,0332,060,062,063,060,0365,0333,0333,0331,0331,0333,0337,0337,",
    "01231:0333,0200,0336,0330,0332,0336,0332,060,062,063,061,0365,0333,0333,0331,0331,0333,0337,0337,",
    "01232:0333,0200,0336,0330,0332,0336,0332,060,062,063,062,0365,0333,0333,0331,0331,0333,0337,0337,",
    "01233:0333,0200,0336,0330,0332,0336,0332,060,062,063,063,0365,0333,0333,0331,0331,0333,0337,0337,",
    "01234:0333,0200,0336,0330,0332,0336,0332,060,062,063,064,0365,0333,0333,0331,0331,0333,0337,0337,",
    "01235:0333,0200,0336,0330,0332,0336,0332,060,062,063,065,0365,0333,0333,0331,0331,0333,0337,0337,",
    "01236:0333,0200,0336,0330,0332,0336,0332,060,062,063,066,0365,0333,0333,0331,0331,0333,0337,0337,",
    "01237:0333,0200,0336,0330,0332,0336,0332,060,062,063,067,0365,0333,0333,0331,0331,0333,0337,0337,"
  ]
}</json>--><circle cx="150" cy = "150" r = "100" stroke = "#000000" stroke-width = "5" fill = "none" />
<circle cx="250" cy = "150" r = "100" stroke = "#000000" stroke-width = "5" fill = "none" />
	<path d = "M100 325 L100 275 L50 275 L50 325 L100 325 Z" stroke = "#000000" stroke-width = "1" fill = "none" />	<path d = "M88 313 L88 288 L63 288 L63 313 L88 313 Z" stroke = "#000000" stroke-width = "5" fill = "#000000" />    <line x1="88" y1="319" x2="63" y2="319" style="stroke:#000000;stroke-width:5" />
    <line x1="56" y1="275" x2="56" y2="281" style="stroke:#000000;stroke-width:1" />
	<path d = "M150 325 L150 275 L100 275 L100 325 L150 325 Z" stroke = "#000000" stroke-width = "1" fill = "none" />	<path d = "M138 294 L138 306 L125 306 L125 313 L119 306 L113 300 L119 294 L125 288 L125 294 L138 294 Z" stroke = "#000000" stroke-width = "1" fill = "none" />	<path d = "M200 325 L200 275 L150 275 L150 325 L200 325 Z" stroke = "#000000" stroke-width = "1" fill = "none" />    <line x1="175" y1="300" x2="175" y2="288" style="stroke:#000000;stroke-width:1" />
    <line x1="175" y1="300" x2="163" y2="300" style="stroke:#000000;stroke-width:1" />
    <line x1="175" y1="300" x2="175" y2="313" style="stroke:#000000;stroke-width:1" />
    <line x1="175" y1="300" x2="188" y2="300" style="stroke:#000000;stroke-width:1" />
	<path d = "M250 325 L250 275 L200 275 L200 325 L250 325 Z" stroke = "#000000" stroke-width = "1" fill = "none" /><circle cx="225" cy = "300" r = "25.000000000000004" stroke = "#000000" stroke-width = "1" fill = "none" />
<circle cx="225" cy = "300" r = "1" stroke = "#000000" stroke-width = "1" fill = "#000000" />
	<path d = "M300 325 L300 275 L250 275 L250 325 L300 325 Z" stroke = "#000000" stroke-width = "1" fill = "none" />	<path d = "M263 306 L262 294 L275 294 L275 288 L281 294 L287 300 L281 306 L275 313 L275 306 L262 306 Z" stroke = "#000000" stroke-width = "1" fill = "none" />	<path d = "M350 325 L350 275 L300 275 L300 325 L350 325 Z" stroke = "#000000" stroke-width = "1" fill = "none" /><circle cx="325" cy = "300" r = "25.000000000000007" stroke = "#000000" stroke-width = "1" fill = "none" />
<circle cx="325" cy = "300" r = "1" stroke = "#000000" stroke-width = "1" fill = "#000000" />
    <text x="50" y = "350" fill = "#000000" font-size = "16.362712429686848px" font-family = "Arial">0321,0332,0337,0342,0333,0342,</text>
</svg>