<svg width="400" height="400" viewbox = "0 0 400 400"  xmlns="http://www.w3.org/2000/svg">
<!--<json>{
  "glyph": "0336,0330,0330,0332,0332,0330,0332,01400,0331,0332,01401,0331,0332,01402,0331,0332,01403,0331,0332,01404,0331,0332,01405,0331,0332,01406,0331,0332,01407,0336,0336,0330,0333,0337,0144,0157,0165,0142,0154,0145,040,0165,0156,0151,0164,0365,0150,0141,0154,0166,0145,040,0165,0156,0151,0164,0330,0330,0365,0155,0157,0166,0145,040,0144,0157,0167,0156,040,061,040,0165,0156,0151,0164,0330,0330,0365,0330,0330,0155,0157,0166,0145,040,0165,0160,040,061,040,0165,0156,0151,0164,0365,0330,0330,0155,0157,0166,0145,040,0164,0157,0167,0141,0162,0144,040,061,040,0165,0156,0151,0164,0365,0330,0330,0155,0157,0166,0145,040,0141,0167,0141,0171,040,061,040,0165,0156,0151,0164,0365,0330,0330,0155,0157,0166,0145,040,0154,0145,0146,0164,040,061,040,0165,0156,0151,0164,0365,0330,0330,0155,0157,0166,0145,040,0162,0151,0147,0150,0164,040,061,040,0165,0156,0151,0164,0365,",
  "x0": 200,
  "y0": 200,
  "unit": 90.9090909090909,
  "width": 400,
  "height": 400,
  "style": {
    "color0": "black",
    "fill0": "black",
    "line0": 1,
    "color1": "black",
    "fill1": "black",
    "line1": 5,
    "color2": "red",
    "fill2": "#ff000020",
    "line2": 2,
    "color3": "#FF7900",
    "fill3": "#FF7900",
    "line3": 1,
    "color4": "yellow",
    "fill4": "yellow",
    "line4": 1,
    "color5": "green",
    "fill5": "green",
    "line5": 1,
    "color6": "blue",
    "fill6": "blue",
    "line6": 1,
    "color7": "purple",
    "fill7": "purple",
    "line7": 1
  },
  "shapes": [
    "01220:0333,0200,0336,0330,0332,0336,0332,060,062,062,060,0365,0333,0333,0331,0331,0333,0337,0337,",
    "01221:0333,0200,0336,0330,0332,0336,0332,060,062,062,061,0365,0333,0333,0331,0331,0333,0337,0337,",
    "01222:0333,0200,0336,0330,0332,0336,0332,060,062,062,062,0365,0333,0333,0331,0331,0333,0337,0337,",
    "01223:0333,0200,0336,0330,0332,0336,0332,060,062,062,063,0365,0333,0333,0331,0331,0333,0337,0337,",
    "01224:0333,0200,0336,0330,0332,0336,0332,060,062,062,064,0365,0333,0333,0331,0331,0333,0337,0337,",
    "01225:0333,0200,0336,0330,0332,0336,0332,060,062,062,065,0365,0333,0333,0331,0331,0333,0337,0337,",
    "01226:0333,0200,0336,0330,0332,0336,0332,060,062,062,066,0365,0333,0333,0331,0331,0333,0337,0337,",
    "01227:0333,0200,0336,0330,0332,0336,0332,060,062,062,067,0365,0333,0333,0331,0331,0333,0337,0337,",
    "01230:0333,0200,0336,0330,0332,0336,0332,060,062,063,060,0365,0333,0333,0331,0331,0333,0337,0337,",
    "01231:0333,0200,0336,0330,0332,0336,0332,060,062,063,061,0365,0333,0333,0331,0331,0333,0337,0337,",
    "01232:0333,0200,0336,0330,0332,0336,0332,060,062,062,062,0365,0333,0333,0331,0331,0333,0337,0337,",
    "01233:0333,0200,0336,0330,0332,0336,0332,060,062,062,063,0365,0333,0333,0331,0331,0333,0337,0337,",
    "01234:0333,0200,0336,0330,0332,0336,0332,060,062,062,064,0365,0333,0333,0331,0331,0333,0337,0337,",
    "01235:0333,0200,0336,0330,0332,0336,0332,060,062,062,065,0365,0333,0333,0331,0331,0333,0337,0337,",
    "01236:0333,0200,0336,0330,0332,0336,0332,060,062,062,066,0365,0333,0333,0331,0331,0333,0337,0337,",
    "01237:0333,0200,0336,0330,0332,0336,0332,060,062,062,067,0365,0333,0333,0331,0331,0333,0337,0337,"
  ]
}</json>-->	<path d = "M109 64 L109 18 L64 18 L64 64 L109 64 Z" stroke = "#000000" stroke-width = "1" fill = "none" /><circle cx="86" cy = "41" r = "2" stroke = "#ff0000" stroke-width = "2" fill = "#ff0000" />
    <line x1="86" y1="41" x2="109" y2="41" style="stroke:#ff0000;stroke-width:2" />
	<path d = "M109 41 L104 38 L104 44 L109 41 Z" stroke = "#ff0000" stroke-width = "2" fill = "rgba(255, 0, 0, 0.125)" /> M86,41 C109,41 	<path d = "M109 109 L109 64 L64 64 L64 109 L109 109 Z" stroke = "#000000" stroke-width = "1" fill = "none" />    <line x1="86" y1="86" x2="64" y2="86" style="stroke:#ff0000;stroke-width:2" />
	<path d = "M64 86 L69 89 L69 84 L64 86 Z" stroke = "#ff0000" stroke-width = "2" fill = "rgba(255, 0, 0, 0.125)" /> M86,86 C64,86 <circle cx="86" cy = "86" r = "2" stroke = "#ff0000" stroke-width = "2" fill = "#ff0000" />
	<path d = "M109 155 L109 109 L64 109 L64 155 L109 155 Z" stroke = "#000000" stroke-width = "1" fill = "none" /><circle cx="86" cy = "132" r = "1" stroke = "#008000" stroke-width = "1" fill = "#008000" />
    <line x1="86" y1="132" x2="106" y2="120" style="stroke:#008000;stroke-width:1" />
	<path d = "M106 120 L100 120 L103 125 L106 120 Z" stroke = "#008000" stroke-width = "1" fill = "#008000" /> M86,132 C106,120 	<path d = "M109 200 L109 155 L64 155 L64 200 L109 200 Z" stroke = "#000000" stroke-width = "1" fill = "none" /><circle cx="86" cy = "177" r = "1" stroke = "#008000" stroke-width = "1" fill = "#008000" />
    <line x1="86" y1="177" x2="67" y2="189" style="stroke:#008000;stroke-width:1" />
	<path d = "M67 189 L72 189 L70 184 L67 189 Z" stroke = "#008000" stroke-width = "1" fill = "#008000" /> M86,177 C67,189 	<path d = "M109 245 L109 200 L64 200 L64 245 L109 245 Z" stroke = "#000000" stroke-width = "1" fill = "none" />    <line x1="86" y1="223" x2="86" y2="200" style="stroke:#0000ff;stroke-width:1" />
	<path d = "M86 200 L84 205 L89 205 L86 200 Z" stroke = "#0000ff" stroke-width = "1" fill = "#0000ff" /> M86,223 C86,200 <circle cx="86" cy = "223" r = "1" stroke = "#0000ff" stroke-width = "1" fill = "#0000ff" />
	<path d = "M109 291 L109 245 L64 245 L64 291 L109 291 Z" stroke = "#000000" stroke-width = "1" fill = "none" />    <line x1="86" y1="268" x2="86" y2="291" style="stroke:#0000ff;stroke-width:1" />
	<path d = "M86 291 L89 286 L84 286 L86 291 Z" stroke = "#0000ff" stroke-width = "1" fill = "#0000ff" /> M86,268 C86,291 <circle cx="86" cy = "268" r = "1" stroke = "#0000ff" stroke-width = "1" fill = "#0000ff" />
	<path d = "M109 336 L109 291 L64 291 L64 336 L109 336 Z" stroke = "#000000" stroke-width = "1" fill = "none" />	<path d = "M86 311 L75 311 L75 316 L86 316 L98 316 L98 311 L86 311 Z" stroke = "#000000" stroke-width = "1" fill = "none" />	<path d = "M109 382 L109 336 L64 336 L64 382 L109 382 Z" stroke = "#000000" stroke-width = "1" fill = "none" />	<path d = "M84 356 L84 345 L89 345 L89 356 L101 356 L101 362 L89 362 L89 373 L84 373 L84 362 L72 362 L72 356 L84 356 Z" stroke = "#000000" stroke-width = "1" fill = "none" />    <text x="120" y = "370" fill = "#000000" font-size = "22.727272727272727px" font-family = "Arial">double unit</text>
    <text x="120" y = "325" fill = "#000000" font-size = "22.727272727272727px" font-family = "Arial">halve unit</text>
    <text x="120" y = "280" fill = "#000000" font-size = "22.727272727272727px" font-family = "Arial">move down 1 unit</text>
    <text x="120" y = "234" fill = "#000000" font-size = "22.727272727272727px" font-family = "Arial">move up 1 unit</text>
    <text x="120" y = "189" fill = "#000000" font-size = "22.727272727272727px" font-family = "Arial">move toward 1 unit</text>
    <text x="120" y = "143" fill = "#000000" font-size = "22.727272727272727px" font-family = "Arial">move away 1 unit</text>
    <text x="120" y = "98" fill = "#000000" font-size = "22.727272727272727px" font-family = "Arial">move left 1 unit</text>
    <text x="120" y = "52" fill = "#000000" font-size = "22.727272727272727px" font-family = "Arial">move right 1 unit</text>
</svg>