<svg width="600" height="600" viewbox = "0 0 600 600"  xmlns="http://www.w3.org/2000/svg">
<!--<json>{
  "glyph": "0321,0223,0330,0330,0223,0331,0331,0331,0331,0223,0333,0330,0333,0330,0333,0330,0330,0336,0331,0337,0331,0331,0331,0331,0330,0332,0332,0332,0332,0332,0330,0336,0331,0337,0337,0200,0331,0336,0362,0203,0334,0203,0203,0334,0203,0334,0203,0203,0354,0334,0336,0330,0332,0332,0330,0336,0332,0337,0337,0221,0321,0336,0331,0336,0332,0332,0330,0143,0157,0156,0164,0162,0157,0154,0154,0145,0162,0365,0331,0330,0330,0330,0330,0330,0330,0330,0333,0330,0330,0330,0141,0162,0144,0165,0151,0156,0157,0365,0330,0330,0330,0330,0333,0333,0337,0337,0342,0330,0336,0333,0332,0330,0337,0223,0336,0330,0350,0343,0210,0210,0343,0210,0210,0210,0343,0211,0211,0211,0211,0211,0330,0336,0330,0337,0304,0330,0337,0223,0336,0332,0336,0332,0147,0145,0157,0155,0145,0164,0162,0157,0156,0365,0331,0336,0331,0337,0163,0145,0162,0166,0145,0162,0365,0331,0331,0331,0331,0331,0331,0143,0157,0155,0160,0165,0164,0145,0162,0365,0331,0333,0331,0333,0331,0333,0331,0333,0165,0163,0142,0365,0331,0333,0331,0333,0331,0333,0337,0335,0350,0334,0310,0337,0362,0203,0334,0336,0203,0313,0336,0203,0335,0335,0337,0203,0364,0304,0331,0331,0333,0333,0333,0333,0336,0336,0332,0337,0337,0337,0342,0336,0333,0335,0350,0334,0310,0337,0362,0203,0335,0336,0313,0304,0203,0203,0334,0203,0364,0334,0333,0336,0336,0330,0337,0331,0336,0331,0337,0337,0101,0104,0103,0365,0330,0330,0330,0330,0101,0104,0103,0365,0330,0330,0330,0330,0101,0104,0103,0365,0300,0333,0330,0333,0330,0336,0330,0332,0337,0320,0333,0333,0321,0336,0330,0333,0337,0337,0200,0336,0330,0332,0336,0333,0336,0333,0337,0336,0331,0337,0337,0200,0320,0336,0332,0337,0342,0336,0336,0333,0337,0337,0342,0336,0332,0337,0342,0336,0330,0335,0336,0331,0337,0337,0342,0336,0336,0332,0337,0337,0342,0336,0336,0333,0337,0336,0333,0337,0337,0342,0334,0336,0331,0332,0336,0331,0336,0336,0331,0337,0341,0333,0333,0333,0341,0333,0333,0333,0341,0330,0332,0332,0332,0332,0330,0332,0332,0336,0331,0332,0337,0337,0130,0365,0333,0336,0336,0333,0337,0337,0131,0365,0333,0333,0336,0332,0336,0333,0337,0337,0132,0365,0331,0332,0332,0332,0331,0331,0332,0332,0332,0331,0332,0332,0331,0336,0336,0333,0337,0337,0337,0331,0336,0330,0336,0330,0337,0337,0337,0320,0335,0321,0362,0203,0336,0336,0203,0334,0337,0337,0203,0364,0335,0334,0336,0333,0336,0336,0332,0335,0335,0337,0337,0337,0337,0362,0203,0336,0203,0335,0203,0336,0203,0336,0336,0203,0364,0335,0337,0337,0333,0333,0333,0330,0333,0330,0333,0330,0330,0330,0330,0332,0335,0335,0362,0203,0203,0203,0203,0203,0203,0203,0203,0203,0203,0335,0203,0203,0203,0203,0364,0300,0330,0330,0333,0330,0330,0330,0333,0336,0336,0330,0333,0141,0156,0141,0154,0157,0147,040,0142,0145,0141,0155,040,0143,0157,0332,0332,0156,0164,0162,0157,0154,0365,0300,0332,0331,0332,0331,0336,0332,0332,0331,0332,0336,0336,0331,0337,0325,0347,0322,0333,0333,0333,0333,0347,",
  "x0": 300,
  "y0": 350,
  "unit": 60.10518407212621,
  "width": 600,
  "height": 600,
  "style": {
    "color0": "black",
    "fill0": "black",
    "line0": 1,
    "color1": "black",
    "fill1": "black",
    "line1": 5,
    "color2": "red",
    "fill2": "red",
    "line2": 5,
    "color3": "#FF7900",
    "fill3": "#FF7900",
    "line3": 5,
    "color4": "yellow",
    "fill4": "yellow",
    "line4": 5,
    "color5": "green",
    "fill5": "green",
    "line5": 5,
    "color6": "blue",
    "fill6": "blue",
    "line6": 5,
    "color7": "purple",
    "fill7": "purple",
    "line7": 5
  },
  "shapes": [
    "0220:0340,0336,0336,0336,0332,0337,0337,0337,0362,0203,0203,0335,0336,0336,0203,0335,0337,0337,0203,0203,0203,0203,0335,0336,0336,0203,0335,0337,0337,0203,0203,0363,0330,0330,0336,0336,0336,0333,0337,0337,0334,0306,0362,0203,0335,0335,0203,0203,0335,0335,0203,0203,0335,0335,0203,0363,0304,0332,0332,0332,0332,0332,0332,0332,0332,0362,0203,0306,0334,0334,0203,0203,0334,0334,0203,0203,0334,0334,0203,0363,0304,0335,0330,0330,0330,0330,0337,",
    "0221:0322,0342,0336,0336,0336,0336,0333,0337,0337,0337,0337,0323,0342,0336,0336,0336,0336,0333,0337,0337,0337,0337,0324,0342,0336,0336,0336,0336,0325,0333,0337,0337,0337,0337,0342,0326,0336,0336,0336,0336,0333,0337,0337,0337,0337,0342,0327,0336,0336,0336,0336,0333,0337,0337,0337,0337,0342,0336,0332,0336,0336,0333,0336,0333,0337,0337,0337,0337,",
    "0223:0336,0331,0337,0332,0362,0203,0335,0203,0203,0335,0203,0335,0203,0203,0354,0335,0333,0336,0330,0337,",
    "01220:0333,0200,0336,0330,0332,0336,0336,0220,0337,0337,0331,0333,0337,",
    "01221:0333,0200,0336,0330,0332,0336,0332,060,062,062,061,0365,0333,0333,0331,0331,0333,0337,0337,",
    "01222:0333,0200,0336,0330,0332,0336,0332,060,062,062,062,0365,0333,0333,0331,0331,0333,0337,0337,",
    "01223:0333,0200,0336,0330,0332,0336,0223,0337,0331,0333,0337,",
    "01224:0333,0200,0336,0330,0332,0336,0332,060,062,062,064,0365,0333,0333,0331,0331,0333,0337,0337,",
    "01225:0333,0200,0336,0330,0332,0336,0332,060,062,062,065,0365,0333,0333,0331,0331,0333,0337,0337,",
    "01226:0333,0200,0336,0330,0332,0336,0332,060,062,062,066,0365,0333,0333,0331,0331,0333,0337,0337,",
    "01227:0333,0200,0336,0330,0332,0336,0332,060,062,062,067,0365,0333,0333,0331,0331,0333,0337,0337,",
    "01230:0333,0200,0336,0330,0332,0336,0332,060,062,063,060,0365,0333,0333,0331,0331,0333,0337,0337,",
    "01231:0333,0200,0336,0330,0332,0336,0332,060,062,063,061,0365,0333,0333,0331,0331,0333,0337,0337,",
    "01232:0333,0200,0336,0330,0332,0336,0332,060,062,062,062,0365,0333,0333,0331,0331,0333,0337,0337,",
    "01233:0333,0200,0336,0330,0332,0336,0332,060,062,062,063,0365,0333,0333,0331,0331,0333,0337,0337,",
    "01234:0333,0200,0336,0330,0332,0336,0332,060,062,062,064,0365,0333,0333,0331,0331,0333,0337,0337,",
    "01235:0333,0200,0336,0330,0332,0336,0332,060,062,062,065,0365,0333,0333,0331,0331,0333,0337,0337,",
    "01236:0333,0200,0336,0330,0332,0336,0332,060,062,062,066,0365,0333,0333,0331,0331,0333,0337,0337,",
    "01237:0333,0200,0336,0330,0332,0336,0332,060,062,062,067,0365,0333,0333,0331,0331,0333,0337,0337,"
  ]
}</json>-->	<path d = "M240 380 L240 320 L300 320 L360 320 L360 380 L300 380 L240 380 Z" stroke = "#000000" stroke-width = "5" fill = "none" />	<path d = "M240 260 L240 200 L300 200 L360 200 L360 260 L300 260 L240 260 Z" stroke = "#000000" stroke-width = "5" fill = "none" />	<path d = "M240 500 L240 440 L300 440 L360 440 L360 500 L300 500 L240 500 Z" stroke = "#000000" stroke-width = "5" fill = "none" />	<path d = "M180 410 L180 290 L60 290 L60 410 L180 410 Z" stroke = "#000000" stroke-width = "5" fill = "none" />	<path d = "M180 530 L180 470 L120 470 L60 470 L60 530 L120 530 L180 530 Z" stroke = "#000000" stroke-width = "5" fill = "none" />    <line x1="105" y1="470" x2="105" y2="410" style="stroke:#ff0000;stroke-width:5" />
    <line x1="108" y1="470" x2="108" y2="410" style="stroke:#ff7900;stroke-width:5" />
    <line x1="112" y1="470" x2="112" y2="410" style="stroke:#ffff00;stroke-width:5" />
    <line x1="116" y1="470" x2="116" y2="410" style="stroke:#008000;stroke-width:5" />
    <line x1="120" y1="470" x2="120" y2="410" style="stroke:#0000ff;stroke-width:5" />
    <line x1="123" y1="470" x2="123" y2="410" style="stroke:#800080;stroke-width:5" />
    <text x="75" y = "485" fill = "#000000" font-size = "15.026296018031552px" font-family = "Arial">controller</text>
    <text x="90" y = "350" fill = "#000000" font-size = "15.026296018031552px" font-family = "Arial">arduino</text>
    <line x1="120" y1="290" x2="120" y2="230" style="stroke:#000000;stroke-width:5" />
	<path d = "M60 230 L60 170 L120 170 L180 170 L180 230 L120 230 L60 230 Z" stroke = "#000000" stroke-width = "5" fill = "none" />  <path d="M98.43405616268747 148.43405616268979           A30.052592036063103 30.052592036063103 0 0 1 140.9348394045536 148.4340561626897" fill = "none" stroke = "#000000" stroke-width = "5" />
  <path d="M103.45059313371962 153.45059313372192           A22.9581374154834 22.9581374154834 0 0 1 135.91830243352146 153.45059313372184" fill = "none" stroke = "#000000" stroke-width = "5" />
  <path d="M108.84508564994972 158.84508564995198           A15.329172936910659 15.329172936910659 0 0 1 130.5238099172914 158.84508564995193" fill = "none" stroke = "#000000" stroke-width = "5" />
	<path d = "M60 125 L60 65 L120 65 L180 65 L180 125 L120 125 L60 125 Z" stroke = "#000000" stroke-width = "5" fill = "none" />    <text x="75" y = "95" fill = "#000000" font-size = "15.026296018031553px" font-family = "Arial">geometron</text>
    <text x="75" y = "117" fill = "#000000" font-size = "15.026296018031553px" font-family = "Arial">server</text>
    <text x="75" y = "207" fill = "#000000" font-size = "15.026296018031553px" font-family = "Arial">computer</text>
    <text x="135" y = "267" fill = "#000000" font-size = "15.026296018031553px" font-family = "Arial">usb</text>
	<path d = "M180 312 L210 282 L210 252 L210 237 L240 237 " stroke = "#000000" stroke-width = "5" fill = "none" />    <line x1="180" y1="350" x2="240" y2="350" style="stroke:#000000;stroke-width:5" />
	<path d = "M180 380 L210 410 L210 440 L210 470 L240 470 " stroke = "#000000" stroke-width = "5" fill = "none" />    <text x="270" y = "485" fill = "#000000" font-size = "30.052592036063107px" font-family = "Arial">ADC</text>
    <text x="270" y = "365" fill = "#000000" font-size = "30.052592036063107px" font-family = "Arial">ADC</text>
    <text x="270" y = "245" fill = "#000000" font-size = "30.052592036063107px" font-family = "Arial">ADC</text>
	<path d = "M540 170 L540 49 L420 49 L420 170 L540 170 Z" stroke = "#000000" stroke-width = "5" fill = "none" />	<path d = "M525 125 L525 65 L465 65 L465 125 L525 125 Z" stroke = "#000000" stroke-width = "5" fill = "none" />    <line x1="495" y1="125" x2="495" y2="65" style="stroke:#000000;stroke-width:1" />
    <line x1="510" y1="125" x2="510" y2="65" style="stroke:#000000;stroke-width:1" />
    <line x1="480" y1="125" x2="480" y2="65" style="stroke:#000000;stroke-width:1" />
    <line x1="465" y1="95" x2="525" y2="95" style="stroke:#000000;stroke-width:1" />
    <line x1="465" y1="80" x2="525" y2="80" style="stroke:#000000;stroke-width:1" />
    <line x1="465" y1="110" x2="525" y2="110" style="stroke:#000000;stroke-width:1" />
<circle cx="435" cy = "158" r = "7.513148009015776" stroke = "#000000" stroke-width = "1" fill = "none" />
<circle cx="458" cy = "158" r = "7.513148009015776" stroke = "#000000" stroke-width = "1" fill = "none" />
<circle cx="480" cy = "158" r = "7.513148009015776" stroke = "#000000" stroke-width = "1" fill = "none" />
    <text x="431" y = "147" fill = "#000000" font-size = "15.026296018031552px" font-family = "Arial">X</text>
    <text x="450" y = "147" fill = "#000000" font-size = "15.026296018031552px" font-family = "Arial">Y</text>
    <text x="477" y = "147" fill = "#000000" font-size = "15.026296018031552px" font-family = "Arial">Z</text>
	<path d = "M360 230 L420 230 L435 230 L435 170 " stroke = "#000000" stroke-width = "5" fill = "none" />	<path d = "M458 170 L458 290 L458 350 L398 350 L368 350 L360 350 " stroke = "#000000" stroke-width = "5" fill = "none" />	<path d = "M480 170 L480 200 L480 230 L480 260 L480 290 L480 320 L480 350 L480 380 L480 410 L480 440 L480 470 L450 470 L420 470 L390 470 L360 470 " stroke = "#000000" stroke-width = "5" fill = "none" />    <text x="405" y = "34" fill = "#000000" font-size = "15.026296018031552px" font-family = "Arial">analog beam control</text>
    <circle cx="90" cy = "508" r = "15.026296018031552" stroke = "#008000" stroke-width = "5" fill = "#008000" />
    <circle cx="150" cy = "508" r = "15.026296018031552" stroke = "#ff0000" stroke-width = "5" fill = "#ff0000" />
</svg>