<svg width="600" height="600" viewbox = "0 0 600 600"  xmlns="http://www.w3.org/2000/svg">
<!--<json>{
  "glyph": "0321,0223,0330,0330,0223,0331,0331,0331,0331,0223,0333,0330,0333,0330,0333,0330,0330,0336,0331,0337,0331,0331,0331,0331,0330,0332,0332,0332,0332,0332,0330,0336,0331,0337,0337,0200,0331,0336,0362,0203,0334,0203,0203,0334,0203,0334,0203,0203,0354,0334,0336,0330,0332,0332,0330,0336,0332,0337,0337,0221,0321,0336,0331,0336,0332,0332,0143,0157,0156,0164,0162,0157,0154,0154,0145,0162,0365,0330,0330,0330,0330,0330,0330,0330,0333,0330,0330,0330,0141,0162,0144,0165,0151,0156,0157,0365,0330,0330,0330,0330,0333,0333,0337,0337,0342,0330,0336,0333,0332,0330,0337,0223,0336,0330,0350,0343,0210,0210,0343,0210,0210,0210,0343,0211,0211,0211,0211,0211,0330,0336,0330,0337,0304,0330,0337,0223,0336,0332,0336,0332,0147,0145,0157,0155,0145,0164,0162,0157,0156,0365,0331,0336,0331,0337,0163,0145,0162,0166,0145,0162,0365,0331,0331,0331,0331,0331,0331,0143,0157,0155,0160,0165,0164,0145,0162,0365,0331,0333,0331,0333,0331,0333,0331,0333,0165,0163,0142,0365,0331,0333,0331,0333,0331,0333,0337,0335,0350,0334,0310,0337,0362,0203,0334,0336,0203,0313,0336,0203,0335,0335,0337,0203,0364,0304,0331,0331,0333,0333,0333,0333,0336,0336,0332,0337,0337,0337,0342,0336,0333,0335,0350,0334,0310,0337,0362,0203,0335,0336,0313,0304,0203,0203,0334,0203,0364,0334,0333,0336,0336,0330,0337,0155,0157,0164,0157,0162,0365,0331,0336,0331,0337,0143,0157,0156,0164,0162,0157,0154,0154,0145,0162,0365,0330,0330,0330,0330,0330,0330,0330,0330,0143,0157,0156,0164,0162,0157,0154,0154,0145,0162,0365,0330,0336,0330,0337,0155,0157,0164,0157,0162,0365,0330,0330,0330,0330,0330,0330,0143,0157,0156,0164,0162,0157,0154,0154,0145,0162,0365,0330,0336,0330,0337,0155,0157,0164,0157,0162,0365,0333,0333,0333,0333,0333,0333,0333,0333,0333,0333,0333,0333,0333,0333,0337,0337,0223,0331,0331,0223,0331,0331,0223,0332,0336,0334,0337,0342,0333,0333,0342,0333,0333,0342,0336,0336,0336,0332,0337,0337,0337,0342,0336,0336,0333,0337,0337,0342,0336,0336,0332,0336,0332,0337,0337,0337,0342,0332,0332,0342,0336,0336,0336,0333,0337,0337,0337,0342,0336,0336,0333,0337,0337,0342,0332,0332,0342,0336,0336,0332,0337,0337,0342,0336,0336,0336,0333,0332,0332,0337,0337,0337,0342,0335,0336,0336,0333,0337,0163,0164,0141,0336,0147,0330,0333,0145,040,063,0365,0330,0330,0330,0330,0330,0330,0330,0163,0164,0141,0147,0145,040,062,0365,0330,0330,0330,0330,0330,0330,0330,0330,0163,0164,0141,0147,0145,040,061,0365,",
  "x0": 300,
  "y0": 355,
  "unit": 66.11570247933884,
  "width": 600,
  "height": 600,
  "style": {
    "color0": "black",
    "fill0": "black",
    "line0": 1,
    "color1": "black",
    "fill1": "black",
    "line1": 5,
    "color2": "red",
    "fill2": "red",
    "line2": 5,
    "color3": "#FF7900",
    "fill3": "#FF7900",
    "line3": 5,
    "color4": "yellow",
    "fill4": "yellow",
    "line4": 5,
    "color5": "green",
    "fill5": "green",
    "line5": 5,
    "color6": "blue",
    "fill6": "blue",
    "line6": 5,
    "color7": "purple",
    "fill7": "purple",
    "line7": 5
  },
  "shapes": [
    "0220:0340,0336,0336,0336,0332,0337,0337,0337,0362,0203,0203,0335,0336,0336,0203,0335,0337,0337,0203,0203,0203,0203,0335,0336,0336,0203,0335,0337,0337,0203,0203,0363,0330,0330,0336,0336,0336,0333,0337,0337,0334,0306,0362,0203,0335,0335,0203,0203,0335,0335,0203,0203,0335,0335,0203,0363,0304,0332,0332,0332,0332,0332,0332,0332,0332,0362,0203,0306,0334,0334,0203,0203,0334,0334,0203,0203,0334,0334,0203,0363,0304,0335,0330,0330,0330,0330,0337,",
    "0221:0322,0342,0336,0336,0336,0336,0333,0337,0337,0337,0337,0323,0342,0336,0336,0336,0336,0333,0337,0337,0337,0337,0324,0342,0336,0336,0336,0336,0325,0333,0337,0337,0337,0337,0342,0326,0336,0336,0336,0336,0333,0337,0337,0337,0337,0342,0327,0336,0336,0336,0336,0333,0337,0337,0337,0337,0342,0336,0332,0336,0336,0333,0336,0333,0337,0337,0337,0337,",
    "0223:0336,0331,0337,0332,0362,0203,0335,0203,0203,0335,0203,0335,0203,0203,0354,0335,0333,0336,0330,0337,",
    "01220:0333,0200,0336,0330,0332,0336,0336,0220,0337,0337,0331,0333,0337,",
    "01221:0333,0200,0336,0330,0332,0336,0332,060,062,062,061,0365,0333,0333,0331,0331,0333,0337,0337,",
    "01222:0333,0200,0336,0330,0332,0336,0332,060,062,062,062,0365,0333,0333,0331,0331,0333,0337,0337,",
    "01223:0333,0200,0336,0330,0332,0336,0223,0337,0331,0333,0337,",
    "01224:0333,0200,0336,0330,0332,0336,0332,060,062,062,064,0365,0333,0333,0331,0331,0333,0337,0337,",
    "01225:0333,0200,0336,0330,0332,0336,0332,060,062,062,065,0365,0333,0333,0331,0331,0333,0337,0337,",
    "01226:0333,0200,0336,0330,0332,0336,0332,060,062,062,066,0365,0333,0333,0331,0331,0333,0337,0337,",
    "01227:0333,0200,0336,0330,0332,0336,0332,060,062,062,067,0365,0333,0333,0331,0331,0333,0337,0337,",
    "01230:0333,0200,0336,0330,0332,0336,0332,060,062,063,060,0365,0333,0333,0331,0331,0333,0337,0337,",
    "01231:0333,0200,0336,0330,0332,0336,0332,060,062,063,061,0365,0333,0333,0331,0331,0333,0337,0337,",
    "01232:0333,0200,0336,0330,0332,0336,0332,060,062,062,062,0365,0333,0333,0331,0331,0333,0337,0337,",
    "01233:0333,0200,0336,0330,0332,0336,0332,060,062,062,063,0365,0333,0333,0331,0331,0333,0337,0337,",
    "01234:0333,0200,0336,0330,0332,0336,0332,060,062,062,064,0365,0333,0333,0331,0331,0333,0337,0337,",
    "01235:0333,0200,0336,0330,0332,0336,0332,060,062,062,065,0365,0333,0333,0331,0331,0333,0337,0337,",
    "01236:0333,0200,0336,0330,0332,0336,0332,060,062,062,066,0365,0333,0333,0331,0331,0333,0337,0337,",
    "01237:0333,0200,0336,0330,0332,0336,0332,060,062,062,067,0365,0333,0333,0331,0331,0333,0337,0337,"
  ]
}</json>-->	<path d = "M234 388 L234 322 L300 322 L366 322 L366 388 L300 388 L234 388 Z" stroke = "#000000" stroke-width = "5" fill = "none" />	<path d = "M234 256 L234 190 L300 190 L366 190 L366 256 L300 256 L234 256 Z" stroke = "#000000" stroke-width = "5" fill = "none" />	<path d = "M234 520 L234 454 L300 454 L366 454 L366 520 L300 520 L234 520 Z" stroke = "#000000" stroke-width = "5" fill = "none" />	<path d = "M168 421 L168 289 L36 289 L36 421 L168 421 Z" stroke = "#000000" stroke-width = "5" fill = "none" />	<path d = "M168 553 L168 487 L102 487 L36 487 L36 553 L102 553 L168 553 Z" stroke = "#000000" stroke-width = "5" fill = "none" />    <line x1="85" y1="487" x2="85" y2="421" style="stroke:#ff0000;stroke-width:5" />
    <line x1="89" y1="487" x2="89" y2="421" style="stroke:#ff7900;stroke-width:5" />
    <line x1="93" y1="487" x2="93" y2="421" style="stroke:#ffff00;stroke-width:5" />
    <line x1="98" y1="487" x2="98" y2="421" style="stroke:#008000;stroke-width:5" />
    <line x1="102" y1="487" x2="102" y2="421" style="stroke:#0000ff;stroke-width:5" />
    <line x1="106" y1="487" x2="106" y2="421" style="stroke:#800080;stroke-width:5" />
    <text x="52" y = "520" fill = "#000000" font-size = "16.52892561983471px" font-family = "Arial">controller</text>
    <text x="69" y = "355" fill = "#000000" font-size = "16.52892561983471px" font-family = "Arial">arduino</text>
    <line x1="102" y1="289" x2="102" y2="223" style="stroke:#000000;stroke-width:5" />
	<path d = "M36 223 L36 157 L102 157 L168 157 L168 223 L102 223 L36 223 Z" stroke = "#000000" stroke-width = "5" fill = "none" />  <path d="M78.27746177895632 133.27746177895807           A33.05785123966942 33.05785123966942 0 0 1 125.02832334500908 133.27746177895798" fill = "none" stroke = "#000000" stroke-width = "5" />
  <path d="M83.7956524470917 138.79565244709343           A25.253951157031743 25.253951157031743 0 0 1 119.51013267687372 138.79565244709335" fill = "none" stroke = "#000000" stroke-width = "5" />
  <path d="M89.7295942149448 144.7295942149465           A16.86209023060173 16.86209023060173 0 0 1 113.57619090902065 144.72959421494645" fill = "none" stroke = "#000000" stroke-width = "5" />
	<path d = "M36 107 L36 41 L102 41 L168 41 L168 107 L102 107 L36 107 Z" stroke = "#000000" stroke-width = "5" fill = "none" />    <text x="52" y = "74" fill = "#000000" font-size = "16.528925619834713px" font-family = "Arial">geometron</text>
    <text x="52" y = "99" fill = "#000000" font-size = "16.528925619834713px" font-family = "Arial">server</text>
    <text x="52" y = "198" fill = "#000000" font-size = "16.528925619834713px" font-family = "Arial">computer</text>
    <text x="118" y = "264" fill = "#000000" font-size = "16.528925619834713px" font-family = "Arial">usb</text>
	<path d = "M168 314 L201 281 L201 248 L201 231 L234 231 " stroke = "#000000" stroke-width = "5" fill = "none" />    <line x1="168" y1="355" x2="234" y2="355" style="stroke:#000000;stroke-width:5" />
	<path d = "M168 388 L201 421 L201 454 L201 487 L234 487 " stroke = "#000000" stroke-width = "5" fill = "none" />    <text x="267" y = "479" fill = "#000000" font-size = "16.528925619834713px" font-family = "Arial">motor</text>
    <text x="267" y = "504" fill = "#000000" font-size = "16.528925619834713px" font-family = "Arial">controller</text>
    <text x="267" y = "372" fill = "#000000" font-size = "16.528925619834713px" font-family = "Arial">controller</text>
    <text x="267" y = "347" fill = "#000000" font-size = "16.528925619834713px" font-family = "Arial">motor</text>
    <text x="267" y = "248" fill = "#000000" font-size = "16.528925619834713px" font-family = "Arial">controller</text>
    <text x="267" y = "223" fill = "#000000" font-size = "16.528925619834713px" font-family = "Arial">motor</text>
	<path d = "M432 256 L432 190 L498 190 L564 190 L564 256 L498 256 L432 256 Z" stroke = "#000000" stroke-width = "5" fill = "none" />	<path d = "M432 388 L432 322 L498 322 L564 322 L564 388 L498 388 L432 388 Z" stroke = "#000000" stroke-width = "5" fill = "none" />	<path d = "M432 520 L432 454 L498 454 L564 454 L564 520 L498 520 L432 520 Z" stroke = "#000000" stroke-width = "5" fill = "none" />    <line x1="432" y1="487" x2="366" y2="487" style="stroke:#000000;stroke-width:5" />
    <line x1="432" y1="355" x2="366" y2="355" style="stroke:#000000;stroke-width:5" />
    <line x1="432" y1="223" x2="366" y2="223" style="stroke:#000000;stroke-width:5" />
    <line x1="432" y1="231" x2="366" y2="231" style="stroke:#000000;stroke-width:5" />
    <line x1="432" y1="215" x2="366" y2="215" style="stroke:#000000;stroke-width:5" />
    <line x1="432" y1="239" x2="366" y2="239" style="stroke:#000000;stroke-width:5" />
    <line x1="432" y1="372" x2="366" y2="372" style="stroke:#000000;stroke-width:5" />
    <line x1="432" y1="363" x2="366" y2="363" style="stroke:#000000;stroke-width:5" />
    <line x1="432" y1="347" x2="366" y2="347" style="stroke:#000000;stroke-width:5" />
    <line x1="432" y1="479" x2="366" y2="479" style="stroke:#000000;stroke-width:5" />
    <line x1="432" y1="495" x2="366" y2="495" style="stroke:#000000;stroke-width:5" />
    <line x1="432" y1="504" x2="366" y2="504" style="stroke:#000000;stroke-width:5" />
    <text x="465" y = "487" fill = "#000000" font-size = "16.528925619834713px" font-family = "Arial">stage 3</text>
    <text x="465" y = "372" fill = "#000000" font-size = "16.528925619834713px" font-family = "Arial">stage 2</text>
    <text x="465" y = "239" fill = "#000000" font-size = "16.528925619834713px" font-family = "Arial">stage 1</text>
</svg>