<svg width="600" height="600" viewbox = "0 0 600 600"  xmlns="http://www.w3.org/2000/svg">
<!--<json>{
  "glyph": "0332,0331,0335,0306,0350,0334,0362,0203,0335,0203,0335,0335,0335,0335,0335,0203,0335,0203,0354,0334,0334,0334,0336,0304,0362,0203,0334,0203,0203,0306,0350,0334,0337,0203,0334,0334,0336,0203,0364,0331,0335,0335,0331,0331,0334,0334,0342,0300,0330,0335,0335,0335,0336,0334,0337,0336,0336,0333,0337,0201,0201,0334,0336,0330,0334,0201,0201,0201,0201,0334,0201,0334,0330,0330,0330,0330,0334,0305,0311,0335,0337,0201,0334,0334,0201,0300,0336,0330,0333,0336,0332,0336,0333,0337,0326,0220,0300,0336,0330,0332,0332,0335,0336,0322,0220,0300,0331,0336,0333,0333,0336,0331,0337,0306,0350,0335,0335,0304,0336,0325,0220,0300,0336,0331,0336,0331,0332,0336,0331,0332,0332,0336,0331,0332,0337,0222,0222,0222,0222,0222,0300,0362,0203,0336,0336,0334,0203,0334,0337,0337,0203,0364,0335,0335,",
  "x0": 300,
  "y0": 227.39999999999998,
  "unit": 171.48710480000008,
  "width": 600,
  "height": 600,
  "style": {
    "color0": "black",
    "fill0": "black",
    "line0": 1,
    "color1": "black",
    "fill1": "black",
    "line1": 5,
    "color2": "red",
    "fill2": "red",
    "line2": 1,
    "color3": "#FF7900",
    "fill3": "#FF7900",
    "line3": 1,
    "color4": "yellow",
    "fill4": "yellow",
    "line4": 1,
    "color5": "green",
    "fill5": "green",
    "line5": 1,
    "color6": "blue",
    "fill6": "blue",
    "line6": 1,
    "color7": "purple",
    "fill7": "purple",
    "line7": 1
  },
  "shapes": [
    "0220:0340,0336,0336,0336,0332,0337,0337,0337,0362,0203,0203,0335,0336,0336,0203,0335,0337,0337,0203,0203,0203,0203,0335,0336,0336,0203,0335,0337,0337,0203,0203,0363,0330,0330,0336,0336,0336,0333,0337,0337,0334,0306,0362,0203,0335,0335,0203,0203,0335,0335,0203,0203,0335,0335,0203,0363,0304,0332,0332,0332,0332,0332,0332,0332,0332,0362,0203,0306,0334,0334,0203,0203,0334,0334,0203,0203,0334,0334,0203,0363,0304,0335,0330,0330,0330,0330,0337,",
    "0221:0336,0336,0332,0336,0366,0333,0333,0333,0333,0367,0335,0335,0366,0333,0333,0333,0333,0367,0335,0335,0333,0333,0337,0337,0337,",
    "0222:0221,0335,0306,0350,0334,0330,0335,0304,0334,",
    "01220:0333,0200,0336,0330,0332,0336,0336,0220,0337,0337,0331,0333,0337,",
    "01221:0333,0200,0336,0330,0332,0336,0332,060,062,062,061,0365,0333,0333,0331,0331,0333,0337,0337,",
    "01222:0333,0200,0336,0330,0332,0336,0332,060,062,062,062,0365,0333,0333,0331,0331,0333,0337,0337,",
    "01223:0333,0200,0336,0330,0332,0336,0332,060,062,062,063,0365,0333,0333,0331,0331,0333,0337,0337,",
    "01224:0333,0200,0336,0330,0332,0336,0332,060,062,062,064,0365,0333,0333,0331,0331,0333,0337,0337,",
    "01225:0333,0200,0336,0330,0332,0336,0332,060,062,062,065,0365,0333,0333,0331,0331,0333,0337,0337,",
    "01226:0333,0200,0336,0330,0332,0336,0332,060,062,062,066,0365,0333,0333,0331,0331,0333,0337,0337,",
    "01227:0333,0200,0336,0330,0332,0336,0332,060,062,062,067,0365,0333,0333,0331,0331,0333,0337,0337,",
    "01230:0333,0200,0336,0330,0332,0336,0332,060,062,063,060,0365,0333,0333,0331,0331,0333,0337,0337,",
    "01231:0333,0200,0336,0330,0332,0336,0332,060,062,063,061,0365,0333,0333,0331,0331,0333,0337,0337,",
    "01232:0333,0200,0336,0330,0332,0336,0332,060,062,062,062,0365,0333,0333,0331,0331,0333,0337,0337,",
    "01233:0333,0200,0336,0330,0332,0336,0332,060,062,062,063,0365,0333,0333,0331,0331,0333,0337,0337,",
    "01234:0333,0200,0336,0330,0332,0336,0332,060,062,062,064,0365,0333,0333,0331,0331,0333,0337,0337,",
    "01235:0333,0200,0336,0330,0332,0336,0332,060,062,062,065,0365,0333,0333,0331,0331,0333,0337,0337,",
    "01236:0333,0200,0336,0330,0332,0336,0332,060,062,062,066,0365,0333,0333,0331,0331,0333,0337,0337,",
    "01237:0333,0200,0336,0330,0332,0336,0332,060,062,062,067,0365,0333,0333,0331,0331,0333,0337,0337,"
  ]
}</json>-->	<path d = "M129 399 L277 313 L449 313 L300 399 L129 399 Z" stroke = "#000000" stroke-width = "1" fill = "none" />	<path d = "M129 399 L129 485 L214 485 L300 485 L449 399 L449 313 " stroke = "#000000" stroke-width = "1" fill = "none" />    <line x1="300" y1="485" x2="300" y2="399" style="stroke:#000000;stroke-width:1" />
    <line x1="257" y1="56" x2="257" y2="142" style="stroke:#000000;stroke-width:1" />
    <line x1="257" y1="142" x2="257" y2="227" style="stroke:#000000;stroke-width:1" />
    <line x1="300" y1="227" x2="300" y2="185" style="stroke:#000000;stroke-width:1" />
    <line x1="300" y1="185" x2="300" y2="142" style="stroke:#000000;stroke-width:1" />
    <line x1="300" y1="142" x2="300" y2="99" style="stroke:#000000;stroke-width:1" />
    <line x1="300" y1="99" x2="300" y2="56" style="stroke:#000000;stroke-width:1" />
    <line x1="300" y1="56" x2="257" y2="56" style="stroke:#000000;stroke-width:1" />
    <line x1="257" y1="227" x2="279" y2="293" style="stroke:#000000;stroke-width:1" />
    <line x1="279" y1="293" x2="300" y2="227" style="stroke:#000000;stroke-width:1" />
<circle cx="364" cy = "142" r = "1" stroke = "#0000ff" stroke-width = "1" fill = "#0000ff" />
	<path d = "M359 142 L359 99 L359 56 L370 56 L370 99 L370 142 L370 185 L370 227 L359 227 L359 185 L359 142 Z" stroke = "#0000ff" stroke-width = "1" fill = "#0000ff" />	<path d = "M364 56 L343 56 L354 37 L364 19 L375 37 L386 56 L364 56 Z" stroke = "#0000ff" stroke-width = "1" fill = "#0000ff" />	<path d = "M364 227 L343 227 L354 246 L364 265 L375 246 L386 227 L364 227 Z" stroke = "#0000ff" stroke-width = "1" fill = "#0000ff" /><circle cx="129" cy = "142" r = "1" stroke = "#ff0000" stroke-width = "1" fill = "#ff0000" />
	<path d = "M129 136 L171 136 L214 136 L214 147 L171 147 L129 147 L86 147 L43 147 L43 136 L86 136 L129 136 Z" stroke = "#ff0000" stroke-width = "1" fill = "#ff0000" />	<path d = "M214 142 L214 120 L233 131 L251 142 L233 152 L214 163 L214 142 Z" stroke = "#ff0000" stroke-width = "1" fill = "#ff0000" />	<path d = "M43 142 L43 120 L24 131 L6 142 L24 152 L43 163 L43 142 Z" stroke = "#ff0000" stroke-width = "1" fill = "#ff0000" /><circle cx="471" cy = "442" r = "1" stroke = "#008000" stroke-width = "1" fill = "#008000" />
	<path d = "M469 437 L506 416 L543 394 L548 404 L511 425 L474 446 L437 468 L400 489 L395 480 L432 459 L469 437 Z" stroke = "#008000" stroke-width = "1" fill = "#008000" />	<path d = "M546 399 L535 380 L556 380 L578 380 L567 399 L556 417 L546 399 Z" stroke = "#008000" stroke-width = "1" fill = "#008000" />	<path d = "M397 485 L387 466 L376 485 L365 503 L387 503 L408 503 L397 485 Z" stroke = "#008000" stroke-width = "1" fill = "#008000" /><path    d = "M198,388 C198,385 209,385 209,388" fill = "none" stroke-width = "1" stroke = "#000000" /><path    d = "M209,388 C209,391 198,391 198,388" fill = "none" stroke-width = "1" stroke = "#000000" /><path    d = "M217,377 C217,375 227,375 227,377" fill = "none" stroke-width = "1" stroke = "#000000" /><path    d = "M227,377 C227,380 217,380 217,377" fill = "none" stroke-width = "1" stroke = "#000000" /><path    d = "M235,367 C235,364 246,364 246,367" fill = "none" stroke-width = "1" stroke = "#000000" /><path    d = "M246,367 C246,369 235,369 235,367" fill = "none" stroke-width = "1" stroke = "#000000" /><path    d = "M254,356 C254,353 265,353 265,356" fill = "none" stroke-width = "1" stroke = "#000000" /><path    d = "M265,356 C265,359 254,359 254,356" fill = "none" stroke-width = "1" stroke = "#000000" /><path    d = "M272,345 C272,343 283,343 283,345" fill = "none" stroke-width = "1" stroke = "#000000" /><path    d = "M283,345 C283,348 272,348 272,345" fill = "none" stroke-width = "1" stroke = "#000000" />	<path d = "M300 227 L300 56 L257 56 L257 227 " stroke = "#000000" stroke-width = "1" fill = "none" /></svg>