<svg width="450" height="750" viewbox = "0 0 450 750"  xmlns="http://www.w3.org/2000/svg">
<!--<json>{
  "glyph": "0321,0306,0334,0221,0335,0221,0335,0221,0335,0221,0335,0221,0335,0221,0331,0334,0331,0350,0335,0222,0335,0350,0335,0330,0334,0334,0330,0334,0334,0334,0222,0350,0334,0223,0335,0330,0334,0334,0223,0334,0330,0335,0330,0335,0335,0223,0335,0330,0334,0334,0350,0334,0222,0335,0350,0335,0330,0334,0334,0334,0222,0350,0335,0335,0335,0221,0334,0221,0334,0221,0334,0221,0335,0331,0335,0335,0221,0221,0335,0335,0335,0220,0330,0332,0335,0350,0335,0222,0350,0334,0221,0335,0221,0220,0335,0335,0330,0220,0335,0330,0220,0335,0333,0220,0332,0220,0330,0220,0333,0220,0334,0331,0220,0335,0331,0220,",
  "x0": 225,
  "y0": 419.289025,
  "unit": 128.84080000000003,
  "width": 450,
  "height": 750,
  "style": {
    "color0": "black",
    "fill0": "black",
    "line0": 1,
    "color1": "black",
    "fill1": "white",
    "line1": 4,
    "color2": "red",
    "fill2": "red",
    "line2": 1,
    "color3": "#FF7900",
    "fill3": "#FF7900",
    "line3": 1,
    "color4": "yellow",
    "fill4": "yellow",
    "line4": 1,
    "color5": "green",
    "fill5": "green",
    "line5": 1,
    "color6": "blue",
    "fill6": "blue",
    "line6": 1,
    "color7": "purple",
    "fill7": "purple",
    "line7": 1
  },
  "shapes": [
    "0220:0336,0336,0347,0337,0337,",
    "01220:0333,0200,0336,0330,0332,0220,0331,0333,0337,",
    "0221:0304,0336,0336,0336,0336,0332,0337,0337,0337,0337,0362,0203,0335,0336,0336,0336,0203,0335,0337,0337,0337,0203,0335,0336,0336,0336,0203,0363,0335,0336,0333,0337,0337,0337,0337,0330,0306,",
    "01221:0333,0200,0336,0332,0336,0337,0306,0334,0201,0335,0201,0335,0201,0335,0201,0335,0201,0335,0201,0335,0330,0335,0221,0331,0334,0331,0335,0304,0333,0337,",
    "0222:0304,0336,0336,0336,0336,0332,0337,0337,0337,0337,0312,0337,0362,0203,0335,0336,0313,0336,0336,0336,0203,0335,0337,0337,0337,0312,0337,0203,0335,0336,0313,0336,0336,0336,0203,0363,0335,0336,0333,0337,0337,0337,0337,0306,",
    "01222:0333,0200,0336,0332,0306,0334,0201,0335,0201,0335,0201,0335,0201,0335,0201,0335,0201,0331,0350,0335,0222,0350,0332,0335,0335,0335,0304,0333,0337,",
    "0223:0304,0336,0336,0336,0336,0332,0337,0337,0337,0337,0362,0203,0203,0335,0336,0336,0336,0203,0335,0337,0337,0337,0203,0203,0335,0336,0336,0336,0203,0363,0335,0336,0333,0337,0337,0337,0337,0306,",
    "01223:0333,0200,0336,0332,0306,0334,0201,0335,0201,0335,0201,0335,0201,0335,0201,0335,0201,0335,0335,0223,0304,0333,0337,",
    "0224:0336,0336,0336,0201,0330,0330,0337,0341,0330,0341,0330,0336,0201,0337,0337,0337,",
    "01224:",
    "0225:0336,0336,0201,0330,0337,0334,0336,0336,0336,0336,0331,0337,0362,0203,0335,0337,0337,0337,0305,0352,0334,0203,0335,0304,0335,0336,0336,0336,0203,0363,0331,0334,0337,0337,0337,0305,0352,0334,0331,0335,0304,0336,0336,0336,0362,0335,0203,0334,0337,0337,0337,0305,0352,0335,0203,0334,0304,0334,0336,0336,0336,0203,0363,0335,0333,0337,0337,0337,0305,0352,0335,0331,0334,0304,0336,0336,0336,0336,0332,0337,0337,0337,0337,0336,0330,0337,0341,0331,0337,0336,0336,0331,0337,0337,",
    "01225:0333,0200,0336,0330,0332,0336,0331,0337,0225,0333,0336,0331,0337,0337,",
    "0226:0336,0330,0337,0336,0341,0332,0336,0350,0335,0342,0335,0335,0342,0335,0335,0342,0335,0335,0342,0335,0304,0337,0337,0333,0336,0336,0350,0335,0342,0335,0335,0342,0335,0335,0342,0335,0335,0342,0335,0304,0337,0332,0330,0337,",
    "01226:0333,0200,0336,0332,0336,0330,0337,0226,0331,0333,0336,0331,0337,0337,",
    "0227:0335,0312,0336,0306,0201,0334,0334,0313,0337,0201,0334,0334,0201,0334,0334,0336,0201,0304,0334,0312,0337,0313,0330,",
    "01227:0333,0200,0336,0332,0336,0330,0337,0227,0331,0336,0331,0337,0333,0337,",
    "0230:0336,0336,0201,0334,0201,0335,0201,0335,0201,0201,0335,0201,0335,0201,0335,0330,0334,0330,0335,0201,0335,0201,0201,0335,0201,0335,0335,0330,0332,0201,0337,0337,",
    "01230:0333,0200,0336,0332,0337,0230,0336,0333,0337,0331,",
    "0231:0336,0336,0336,0336,0347,0337,0337,0337,0337,",
    "01231:0333,0200,0336,0332,0337,0342,0336,0330,0335,0342,0335,0342,0335,0342,0335,0337,0231,0336,0333,0331,0337,",
    "0232:0336,0201,0336,0336,0330,0341,0331,0337,0337,0331,0337,",
    "01232:0333,0200,0336,0330,0332,0336,0331,0337,0232,0333,0336,0331,0337,0337,",
    "0233:0342,0336,0330,0336,0336,0331,0334,0306,0362,0203,0335,0335,0203,0203,0335,0335,0203,0203,0335,0335,0203,0363,0330,0335,0335,0330,0330,0335,0331,0337,0342,0336,0330,0334,0337,0331,0336,0333,0335,0304,0334,0331,0331,0331,0337,0337,0337,0330,",
    "01233:0333,0200,0336,0330,0332,0336,0331,0337,0233,0331,0336,0333,0333,0331,0337,0337,",
    "0234:0201,0336,0331,0350,0335,0336,0331,0337,0342,0336,0330,0334,0334,0331,0337,0342,0336,0330,0335,0337,0331,0304,0337,0330,",
    "01234:0333,0200,0336,0330,0332,0336,0331,0333,0332,0337,0234,0333,0331,0336,0331,0337,0337,",
    "0235:0331,0221,0333,0335,0335,0221,0335,0335,0330,",
    "01235:0333,0200,0336,0330,0332,0336,0332,0330,0337,0235,0331,0336,0333,0331,0337,0337,",
    "0236:0201,0336,0336,0334,0306,0362,0336,0203,0335,0335,0203,0203,0335,0335,0203,0203,0335,0335,0203,0363,0304,0335,0337,0337,0337,0331,",
    "01236:0333,0200,0336,0330,0332,0336,0331,0337,0236,0336,0333,0331,0333,0337,0337,",
    "0237:0304,0336,0336,0336,0332,0337,0337,0337,0342,0336,0336,0333,0337,0337,0342,0330,0336,0336,0336,0332,0337,0337,0337,0220,0306,",
    "01237:0333,0200,0336,0330,0332,0336,0220,0237,0304,0333,0333,0330,0337,0337,0331,"
  ]
}</json>-->	<path d = "M221 426 L109 362 L117 348 L229 412 L221 426 Z" stroke = "#000000" stroke-width = "4" fill = "#ffffff" />	<path d = "M105 355 L105 226 L121 226 L121 355 L105 355 Z" stroke = "#000000" stroke-width = "4" fill = "#ffffff" />	<path d = "M109 219 L221 155 L229 169 L117 233 L109 219 Z" stroke = "#000000" stroke-width = "4" fill = "#ffffff" />	<path d = "M229 155 L341 219 L333 233 L221 169 L229 155 Z" stroke = "#000000" stroke-width = "4" fill = "#ffffff" />	<path d = "M345 226 L345 355 L329 355 L329 226 L345 226 Z" stroke = "#000000" stroke-width = "4" fill = "#ffffff" />	<path d = "M341 362 L229 426 L221 412 L333 348 L341 362 Z" stroke = "#000000" stroke-width = "4" fill = "#ffffff" />	<path d = "M344 230 L232 423 L218 415 L330 222 L344 230 Z" stroke = "#000000" stroke-width = "4" fill = "#ffffff" />	<path d = "M120 222 L232 415 L218 423 L106 230 L120 222 Z" stroke = "#000000" stroke-width = "4" fill = "#ffffff" />	<path d = "M117 219 L229 283 L341 348 L333 362 L221 297 L109 233 L117 219 Z" stroke = "#000000" stroke-width = "4" fill = "#ffffff" />	<path d = "M109 348 L221 283 L333 219 L341 233 L229 297 L117 362 L109 348 Z" stroke = "#000000" stroke-width = "4" fill = "#ffffff" />	<path d = "M233 162 L233 290 L233 419 L217 419 L217 290 L217 162 L233 162 Z" stroke = "#000000" stroke-width = "4" fill = "#ffffff" />	<path d = "M113 218 L337 218 L337 234 L113 234 L113 218 Z" stroke = "#000000" stroke-width = "4" fill = "#ffffff" />	<path d = "M113 347 L337 347 L337 363 L113 363 L113 347 Z" stroke = "#000000" stroke-width = "4" fill = "#ffffff" />	<path d = "M121 355 L121 484 L105 484 L105 355 L121 355 Z" stroke = "#000000" stroke-width = "4" fill = "#ffffff" />	<path d = "M117 477 L229 541 L221 555 L109 491 L117 477 Z" stroke = "#000000" stroke-width = "4" fill = "#ffffff" />	<path d = "M221 541 L333 477 L341 491 L229 555 L221 541 Z" stroke = "#000000" stroke-width = "4" fill = "#ffffff" />	<path d = "M329 484 L329 355 L345 355 L345 484 L329 484 Z" stroke = "#000000" stroke-width = "4" fill = "#ffffff" />	<path d = "M233 419 L233 548 L217 548 L217 419 L233 419 Z" stroke = "#000000" stroke-width = "4" fill = "#ffffff" />	<path d = "M233 548 L233 677 L217 677 L217 548 L233 548 Z" stroke = "#000000" stroke-width = "4" fill = "#ffffff" />    <circle cx="225" cy = "677" r = "32.21020000000001" stroke = "#000000" stroke-width = "4" fill = "#ffffff" />
	<path d = "M113 476 L337 476 L337 492 L113 492 L113 476 Z" stroke = "#000000" stroke-width = "4" fill = "#ffffff" />	<path d = "M109 477 L221 412 L229 426 L117 491 L109 477 Z" stroke = "#000000" stroke-width = "4" fill = "#ffffff" />	<path d = "M229 412 L341 477 L333 491 L221 426 L229 412 Z" stroke = "#000000" stroke-width = "4" fill = "#ffffff" />    <circle cx="337" cy = "484" r = "32.21020000000001" stroke = "#000000" stroke-width = "4" fill = "#ffffff" />
    <circle cx="225" cy = "548" r = "32.21020000000001" stroke = "#000000" stroke-width = "4" fill = "#ffffff" />
    <circle cx="113" cy = "484" r = "32.21020000000001" stroke = "#000000" stroke-width = "4" fill = "#ffffff" />
    <circle cx="225" cy = "419" r = "32.21020000000001" stroke = "#000000" stroke-width = "4" fill = "#ffffff" />
    <circle cx="113" cy = "355" r = "32.21020000000001" stroke = "#000000" stroke-width = "4" fill = "#ffffff" />
    <circle cx="113" cy = "226" r = "32.21020000000001" stroke = "#000000" stroke-width = "4" fill = "#ffffff" />
    <circle cx="225" cy = "162" r = "32.21020000000001" stroke = "#000000" stroke-width = "4" fill = "#ffffff" />
    <circle cx="337" cy = "226" r = "32.21020000000001" stroke = "#000000" stroke-width = "4" fill = "#ffffff" />
    <circle cx="337" cy = "355" r = "32.21020000000001" stroke = "#000000" stroke-width = "4" fill = "#ffffff" />
</svg>