<svg width="400" height="250" viewbox = "0 0 400 250"  xmlns="http://www.w3.org/2000/svg">
<!--<json>{
  "glyph": "0321,01220,0336,0336,0333,0337,0337,0336,0336,0336,0336,0330,0330,0330,0337,0337,0337,0337,072,0365,0333,0336,0336,0336,0336,0331,0331,0331,0337,0337,0337,0332,0337,0321,01336,01366,01330,01333,01333,0331,0332,0332,0332,0332,0332,0332,0332,0336,0331,0337,01336,01331,01337,01367,01335,01335,01366,0331,0332,0332,0332,0332,0332,0332,0332,0336,0331,0337,01331,01333,01333,01367,01335,01335,01337,",
  "x0": 40.27630349731109,
  "y0": 78.99999999999997,
  "unit": 50.00000000000001,
  "width": 400,
  "height": 250,
  "style": {
    "color0": "black",
    "fill0": "black",
    "line0": 1,
    "color1": "black",
    "fill1": "black",
    "line1": 3,
    "color2": "red",
    "fill2": "red",
    "line2": 1,
    "color3": "#FF7900",
    "fill3": "#FF7900",
    "line3": 1,
    "color4": "yellow",
    "fill4": "yellow",
    "line4": 1,
    "color5": "green",
    "fill5": "green",
    "line5": 1,
    "color6": "blue",
    "fill6": "blue",
    "line6": 1,
    "color7": "purple",
    "fill7": "purple",
    "line7": 1
  },
  "shapes": [
    "0220:0336,0366,0330,0333,0333,0336,0331,0337,0367,0335,0335,0366,0331,0333,0333,0367,0335,0335,0337,",
    "0221:0314,0336,0313,0220,0220,0220,0220,0314,0337,0313,",
    "0224:0332,0332,0223,",
    "0225:0336,0336,0201,0330,0337,0334,0336,0336,0336,0336,0331,0337,0362,0203,0335,0337,0337,0337,0305,0352,0334,0203,0335,0304,0335,0336,0336,0336,0203,0363,0331,0334,0337,0337,0337,0305,0352,0334,0331,0335,0304,0336,0336,0336,0362,0335,0203,0334,0337,0337,0337,0305,0352,0335,0203,0334,0304,0334,0336,0336,0336,0203,0363,0335,0333,0337,0337,0337,0305,0352,0335,0331,0334,0304,0336,0336,0336,0336,0332,0337,0337,0337,0337,0336,0330,0337,0341,0331,0337,0336,0336,0331,0337,0337,",
    "0226:0336,0330,0337,0336,0341,0332,0336,0350,0335,0342,0335,0335,0342,0335,0335,0342,0335,0335,0342,0335,0304,0337,0337,0333,0336,0336,0350,0335,0342,0335,0335,0342,0335,0335,0342,0335,0335,0342,0335,0304,0337,0332,0330,0337,",
    "0227:0335,0312,0336,0306,0201,0334,0334,0313,0337,0201,0334,0334,0201,0334,0334,0336,0201,0304,0334,0312,0337,0313,0330,",
    "0230:0336,0336,0201,0334,0201,0335,0201,0335,0201,0201,0335,0201,0335,0201,0335,0330,0334,0330,0335,0201,0335,0201,0201,0335,0201,0335,0335,0330,0332,0201,0337,0337,",
    "0231:0336,0336,0336,0336,0347,0337,0337,0337,0337,",
    "0232:0336,0201,0336,0336,0330,0341,0331,0337,0337,0331,0337,",
    "0233:0342,0336,0330,0336,0336,0331,0334,0306,0362,0203,0335,0335,0203,0203,0335,0335,0203,0203,0335,0335,0203,0363,0330,0335,0335,0330,0330,0335,0331,0337,0342,0336,0330,0334,0337,0331,0336,0333,0335,0304,0334,0331,0331,0331,0337,0337,0337,0330,",
    "0234:0201,0336,0331,0350,0335,0336,0331,0337,0342,0336,0330,0334,0334,0331,0337,0342,0336,0330,0335,0337,0331,0304,0337,0330,",
    "0235:0331,0221,0333,0335,0335,0221,0335,0335,0330,",
    "0236:0201,0336,0336,0334,0306,0362,0336,0203,0335,0335,0203,0203,0335,0335,0203,0203,0335,0335,0203,0363,0304,0335,0337,0337,0337,0331,",
    "0237:0330,0335,0336,0336,0366,0337,0337,0333,0334,0334,0336,0336,0331,0367,0366,0335,0332,0337,0337,0331,0336,0336,0335,0367,0334,0337,0337,0330,",
    "01220:0333,0200,0336,0330,0332,0336,0331,0332,0337,0220,0331,0333,0336,0333,0336,0331,0337,0337,0337,",
    "01221:0333,0200,0336,0332,0337,0336,0336,0336,0332,0337,0337,0337,0221,0331,0336,0333,0336,0336,0333,0337,0337,0337,",
    "01222:0333,0200,",
    "01223:0333,0200,",
    "01224:0333,0200,0336,0332,0337,0224,0336,0333,0337,0331,",
    "01225:0333,0200,0336,0330,0332,0336,0331,0337,0225,0333,0336,0331,0337,0337,",
    "01226:0333,0200,0336,0332,0336,0330,0337,0226,0331,0333,0336,0331,0337,0337,",
    "01227:0333,0200,0336,0332,0336,0330,0337,0227,0331,0336,0331,0337,0333,0337,",
    "01230:0333,0200,0336,0332,0337,0230,0336,0333,0337,0331,",
    "01231:0333,0200,0336,0332,0337,0342,0336,0330,0335,0342,0335,0342,0335,0342,0335,0337,0231,0336,0333,0331,0337,",
    "01232:0333,0200,0336,0330,0332,0336,0331,0337,0232,0333,0336,0331,0337,0337,",
    "01233:0333,0200,0336,0330,0332,0336,0331,0337,0233,0331,0336,0333,0333,0331,0337,0337,",
    "01234:0333,0200,0336,0330,0332,0336,0331,0333,0332,0337,0234,0333,0331,0336,0331,0337,0337,",
    "01235:0333,0200,0336,0330,0332,0336,0332,0330,0337,0235,0331,0336,0333,0331,0337,0337,",
    "01236:0333,0200,0336,0330,0332,0336,0331,0337,0236,0336,0333,0331,0333,0337,0337,",
    "01237:0333,0200,0336,0330,0332,0336,0237,"
  ]
}</json>-->	<path d = "M90 79 L90 29 L40 29 L40 79 L90 79 Z" stroke = "#000000" stroke-width = "3" fill = "none" /><path    d = "M53,66 C53,54 78,48 78,60" fill = "none" stroke-width = "3" stroke = "#000000" /><path    d = "M78,60 C78,73 53,60 53,48" fill = "none" stroke-width = "3" stroke = "#000000" />    <text x="103" y = "70" fill = "#000000" font-size = "50.00000000000001px" font-family = "Arial">:</text>
	<path d = "M178 79 L178 29 L128 29 L128 79 L178 79 Z" stroke = "#000000" stroke-width = "3" fill = "none" />    <line x1="165" y1="54" x2="140" y2="54" style="stroke:#000000;stroke-width:3" />
	<path d = "M228 79 L228 29 L178 29 L178 79 L228 79 Z" stroke = "#000000" stroke-width = "3" fill = "none" />    <line x1="190" y1="66" x2="215" y2="66" style="stroke:#000000;stroke-width:3" />
<circle cx="190" cy = "66" r = "3" stroke = "#000000" stroke-width = "3" fill = "#000000" />
<path    d = "M190,66 C215,66 190,41 215,41" fill = "none" stroke-width = "3" stroke = "#000000" />	<path d = "M278 79 L278 29 L228 29 L228 79 L278 79 Z" stroke = "#000000" stroke-width = "3" fill = "none" />	<path d = "M259 67 L247 67 L247 54 L240 54 L247 48 L253 41 L259 48 L265 54 L259 54 L259 66 Z" stroke = "#000000" stroke-width = "3" fill = "none" />	<path d = "M328 79 L328 29 L278 29 L278 79 L328 79 Z" stroke = "#000000" stroke-width = "3" fill = "none" />	<path d = "M290 60 L290 48 L303 48 L303 42 L309 48 L315 54 L309 60 L303 67 L303 60 L290 60 Z" stroke = "#000000" stroke-width = "3" fill = "none" />	<path d = "M378 79 L378 29 L328 29 L328 79 L378 79 Z" stroke = "#000000" stroke-width = "3" fill = "none" />	<path d = "M340 60 L340 48 L353 48 L353 42 L359 48 L365 54 L359 60 L353 67 L353 60 L340 60 Z" stroke = "#000000" stroke-width = "3" fill = "none" />	<path d = "M78 154 L78 104 L28 104 L28 154 L78 154 Z" stroke = "#000000" stroke-width = "3" fill = "none" />    <line x1="65" y1="129" x2="40" y2="129" style="stroke:#000000;stroke-width:3" />
	<path d = "M128 154 L128 104 L78 104 L78 154 L128 154 Z" stroke = "#000000" stroke-width = "3" fill = "none" />	<path d = "M97 116 L109 116 L109 129 L115 129 L109 135 L103 141 L97 135 L90 129 L97 129 L97 116 Z" stroke = "#000000" stroke-width = "3" fill = "none" />	<path d = "M178 154 L178 104 L128 104 L128 154 L178 154 Z" stroke = "#000000" stroke-width = "3" fill = "none" />    <line x1="153" y1="129" x2="153" y2="116" style="stroke:#000000;stroke-width:3" />
    <line x1="153" y1="129" x2="140" y2="129" style="stroke:#000000;stroke-width:3" />
    <line x1="153" y1="129" x2="153" y2="141" style="stroke:#000000;stroke-width:3" />
    <line x1="153" y1="129" x2="165" y2="129" style="stroke:#000000;stroke-width:3" />
	<path d = "M228 154 L228 104 L178 104 L178 154 L228 154 Z" stroke = "#000000" stroke-width = "3" fill = "none" /><path    d = "M190,141 C215,141 190,116 215,116" fill = "none" stroke-width = "3" stroke = "#000000" /><circle cx="215" cy = "116" r = "3" stroke = "#000000" stroke-width = "3" fill = "#000000" />
    <line x1="215" y1="116" x2="190" y2="116" style="stroke:#000000;stroke-width:3" />
	<path d = "M278 154 L278 104 L228 104 L228 154 L278 154 Z" stroke = "#000000" stroke-width = "3" fill = "none" />  <path d="M261.61513826214286 137.83883476483192           A12.50000000000001 12.50000000000001 0 0 1 243.93746873247912 137.83883476483183" fill = "none" stroke = "#000000" stroke-width = "3" />
  <path d="M243.93746873247912 137.83883476483183           A12.50000000000001 12.50000000000001 0 0 1 243.93746873247926 120.1611652351681" fill = "none" stroke = "#000000" stroke-width = "3" />
  <path d="M243.93746873247926 120.1611652351681           A12.50000000000001 12.50000000000001 0 0 1 261.615138262143 120.16116523516826" fill = "none" stroke = "#000000" stroke-width = "3" />
	<path d = "M250 125 L262 120 L257 109 " stroke = "#000000" stroke-width = "3" fill = "none" />	<path d = "M328 154 L328 104 L278 104 L278 154 L328 154 Z" stroke = "#000000" stroke-width = "3" fill = "none" />  <path d="M311.6151382621429 137.83883476483228           A12.50000000000001 12.50000000000001 0 0 1 293.9374687324792 137.83883476483214" fill = "none" stroke = "#000000" stroke-width = "3" />
  <path d="M293.9374687324792 137.83883476483214           A12.50000000000001 12.50000000000001 0 0 1 293.9374687324794 120.16116523516841" fill = "none" stroke = "#000000" stroke-width = "3" />
  <path d="M293.9374687324794 120.16116523516841           A12.50000000000001 12.50000000000001 0 0 1 311.6151382621431 120.16116523516862" fill = "none" stroke = "#000000" stroke-width = "3" />
	<path d = "M300 125 L312 120 L307 109 " stroke = "#000000" stroke-width = "3" fill = "none" />	<path d = "M378 154 L378 104 L328 104 L328 154 L378 154 Z" stroke = "#000000" stroke-width = "3" fill = "none" />    <line x1="340" y1="142" x2="365" y2="142" style="stroke:#000000;stroke-width:3" />
<circle cx="340" cy = "142" r = "3" stroke = "#000000" stroke-width = "3" fill = "#000000" />
<path    d = "M340,142 C365,142 340,117 365,117" fill = "none" stroke-width = "3" stroke = "#000000" />	<path d = "M78 229 L78 179 L28 179 L28 229 L78 229 Z" stroke = "#000000" stroke-width = "3" fill = "none" />	<path d = "M47 191 L59 191 L59 204 L65 204 L59 210 L53 216 L47 210 L40 204 L47 204 L47 191 Z" stroke = "#000000" stroke-width = "3" fill = "none" />	<path d = "M128 229 L128 179 L78 179 L78 229 L128 229 Z" stroke = "#000000" stroke-width = "3" fill = "none" />	<path d = "M90 210 L90 198 L103 198 L103 191 L109 198 L115 204 L109 210 L103 216 L103 210 L90 210 Z" stroke = "#000000" stroke-width = "3" fill = "none" />	<path d = "M178 229 L178 179 L128 179 L128 229 L178 229 Z" stroke = "#000000" stroke-width = "3" fill = "none" />	<path d = "M140 210 L140 198 L153 198 L153 191 L159 198 L165 204 L159 210 L153 216 L153 210 L140 210 Z" stroke = "#000000" stroke-width = "3" fill = "none" />	<path d = "M228 229 L228 179 L178 179 L178 229 L228 229 Z" stroke = "#000000" stroke-width = "3" fill = "none" /><path    d = "M190,216 C215,216 190,191 215,191" fill = "none" stroke-width = "3" stroke = "#000000" /><circle cx="215" cy = "191" r = "3" stroke = "#000000" stroke-width = "3" fill = "#000000" />
    <line x1="215" y1="191" x2="190" y2="191" style="stroke:#000000;stroke-width:3" />
	<path d = "M278 229 L278 179 L228 179 L228 229 L278 229 Z" stroke = "#000000" stroke-width = "3" fill = "none" />  <path d="M261.6151382621419 212.83883476483206           A12.50000000000001 12.50000000000001 0 0 1 243.93746873247818 212.8388347648319" fill = "none" stroke = "#000000" stroke-width = "3" />
  <path d="M243.93746873247818 212.8388347648319           A12.50000000000001 12.50000000000001 0 0 1 243.93746873247838 195.16116523516817" fill = "none" stroke = "#000000" stroke-width = "3" />
  <path d="M243.93746873247838 195.16116523516817           A12.50000000000001 12.50000000000001 0 0 1 261.61513826214207 195.16116523516837" fill = "none" stroke = "#000000" stroke-width = "3" />
	<path d = "M250 200 L262 195 L257 184 " stroke = "#000000" stroke-width = "3" fill = "none" />	<path d = "M328 229 L328 179 L278 179 L278 229 L328 229 Z" stroke = "#000000" stroke-width = "3" fill = "none" />  <path d="M311.6151382621419 212.83883476483277           A12.50000000000001 12.50000000000001 0 0 1 293.9374687324782 212.83883476483254" fill = "none" stroke = "#000000" stroke-width = "3" />
  <path d="M293.9374687324782 212.83883476483254           A12.50000000000001 12.50000000000001 0 0 1 293.9374687324784 195.16116523516882" fill = "none" stroke = "#000000" stroke-width = "3" />
  <path d="M293.9374687324784 195.16116523516882           A12.50000000000001 12.50000000000001 0 0 1 311.6151382621421 195.16116523516908" fill = "none" stroke = "#000000" stroke-width = "3" />
	<path d = "M300 200 L312 195 L307 184 " stroke = "#000000" stroke-width = "3" fill = "none" />	<path d = "M378 229 L378 179 L328 179 L328 229 L378 229 Z" stroke = "#000000" stroke-width = "3" fill = "none" />    <line x1="353" y1="204" x2="353" y2="192" style="stroke:#000000;stroke-width:3" />
    <line x1="353" y1="204" x2="340" y2="204" style="stroke:#000000;stroke-width:3" />
    <line x1="353" y1="204" x2="353" y2="217" style="stroke:#000000;stroke-width:3" />
    <line x1="353" y1="204" x2="365" y2="204" style="stroke:#000000;stroke-width:3" />
</svg>