<svg width="450" height="450" viewbox = "0 0 450 450"  xmlns="http://www.w3.org/2000/svg">
<!--<json>{
  "glyph": "0330,0330,0336,0331,0337,0321,0330,0332,0332,0335,0220,0231,0335,0222,0335,0335,0223,0330,0335,0220,0231,0335,0222,0335,0335,0223,0330,0335,0220,0335,0222,0335,0335,0223,0330,0231,0335,0201,0334,0331,0331,0331,0332,0332,0332,0332,0336,0332,0330,0320,01335,01220,01231,01335,01222,01335,01335,01223,01330,01335,0331,0332,0332,0332,0332,0332,0332,0332,0332,0332,0332,0336,0331,0332,0337,01220,01231,01335,01222,01335,01335,01223,01330,01335,01220,01335,0331,0332,0332,0332,0332,0332,0332,0332,0332,0332,0332,0332,0336,0331,0337,01222,01335,01335,01223,01330,01231,01335,01201,01334,01331,01331,0331,0332,0332,0332,0332,0332,0332,0332,0332,0332,0332,0332,0336,0331,0337,01331,01332,01332,01332,01332,01336,01332,01330,0336,0330,0333,0336,0341,0337,0333,0333,",
  "x0": 225,
  "y0": 225,
  "unit": 72.72727272727272,
  "width": 450,
  "height": 450,
  "style": {
    "color0": "black",
    "fill0": "black",
    "line0": 1,
    "color1": "black",
    "fill1": "black",
    "line1": 5,
    "color2": "red",
    "fill2": "red",
    "line2": 1,
    "color3": "#FF7900",
    "fill3": "#FF7900",
    "line3": 1,
    "color4": "yellow",
    "fill4": "yellow",
    "line4": 1,
    "color5": "green",
    "fill5": "green",
    "line5": 1,
    "color6": "blue",
    "fill6": "blue",
    "line6": 1,
    "color7": "purple",
    "fill7": "purple",
    "line7": 1
  },
  "shapes": [
    "0220:0336,0336,0336,0336,0336,0201,0337,0362,0203,0306,0334,0337,0203,0335,0335,0203,0203,0334,0334,0203,0203,0335,0335,0203,0203,0334,0334,0203,0203,0335,0335,0203,0203,0334,0334,0203,0335,0201,0336,0336,0203,0364,0304,0337,0337,0337,0337,0337,",
    "01220:0333,0200,0336,0332,0337,0220,0336,0333,0337,0331,",
    "0221:0336,0314,0336,0313,0337,0245,0245,0245,0245,0337,0314,0337,0313,0336,",
    "01221:0333,0200,0336,0332,0337,0336,0336,0336,0332,0337,0337,0337,0221,0331,0336,0333,0336,0336,0333,0337,0337,0337,",
    "0222:0336,0336,0362,0203,0336,0203,0334,0364,0337,0342,0335,0335,0342,0332,0342,0335,0335,0342,0335,0336,0362,0203,0337,0203,0335,0364,0335,0337,0337,0335,0335,",
    "01222:0333,0200,0336,0332,0337,0222,0336,0333,0337,0331,",
    "0223:0336,0331,0342,0337,0304,0336,0336,0335,0310,0362,0203,0335,0350,0335,0337,0203,0335,0335,0203,0335,0335,0335,0336,0203,0354,0304,0334,0313,0337,0337,0304,0336,0330,0337,",
    "01223:0333,0200,0336,0332,0337,0330,0223,0331,0336,0333,0337,",
    "0224:0336,0336,0336,0201,0330,0330,0337,0341,0330,0341,0330,0336,0201,0337,0337,0337,",
    "01224:0333,0200,0336,0332,0337,0224,0336,0333,0337,0331,",
    "0225:0336,0336,0201,0330,0337,0334,0336,0336,0336,0336,0331,0337,0362,0203,0335,0337,0337,0337,0305,0352,0334,0203,0335,0304,0335,0336,0336,0336,0203,0363,0331,0334,0337,0337,0337,0305,0352,0334,0331,0335,0304,0336,0336,0336,0362,0335,0203,0334,0337,0337,0337,0305,0352,0335,0203,0334,0304,0334,0336,0336,0336,0203,0363,0335,0333,0337,0337,0337,0305,0352,0335,0331,0334,0304,0336,0336,0336,0336,0332,0337,0337,0337,0337,0336,0330,0337,0341,0331,0337,0336,0336,0331,0337,0337,",
    "01225:0333,0200,0336,0330,0332,0336,0331,0337,0225,0333,0336,0331,0337,0337,",
    "0226:0336,0330,0337,0336,0341,0332,0336,0350,0335,0342,0335,0335,0342,0335,0335,0342,0335,0335,0342,0335,0304,0337,0337,0333,0336,0336,0350,0335,0342,0335,0335,0342,0335,0335,0342,0335,0335,0342,0335,0304,0337,0332,0330,0337,",
    "01226:0333,0200,0336,0332,0336,0330,0337,0226,0331,0333,0336,0331,0337,0337,",
    "0227:0335,0312,0336,0306,0201,0334,0334,0313,0337,0201,0334,0334,0201,0334,0334,0336,0201,0304,0334,0312,0337,0313,0330,",
    "01227:0333,0200,0336,0332,0336,0330,0337,0227,0331,0336,0331,0337,0333,0337,",
    "0230:0336,0336,0201,0334,0201,0335,0201,0335,0201,0201,0335,0201,0335,0201,0335,0330,0334,0330,0335,0201,0335,0201,0201,0335,0201,0335,0335,0330,0332,0201,0337,0337,",
    "01230:0333,0200,0336,0332,0337,0230,0336,0333,0337,0331,",
    "0231:0336,0336,0336,0336,0347,0337,0337,0337,0337,",
    "01231:0333,0200,0336,0332,0337,0342,0336,0330,0335,0342,0335,0342,0335,0342,0335,0337,0231,0336,0333,0331,0337,",
    "0232:0336,0201,0336,0336,0330,0341,0331,0337,0337,0331,0337,",
    "01232:0333,0200,0336,0330,0332,0336,0331,0337,0232,0333,0336,0331,0337,0337,",
    "0233:0342,0336,0330,0336,0336,0331,0334,0306,0362,0203,0335,0335,0203,0203,0335,0335,0203,0203,0335,0335,0203,0363,0330,0335,0335,0330,0330,0335,0331,0337,0342,0336,0330,0334,0337,0331,0336,0333,0335,0304,0334,0331,0331,0331,0337,0337,0337,0330,",
    "01233:0333,0200,0336,0330,0332,0336,0331,0337,0233,0331,0336,0333,0333,0331,0337,0337,",
    "0234:0201,0336,0331,0350,0335,0336,0331,0337,0342,0336,0330,0334,0334,0331,0337,0342,0336,0330,0335,0337,0331,0304,0337,0330,",
    "01234:0333,0200,0336,0330,0332,0336,0331,0333,0332,0337,0234,0333,0331,0336,0331,0337,0337,",
    "0235:0331,0221,0333,0335,0335,0221,0335,0335,0330,",
    "01235:0333,0200,0336,0330,0332,0336,0332,0330,0337,0235,0331,0336,0333,0331,0337,0337,",
    "0236:0201,0336,0336,0334,0306,0362,0336,0203,0335,0335,0203,0203,0335,0335,0203,0203,0335,0335,0203,0363,0304,0335,0337,0337,0337,0331,",
    "01236:0333,0200,0336,0330,0332,0336,0331,0337,0236,0336,0333,0331,0333,0337,0337,",
    "0237:0330,0335,0336,0336,0366,0337,0337,0333,0334,0334,0336,0336,0331,0367,0366,0335,0332,0337,0337,0331,0336,0336,0335,0367,0334,0337,0337,0330,",
    "01237:0333,0200,0336,0330,0332,0336,0237,"
  ]
}</json>-->    <line x1="80" y1="43" x2="82" y2="43" style="stroke:#000000;stroke-width:5" />
	<path d = "M82 43 L86 43 L91 35 L95 43 L100 51 L105 43 L109 35 L114 43 L118 51 L123 43 L127 35 L132 43 L136 51 L141 43 L150 43 L152 43 " stroke = "#000000" stroke-width = "5" fill = "none" />    <circle cx="152" cy = "43" r = "4.545454545454545" stroke = "#000000" stroke-width = "5" fill = "#000000" />
	<path d = "M152 43 L152 61 L152 70 " stroke = "#000000" stroke-width = "5" fill = "none" />    <line x1="152" y1="70" x2="170" y2="70" style="stroke:#000000;stroke-width:5" />
    <line x1="152" y1="70" x2="134" y2="70" style="stroke:#000000;stroke-width:5" />
    <line x1="152" y1="89" x2="134" y2="89" style="stroke:#000000;stroke-width:5" />
    <line x1="152" y1="89" x2="170" y2="89" style="stroke:#000000;stroke-width:5" />
	<path d = "M152 89 L152 98 L152 116 " stroke = "#000000" stroke-width = "5" fill = "none" />    <line x1="152" y1="152" x2="152" y2="116" style="stroke:#000000;stroke-width:5" />
	<path d = "M152 152 L170 152 L152 170 L134 152 L152 152 Z" stroke = "#000000" stroke-width = "5" fill = "none" />    <line x1="152" y1="43" x2="155" y2="43" style="stroke:#000000;stroke-width:5" />
	<path d = "M155 43 L159 43 L164 35 L168 43 L173 51 L177 43 L182 35 L186 43 L191 51 L195 43 L200 35 L205 43 L209 51 L214 43 L223 43 L225 43 " stroke = "#000000" stroke-width = "5" fill = "none" />    <circle cx="225" cy = "43" r = "4.545454545454545" stroke = "#000000" stroke-width = "5" fill = "#000000" />
	<path d = "M225 43 L225 61 L225 70 " stroke = "#000000" stroke-width = "5" fill = "none" />    <line x1="225" y1="70" x2="243" y2="70" style="stroke:#000000;stroke-width:5" />
    <line x1="225" y1="70" x2="207" y2="70" style="stroke:#000000;stroke-width:5" />
    <line x1="225" y1="89" x2="207" y2="89" style="stroke:#000000;stroke-width:5" />
    <line x1="225" y1="89" x2="243" y2="89" style="stroke:#000000;stroke-width:5" />
	<path d = "M225 89 L225 98 L225 116 " stroke = "#000000" stroke-width = "5" fill = "none" />    <line x1="225" y1="152" x2="225" y2="116" style="stroke:#000000;stroke-width:5" />
	<path d = "M225 152 L243 152 L225 170 L207 152 L225 152 Z" stroke = "#000000" stroke-width = "5" fill = "none" />    <line x1="225" y1="43" x2="227" y2="43" style="stroke:#000000;stroke-width:5" />
	<path d = "M227 43 L232 43 L236 35 L241 43 L245 51 L250 43 L255 35 L259 43 L264 51 L268 43 L273 35 L277 43 L282 51 L286 43 L295 43 L298 43 " stroke = "#000000" stroke-width = "5" fill = "none" />	<path d = "M298 43 L298 61 L298 70 " stroke = "#000000" stroke-width = "5" fill = "none" />    <line x1="298" y1="70" x2="316" y2="70" style="stroke:#000000;stroke-width:5" />
    <line x1="298" y1="70" x2="280" y2="70" style="stroke:#000000;stroke-width:5" />
    <line x1="298" y1="89" x2="280" y2="89" style="stroke:#000000;stroke-width:5" />
    <line x1="298" y1="89" x2="316" y2="89" style="stroke:#000000;stroke-width:5" />
	<path d = "M298 89 L298 98 L298 116 " stroke = "#000000" stroke-width = "5" fill = "none" />    <line x1="298" y1="152" x2="298" y2="116" style="stroke:#000000;stroke-width:5" />
	<path d = "M298 152 L316 152 L298 170 L280 152 L298 152 Z" stroke = "#000000" stroke-width = "5" fill = "none" />    <circle cx="298" cy = "43" r = "4.545454545454545" stroke = "#000000" stroke-width = "5" fill = "#000000" />
    <line x1="298" y1="43" x2="370" y2="43" style="stroke:#000000;stroke-width:5" />
	<path d = "M80 225 L80 189 L43 189 L43 225 L80 225 Z" stroke = "#000000" stroke-width = "1" fill = "none" />  <path d="M67.79187982896778 213.2464252835155           A9.09090909090909 9.09090909090909 0 0 1 54.93539289830332 213.24642528351552" fill = "none" stroke = "#000000" stroke-width = "1" />
  <path d="M54.93539289830332 213.24642528351552           A9.09090909090909 9.09090909090909 0 0 1 54.935392898303235 200.38993835285103" fill = "none" stroke = "#000000" stroke-width = "1" />
  <path d="M54.935392898303235 200.38993835285103           A9.09090909090909 9.09090909090909 0 0 1 67.7918798289677 200.3899383528509" fill = "none" stroke = "#000000" stroke-width = "1" />
	<path d = "M59 204 L68 200 L64 192 " stroke = "#000000" stroke-width = "1" fill = "none" />	<path d = "M116 225 L116 189 L80 189 L80 225 L116 225 Z" stroke = "#000000" stroke-width = "1" fill = "none" />    <line x1="98" y1="225" x2="98" y2="224" style="stroke:#000000;stroke-width:1" />
	<path d = "M98 224 L98 222 L94 219 L98 217 L102 215 L98 213 L94 210 L98 208 L102 206 L98 203 L94 201 L98 199 L102 197 L98 194 L98 190 L98 189 " stroke = "#000000" stroke-width = "1" fill = "none" />	<path d = "M152 225 L152 189 L116 189 L116 225 L152 225 Z" stroke = "#000000" stroke-width = "1" fill = "none" />    <line x1="134" y1="225" x2="134" y2="189" style="stroke:#000000;stroke-width:1" />
    <line x1="134" y1="207" x2="152" y2="207" style="stroke:#000000;stroke-width:1" />
    <line x1="134" y1="207" x2="134" y2="225" style="stroke:#000000;stroke-width:1" />
    <line x1="134" y1="207" x2="116" y2="207" style="stroke:#000000;stroke-width:1" />
    <circle cx="134" cy = "207" r = "2.2727272727272725" stroke = "#000000" stroke-width = "1" fill = "#000000" />
	<path d = "M189 225 L189 189 L152 189 L152 225 L189 225 Z" stroke = "#000000" stroke-width = "1" fill = "none" />  <path d="M176.88278891987625 213.2464252835153           A9.09090909090909 9.09090909090909 0 0 1 164.0263019892118 213.24642528351504" fill = "none" stroke = "#000000" stroke-width = "1" />
  <path d="M164.0263019892118 213.24642528351504           A9.09090909090909 9.09090909090909 0 0 1 164.026301989212 200.38993835285055" fill = "none" stroke = "#000000" stroke-width = "1" />
  <path d="M164.026301989212 200.38993835285055           A9.09090909090909 9.09090909090909 0 0 1 176.88278891987645 200.3899383528507" fill = "none" stroke = "#000000" stroke-width = "1" />
	<path d = "M168 204 L177 200 L173 192 " stroke = "#000000" stroke-width = "1" fill = "none" />	<path d = "M225 225 L225 189 L189 189 L189 225 L225 225 Z" stroke = "#000000" stroke-width = "1" fill = "none" />	<path d = "M207 225 L207 216 L207 211 " stroke = "#000000" stroke-width = "1" fill = "none" />    <line x1="207" y1="211" x2="198" y2="211" style="stroke:#000000;stroke-width:1" />
    <line x1="207" y1="211" x2="216" y2="211" style="stroke:#000000;stroke-width:1" />
    <line x1="207" y1="202" x2="216" y2="202" style="stroke:#000000;stroke-width:1" />
    <line x1="207" y1="202" x2="198" y2="202" style="stroke:#000000;stroke-width:1" />
	<path d = "M207 202 L207 198 L207 189 " stroke = "#000000" stroke-width = "1" fill = "none" />	<path d = "M261 225 L261 189 L225 189 L225 225 L261 225 Z" stroke = "#000000" stroke-width = "1" fill = "none" />  <path d="M249.61006164714922 213.24642528351447           A9.09090909090909 9.09090909090909 0 0 1 236.75357471648476 213.2464252835145" fill = "none" stroke = "#000000" stroke-width = "1" />
  <path d="M236.75357471648476 213.2464252835145           A9.09090909090909 9.09090909090909 0 0 1 236.75357471648468 200.38993835285" fill = "none" stroke = "#000000" stroke-width = "1" />
  <path d="M236.75357471648468 200.38993835285           A9.09090909090909 9.09090909090909 0 0 1 249.61006164714914 200.38993835284987" fill = "none" stroke = "#000000" stroke-width = "1" />
	<path d = "M241 204 L250 200 L246 192 " stroke = "#000000" stroke-width = "1" fill = "none" />	<path d = "M298 225 L298 189 L261 189 L261 225 L298 225 Z" stroke = "#000000" stroke-width = "1" fill = "none" />  <path d="M285.9736980107856 213.24642528351367           A9.09090909090909 9.09090909090909 0 0 1 273.11721108012114 213.2464252835137" fill = "none" stroke = "#000000" stroke-width = "1" />
  <path d="M273.11721108012114 213.2464252835137           A9.09090909090909 9.09090909090909 0 0 1 273.1172110801211 200.3899383528492" fill = "none" stroke = "#000000" stroke-width = "1" />
  <path d="M273.1172110801211 200.3899383528492           A9.09090909090909 9.09090909090909 0 0 1 285.97369801078554 200.38993835284907" fill = "none" stroke = "#000000" stroke-width = "1" />
	<path d = "M278 204 L286 200 L282 192 " stroke = "#000000" stroke-width = "1" fill = "none" />	<path d = "M334 225 L334 189 L298 189 L298 225 L334 225 Z" stroke = "#000000" stroke-width = "1" fill = "none" />    <line x1="316" y1="207" x2="316" y2="189" style="stroke:#000000;stroke-width:1" />
	<path d = "M316 207 L325 207 L316 216 L307 207 L316 207 Z" stroke = "#000000" stroke-width = "1" fill = "none" />	<path d = "M370 225 L370 189 L334 189 L334 225 L370 225 Z" stroke = "#000000" stroke-width = "1" fill = "none" />	<path d = "M357 216 L348 216 L348 207 L343 207 L348 202 L352 198 L357 202 L361 207 L357 207 L357 216 Z" stroke = "#000000" stroke-width = "1" fill = "none" />	<path d = "M407 225 L407 189 L370 189 L370 225 L407 225 Z" stroke = "#000000" stroke-width = "1" fill = "none" />  <path d="M395.0646071016945 213.2464252835111           A9.090909090909092 9.090909090909092 0 0 1 382.20812017103003 213.24642528351112" fill = "none" stroke = "#000000" stroke-width = "1" />
  <path d="M382.20812017103003 213.24642528351112           A9.090909090909092 9.090909090909092 0 0 1 382.20812017103 200.38993835284663" fill = "none" stroke = "#000000" stroke-width = "1" />
  <path d="M382.20812017103 200.38993835284663           A9.090909090909092 9.090909090909092 0 0 1 395.06460710169443 200.38993835284649" fill = "none" stroke = "#000000" stroke-width = "1" />
	<path d = "M387 204 L395 200 L392 192 " stroke = "#000000" stroke-width = "1" fill = "none" />	<path d = "M61 280 L61 243 L25 243 L25 280 L61 280 Z" stroke = "#000000" stroke-width = "1" fill = "none" />    <line x1="43" y1="280" x2="43" y2="278" style="stroke:#000000;stroke-width:1" />
	<path d = "M43 278 L43 276 L39 274 L43 272 L47 269 L43 267 L39 265 L43 262 L47 260 L43 258 L39 256 L43 253 L47 251 L43 249 L43 244 L43 243 " stroke = "#000000" stroke-width = "1" fill = "none" />	<path d = "M98 280 L98 243 L61 243 L61 280 L98 280 Z" stroke = "#000000" stroke-width = "1" fill = "none" />    <line x1="80" y1="280" x2="80" y2="243" style="stroke:#000000;stroke-width:1" />
    <line x1="80" y1="261" x2="98" y2="261" style="stroke:#000000;stroke-width:1" />
    <line x1="80" y1="261" x2="80" y2="280" style="stroke:#000000;stroke-width:1" />
    <line x1="80" y1="261" x2="61" y2="261" style="stroke:#000000;stroke-width:1" />
    <circle cx="80" cy = "261" r = "2.272727272727273" stroke = "#000000" stroke-width = "1" fill = "#000000" />
	<path d = "M134 280 L134 243 L98 243 L98 280 L134 280 Z" stroke = "#000000" stroke-width = "1" fill = "none" />  <path d="M122.33733437442167 267.7918798289678           A9.090909090909092 9.090909090909092 0 0 1 109.4808474437572 267.7918798289675" fill = "none" stroke = "#000000" stroke-width = "1" />
  <path d="M109.4808474437572 267.7918798289675           A9.090909090909092 9.090909090909092 0 0 1 109.4808474437574 254.93539289830306" fill = "none" stroke = "#000000" stroke-width = "1" />
  <path d="M109.4808474437574 254.93539289830306           A9.090909090909092 9.090909090909092 0 0 1 122.33733437442187 254.9353928983032" fill = "none" stroke = "#000000" stroke-width = "1" />
	<path d = "M114 258 L122 255 L119 247 " stroke = "#000000" stroke-width = "1" fill = "none" />	<path d = "M170 280 L170 243 L134 243 L134 280 L170 280 Z" stroke = "#000000" stroke-width = "1" fill = "none" />	<path d = "M152 280 L152 270 L152 266 " stroke = "#000000" stroke-width = "1" fill = "none" />    <line x1="152" y1="266" x2="143" y2="266" style="stroke:#000000;stroke-width:1" />
    <line x1="152" y1="266" x2="161" y2="266" style="stroke:#000000;stroke-width:1" />
    <line x1="152" y1="257" x2="161" y2="257" style="stroke:#000000;stroke-width:1" />
    <line x1="152" y1="257" x2="143" y2="257" style="stroke:#000000;stroke-width:1" />
	<path d = "M152 257 L152 252 L152 243 " stroke = "#000000" stroke-width = "1" fill = "none" />	<path d = "M207 280 L207 243 L170 243 L170 280 L207 280 Z" stroke = "#000000" stroke-width = "1" fill = "none" />  <path d="M195.06460710169472 267.791879828967           A9.090909090909092 9.090909090909092 0 0 1 182.20812017103026 267.791879828967" fill = "none" stroke = "#000000" stroke-width = "1" />
  <path d="M182.20812017103026 267.791879828967           A9.090909090909092 9.090909090909092 0 0 1 182.20812017103017 254.93539289830252" fill = "none" stroke = "#000000" stroke-width = "1" />
  <path d="M182.20812017103017 254.93539289830252           A9.090909090909092 9.090909090909092 0 0 1 195.06460710169463 254.93539289830238" fill = "none" stroke = "#000000" stroke-width = "1" />
	<path d = "M187 258 L195 255 L192 247 " stroke = "#000000" stroke-width = "1" fill = "none" />	<path d = "M243 280 L243 243 L207 243 L207 280 L243 280 Z" stroke = "#000000" stroke-width = "1" fill = "none" />  <path d="M231.4282434653311 267.7918798289662           A9.090909090909092 9.090909090909092 0 0 1 218.57175653466663 267.7918798289662" fill = "none" stroke = "#000000" stroke-width = "1" />
  <path d="M218.57175653466663 267.7918798289662           A9.090909090909092 9.090909090909092 0 0 1 218.57175653466655 254.93539289830173" fill = "none" stroke = "#000000" stroke-width = "1" />
  <path d="M218.57175653466655 254.93539289830173           A9.090909090909092 9.090909090909092 0 0 1 231.428243465331 254.9353928983016" fill = "none" stroke = "#000000" stroke-width = "1" />
	<path d = "M223 258 L231 255 L228 247 " stroke = "#000000" stroke-width = "1" fill = "none" />	<path d = "M280 280 L280 243 L243 243 L243 280 L280 280 Z" stroke = "#000000" stroke-width = "1" fill = "none" />    <line x1="261" y1="261" x2="261" y2="243" style="stroke:#000000;stroke-width:1" />
	<path d = "M261 261 L270 261 L261 270 L252 261 L261 261 Z" stroke = "#000000" stroke-width = "1" fill = "none" />	<path d = "M316 280 L316 243 L280 243 L280 280 L316 280 Z" stroke = "#000000" stroke-width = "1" fill = "none" />	<path d = "M302 270 L293 270 L293 261 L289 261 L293 257 L298 252 L302 257 L307 261 L302 261 L302 270 Z" stroke = "#000000" stroke-width = "1" fill = "none" />	<path d = "M352 280 L352 243 L316 243 L316 280 L352 280 Z" stroke = "#000000" stroke-width = "1" fill = "none" />  <path d="M340.51915255623993 267.79187982896383           A9.090909090909093 9.090909090909093 0 0 1 327.66266562557547 267.79187982896383" fill = "none" stroke = "#000000" stroke-width = "1" />
  <path d="M327.66266562557547 267.79187982896383           A9.090909090909093 9.090909090909093 0 0 1 327.6626656255754 254.93539289829934" fill = "none" stroke = "#000000" stroke-width = "1" />
  <path d="M327.6626656255754 254.93539289829934           A9.090909090909093 9.090909090909093 0 0 1 340.5191525562399 254.9353928982992" fill = "none" stroke = "#000000" stroke-width = "1" />
	<path d = "M332 258 L341 255 L337 247 " stroke = "#000000" stroke-width = "1" fill = "none" />	<path d = "M389 280 L389 243 L352 243 L352 280 L389 280 Z" stroke = "#000000" stroke-width = "1" fill = "none" />    <line x1="370" y1="280" x2="370" y2="278" style="stroke:#000000;stroke-width:1" />
	<path d = "M370 278 L370 276 L367 274 L370 272 L374 269 L370 267 L367 265 L370 262 L374 260 L370 258 L367 256 L370 253 L374 251 L370 249 L370 244 L370 243 " stroke = "#000000" stroke-width = "1" fill = "none" />	<path d = "M425 280 L425 243 L389 243 L389 280 L425 280 Z" stroke = "#000000" stroke-width = "1" fill = "none" />  <path d="M413.24642528351234 267.79187982896354           A9.090909090909093 9.090909090909093 0 0 1 400.3899383528479 267.79187982896326" fill = "none" stroke = "#000000" stroke-width = "1" />
  <path d="M400.3899383528479 267.79187982896326           A9.090909090909093 9.090909090909093 0 0 1 400.38993835284805 254.9353928982988" fill = "none" stroke = "#000000" stroke-width = "1" />
  <path d="M400.38993835284805 254.9353928982988           A9.090909090909093 9.090909090909093 0 0 1 413.2464252835125 254.93539289829894" fill = "none" stroke = "#000000" stroke-width = "1" />
	<path d = "M405 258 L413 255 L410 247 " stroke = "#000000" stroke-width = "1" fill = "none" />	<path d = "M61 334 L61 298 L25 298 L25 334 L61 334 Z" stroke = "#000000" stroke-width = "1" fill = "none" />	<path d = "M43 334 L43 325 L43 320 " stroke = "#000000" stroke-width = "1" fill = "none" />    <line x1="43" y1="320" x2="34" y2="320" style="stroke:#000000;stroke-width:1" />
    <line x1="43" y1="320" x2="52" y2="320" style="stroke:#000000;stroke-width:1" />
    <line x1="43" y1="311" x2="52" y2="311" style="stroke:#000000;stroke-width:1" />
    <line x1="43" y1="311" x2="34" y2="311" style="stroke:#000000;stroke-width:1" />
	<path d = "M43 311 L43 307 L43 298 " stroke = "#000000" stroke-width = "1" fill = "none" />	<path d = "M98 334 L98 298 L61 298 L61 334 L98 334 Z" stroke = "#000000" stroke-width = "1" fill = "none" />  <path d="M85.97369801078477 322.33733437441106           A9.090909090909093 9.090909090909093 0 0 1 73.1172110801203 322.33733437441106" fill = "none" stroke = "#000000" stroke-width = "1" />
  <path d="M73.1172110801203 322.33733437441106           A9.090909090909093 9.090909090909093 0 0 1 73.11721108012021 309.4808474437466" fill = "none" stroke = "#000000" stroke-width = "1" />
  <path d="M73.11721108012021 309.4808474437466           A9.090909090909093 9.090909090909093 0 0 1 85.97369801078469 309.4808474437464" fill = "none" stroke = "#000000" stroke-width = "1" />
	<path d = "M78 313 L86 309 L82 301 " stroke = "#000000" stroke-width = "1" fill = "none" />	<path d = "M134 334 L134 298 L98 298 L98 334 L134 334 Z" stroke = "#000000" stroke-width = "1" fill = "none" />  <path d="M122.33733437442113 322.33733437441026           A9.090909090909093 9.090909090909093 0 0 1 109.48084744375666 322.33733437441026" fill = "none" stroke = "#000000" stroke-width = "1" />
  <path d="M109.48084744375666 322.33733437441026           A9.090909090909093 9.090909090909093 0 0 1 109.48084744375657 309.4808474437458" fill = "none" stroke = "#000000" stroke-width = "1" />
  <path d="M109.48084744375657 309.4808474437458           A9.090909090909093 9.090909090909093 0 0 1 122.33733437442105 309.48084744374563" fill = "none" stroke = "#000000" stroke-width = "1" />
	<path d = "M114 313 L122 309 L119 301 " stroke = "#000000" stroke-width = "1" fill = "none" />	<path d = "M170 334 L170 298 L134 298 L134 334 L170 334 Z" stroke = "#000000" stroke-width = "1" fill = "none" />    <line x1="152" y1="316" x2="152" y2="298" style="stroke:#000000;stroke-width:1" />
	<path d = "M152 316 L161 316 L152 325 L143 316 L152 316 Z" stroke = "#000000" stroke-width = "1" fill = "none" />	<path d = "M207 334 L207 298 L170 298 L170 334 L207 334 Z" stroke = "#000000" stroke-width = "1" fill = "none" />	<path d = "M193 325 L184 325 L184 316 L180 316 L184 311 L189 307 L193 311 L198 316 L193 316 L193 325 Z" stroke = "#000000" stroke-width = "1" fill = "none" />	<path d = "M243 334 L243 298 L207 298 L207 334 L243 334 Z" stroke = "#000000" stroke-width = "1" fill = "none" />    <line x1="225" y1="334" x2="225" y2="298" style="stroke:#000000;stroke-width:1" />
    <line x1="225" y1="316" x2="243" y2="316" style="stroke:#000000;stroke-width:1" />
    <line x1="225" y1="316" x2="225" y2="334" style="stroke:#000000;stroke-width:1" />
    <line x1="225" y1="316" x2="207" y2="316" style="stroke:#000000;stroke-width:1" />
    <circle cx="225" cy = "316" r = "2.272727272727274" stroke = "#000000" stroke-width = "1" fill = "#000000" />
	<path d = "M280 334 L280 298 L243 298 L243 334 L280 334 Z" stroke = "#000000" stroke-width = "1" fill = "none" />  <path d="M267.79187982896644 322.3373343744071           A9.090909090909095 9.090909090909095 0 0 1 254.93539289830198 322.3373343744071" fill = "none" stroke = "#000000" stroke-width = "1" />
  <path d="M254.93539289830198 322.3373343744071           A9.090909090909095 9.090909090909095 0 0 1 254.9353928983019 309.4808474437426" fill = "none" stroke = "#000000" stroke-width = "1" />
  <path d="M254.9353928983019 309.4808474437426           A9.090909090909095 9.090909090909095 0 0 1 267.7918798289664 309.48084744374245" fill = "none" stroke = "#000000" stroke-width = "1" />
	<path d = "M259 313 L268 309 L264 301 " stroke = "#000000" stroke-width = "1" fill = "none" />	<path d = "M316 334 L316 298 L280 298 L280 334 L316 334 Z" stroke = "#000000" stroke-width = "1" fill = "none" />    <line x1="289" y1="316" x2="307" y2="316" style="stroke:#000000;stroke-width:1" />
    <line x1="307" y1="316" x2="304" y2="319" style="stroke:#000000;stroke-width:1" />
    <line x1="307" y1="316" x2="304" y2="313" style="stroke:#000000;stroke-width:1" />
	<path d = "M352 334 L352 298 L316 298 L316 334 L352 334 Z" stroke = "#000000" stroke-width = "1" fill = "none" />  <path d="M327.6626656255748 309.48084744374097           A9.090909090909095 9.090909090909095 0 0 1 340.51915255623925 309.4808474437411" fill = "none" stroke = "#000000" stroke-width = "1" />
  <path d="M327.6626656255746 322.33733437440543           A9.090909090909095 9.090909090909095 0 0 1 327.6626656255748 309.48084744374097" fill = "none" stroke = "#000000" stroke-width = "1" />
  <path d="M340.5191525562391 322.3373343744057           A9.090909090909095 9.090909090909095 0 0 1 327.6626656255746 322.33733437440543" fill = "none" stroke = "#000000" stroke-width = "1" />
	<path d = "M337 331 L341 322 L332 319 " stroke = "#000000" stroke-width = "1" fill = "none" />	<path d = "M389 334 L389 298 L352 298 L352 334 L389 334 Z" stroke = "#000000" stroke-width = "1" fill = "none" />	<path d = "M366 307 L375 307 L375 316 L380 316 L375 320 L370 325 L366 320 L361 316 L366 316 L366 307 Z" stroke = "#000000" stroke-width = "1" fill = "none" />	<path d = "M425 334 L425 298 L389 298 L389 334 L425 334 Z" stroke = "#000000" stroke-width = "1" fill = "none" />	<path d = "M402 307 L411 307 L411 316 L416 316 L411 320 L407 325 L402 320 L398 316 L402 316 L402 307 Z" stroke = "#000000" stroke-width = "1" fill = "none" />	<path d = "M61 389 L61 352 L25 352 L25 389 L61 389 Z" stroke = "#000000" stroke-width = "1" fill = "none" />	<path d = "M39 361 L48 361 L48 370 L52 370 L48 375 L43 380 L39 375 L34 370 L39 370 L39 361 Z" stroke = "#000000" stroke-width = "1" fill = "none" />	<path d = "M98 389 L98 352 L61 352 L61 389 L98 389 Z" stroke = "#000000" stroke-width = "1" fill = "none" />	<path d = "M89 366 L89 375 L80 375 L80 380 L75 375 L70 370 L75 366 L80 361 L80 366 L89 366 Z" stroke = "#000000" stroke-width = "1" fill = "none" />	<path d = "M134 389 L134 352 L98 352 L98 389 L134 389 Z" stroke = "#000000" stroke-width = "1" fill = "none" />	<path d = "M125 366 L125 375 L116 375 L116 380 L111 375 L107 370 L111 366 L116 361 L116 366 L125 366 Z" stroke = "#000000" stroke-width = "1" fill = "none" />	<path d = "M170 389 L170 352 L134 352 L134 389 L170 389 Z" stroke = "#000000" stroke-width = "1" fill = "none" />	<path d = "M161 366 L161 375 L152 375 L152 380 L148 375 L143 370 L148 366 L152 361 L152 366 L161 366 Z" stroke = "#000000" stroke-width = "1" fill = "none" />	<path d = "M207 389 L207 352 L170 352 L170 389 L207 389 Z" stroke = "#000000" stroke-width = "1" fill = "none" />	<path d = "M198 366 L198 375 L189 375 L189 380 L184 375 L180 370 L184 366 L189 361 L189 366 L198 366 Z" stroke = "#000000" stroke-width = "1" fill = "none" />	<path d = "M243 389 L243 352 L207 352 L207 389 L243 389 Z" stroke = "#000000" stroke-width = "1" fill = "none" />    <line x1="234" y1="370" x2="216" y2="370" style="stroke:#000000;stroke-width:1" />
	<path d = "M280 389 L280 352 L243 352 L243 389 L280 389 Z" stroke = "#000000" stroke-width = "1" fill = "none" />	<path d = "M270 366 L270 375 L261 375 L261 380 L257 375 L252 370 L257 366 L261 361 L261 366 L270 366 Z" stroke = "#000000" stroke-width = "1" fill = "none" />	<path d = "M316 389 L316 352 L280 352 L280 389 L316 389 Z" stroke = "#000000" stroke-width = "1" fill = "none" />	<path d = "M302 380 L293 380 L293 370 L289 370 L293 366 L298 361 L302 366 L307 370 L302 370 L302 380 Z" stroke = "#000000" stroke-width = "1" fill = "none" /><circle cx="334" cy = "370" r = "9.090909090909097" stroke = "#000000" stroke-width = "1" fill = "none" />
</svg>