<svg width="600" height="600" viewbox = "0 0 600 600"  xmlns="http://www.w3.org/2000/svg">
<!--<json>{
  "glyph": "0331,0331,0333,0333,01112,01106,01110,01106,0330,0333,0333,0333,0336,0336,0330,0331,0333,0336,0333,0330,0333,0336,0332,0337,0333,0332,0337,0337,0337,01112,01106,01110,0330,0333,0333,0336,0336,0336,0336,0330,0332,0337,0331,0332,0333,0331,0333,0333,0333,0333,0333,0331,0330,0330,0330,0337,0337,0337,01112,01106,0330,0333,0336,0336,0336,0333,0333,0333,0330,0337,0337,0337,01112,0330,0333,0336,0332,0336,0332,0336,0333,0330,0333,0336,0332,0337,0337,0337,0337,0337,0337,0306,0335,0350,0335,0335,0335,0211,0211,0321,0362,0203,0335,0335,0335,0335,0203,0335,0335,0335,0335,0203,0354,",
  "x0": 300,
  "y0": 300,
  "unit": 96.80000000000001,
  "width": 600,
  "height": 600,
  "style": {
    "color0": "black",
    "fill0": "black",
    "line0": 1,
    "color1": "black",
    "fill1": "black",
    "line1": 5,
    "color2": "red",
    "fill2": "red",
    "line2": 1,
    "color3": "#FF7900",
    "fill3": "#FF7900",
    "line3": 1,
    "color4": "yellow",
    "fill4": "yellow",
    "line4": 1,
    "color5": "green",
    "fill5": "green",
    "line5": 1,
    "color6": "blue",
    "fill6": "blue",
    "line6": 1,
    "color7": "purple",
    "fill7": "purple",
    "line7": 1
  },
  "shapes": [
    "0220:0341,",
    "01220:0333,0200,0336,0330,0332,0336,0332,060,062,062,060,0365,0333,0333,0331,0331,0333,0337,0337,",
    "01221:0333,0200,0336,0330,0332,0336,0332,060,062,062,061,0365,0333,0333,0331,0331,0333,0337,0337,",
    "01222:0333,0200,0336,0330,0332,0336,0332,060,062,062,062,0365,0333,0333,0331,0331,0333,0337,0337,",
    "01223:0333,0200,0336,0330,0332,0336,0332,060,062,062,063,0365,0333,0333,0331,0331,0333,0337,0337,",
    "01224:0333,0200,0336,0330,0332,0336,0332,060,062,062,064,0365,0333,0333,0331,0331,0333,0337,0337,",
    "01225:0333,0200,0336,0330,0332,0336,0332,060,062,062,065,0365,0333,0333,0331,0331,0333,0337,0337,",
    "01226:0333,0200,0336,0330,0332,0336,0332,060,062,062,066,0365,0333,0333,0331,0331,0333,0337,0337,",
    "01227:0333,0200,0336,0330,0332,0336,0332,060,062,062,067,0365,0333,0333,0331,0331,0333,0337,0337,",
    "01230:0333,0200,0336,0330,0332,0336,0332,060,062,063,060,0365,0333,0333,0331,0331,0333,0337,0337,",
    "01231:0333,0200,0336,0330,0332,0336,0332,060,062,063,061,0365,0333,0333,0331,0331,0333,0337,0337,",
    "01232:0333,0200,0336,0330,0332,0336,0332,060,062,063,062,0365,0333,0333,0331,0331,0333,0337,0337,",
    "01233:0333,0200,0336,0330,0332,0336,0332,060,062,063,063,0365,0333,0333,0331,0331,0333,0337,0337,",
    "01234:0333,0200,0336,0330,0332,0336,0332,060,062,063,064,0365,0333,0333,0331,0331,0333,0337,0337,",
    "01235:0333,0200,0336,0330,0332,0336,0332,060,062,063,065,0365,0333,0333,0331,0331,0333,0337,0337,",
    "01236:0333,0200,0336,0330,0332,0336,0332,060,062,063,066,0365,0333,0333,0331,0331,0333,0337,0337,",
    "01237:0333,0200,0336,0330,0332,0336,0332,060,062,063,067,0365,0333,0333,0331,0331,0333,0337,0337,"
  ]
}</json>-->	<path d = "M442 403 L442 409 L446 414 L450 418 L455 422 L459 426 L458 432 L457 438 L454 443 L452 449 L449 454 L446 460 L444 465 L445 459 L447 453 L447 447 L444 442 L439 439 L434 436 L430 431 L429 425 L429 419 L431 413 L435 408 L439 404 L441 402 Z" stroke = "#000000" stroke-width = "1" fill = "#000000" />	<path d = "M328 399 L328 401 L328 403 L329 405 L330 407 L332 408 L333 409 L335 410 L337 411 L344 413 L352 414 L360 414 L364 415 L368 415 L372 416 L376 416 L380 417 L383 418 L385 421 L385 425 L385 429 L383 433 L381 436 L381 440 L381 444 L381 448 L381 452 L381 456 L381 460 L381 464 L381 468 L381 472 L381 476 L378 479 L375 481 L373 484 L370 487 L367 490 L367 486 L367 482 L367 478 L367 474 L367 470 L367 466 L367 462 L367 458 L367 454 L367 450 L367 446 L367 442 L367 438 L367 434 L367 430 L363 431 L359 431 L355 431 L351 431 L347 431 L343 431 L339 431 L335 431 L331 431 L329 434 L328 438 L328 442 L328 446 L328 450 L328 454 L328 458 L328 462 L328 466 L328 470 L328 474 L325 477 L323 480 L320 483 L318 486 L315 489 L315 485 L315 481 L315 477 L314 473 L314 469 L314 465 L314 461 L314 457 L314 453 L314 449 L316 446 L317 442 L319 438 L321 435 L323 432 L321 429 L318 426 L316 423 L314 419 L317 416 L319 413 L321 409 L323 406 L325 403 L328 399 Z" stroke = "#000000" stroke-width = "1" fill = "#000000" />	<path d = "M251 404 L253 406 L256 408 L259 409 L263 410 L266 411 L268 411 L268 413 L267 414 L267 416 L267 418 L266 420 L266 421 L266 423 L266 425 L265 426 L265 433 L265 440 L265 447 L265 454 L265 461 L262 467 L259 473 L256 479 L252 485 L253 478 L252 472 L252 465 L252 458 L252 451 L253 444 L255 437 L256 434 L257 431 L256 427 L254 425 L251 425 L247 425 L244 423 L242 421 L241 419 L240 418 L245 413 L249 407 L251 404 Z" stroke = "#000000" stroke-width = "1" fill = "#000000" />	<path d = "M135 399 L135 401 L135 403 L136 405 L137 406 L139 408 L140 409 L142 410 L144 411 L151 412 L159 414 L167 414 L171 415 L175 415 L179 415 L183 415 L187 416 L190 418 L192 421 L192 425 L192 429 L190 433 L188 436 L188 440 L188 444 L188 448 L188 452 L188 456 L188 460 L188 464 L188 468 L188 471 L188 475 L185 478 L182 481 L180 484 L177 487 L174 489 L174 485 L174 482 L174 478 L174 474 L174 470 L174 466 L174 462 L174 458 L174 454 L174 450 L174 446 L174 442 L174 438 L174 434 L174 430 L170 430 L166 430 L162 430 L158 430 L154 430 L150 430 L146 430 L142 430 L138 430 L136 434 L135 438 L135 441 L135 445 L135 449 L135 453 L135 457 L135 461 L135 465 L135 469 L135 473 L132 476 L130 479 L127 482 L124 485 L122 488 L122 484 L122 481 L122 477 L121 473 L121 469 L121 465 L121 461 L121 457 L121 453 L121 449 L123 445 L124 442 L126 438 L128 434 L130 432 L128 428 L125 426 L123 422 L121 419 L124 416 L126 412 L128 409 L130 406 L132 402 L135 399 Z" stroke = "#000000" stroke-width = "1" fill = "#000000" />	<path d = "M389 293 L389 300 L393 305 L397 309 L402 312 L406 316 L405 322 L404 328 L401 334 L399 339 L396 345 L393 350 L391 356 L392 350 L394 344 L394 338 L391 333 L386 330 L381 326 L377 321 L376 315 L376 309 L378 304 L382 299 L386 294 L388 292 Z" stroke = "#000000" stroke-width = "1" fill = "#000000" />	<path d = "M275 290 L275 292 L275 294 L276 296 L277 297 L279 299 L280 300 L282 301 L284 302 L291 303 L299 305 L307 305 L311 306 L315 306 L319 306 L323 306 L327 307 L330 309 L332 312 L332 316 L332 320 L330 324 L328 327 L328 331 L328 335 L328 339 L328 343 L328 347 L328 351 L328 355 L328 359 L328 362 L328 366 L325 369 L322 372 L320 375 L317 378 L314 380 L314 376 L314 373 L314 369 L314 365 L314 361 L314 357 L314 353 L314 349 L314 345 L314 341 L314 337 L314 333 L314 329 L314 325 L314 321 L310 321 L306 321 L302 321 L298 321 L294 321 L290 321 L286 321 L282 321 L278 321 L276 325 L275 329 L275 332 L275 336 L275 340 L275 344 L275 348 L275 352 L275 356 L275 360 L275 364 L272 367 L270 370 L267 373 L265 376 L262 379 L262 375 L262 372 L262 368 L261 364 L261 360 L261 356 L261 352 L261 348 L261 344 L261 340 L263 336 L264 333 L266 329 L268 325 L270 323 L268 319 L265 317 L263 313 L261 310 L264 307 L266 303 L268 300 L270 297 L272 293 L275 290 Z" stroke = "#000000" stroke-width = "1" fill = "#000000" />	<path d = "M198 294 L200 297 L203 299 L206 300 L210 301 L213 301 L215 302 L215 303 L214 305 L214 307 L214 308 L213 310 L213 312 L213 314 L213 315 L212 317 L212 324 L212 331 L212 338 L212 345 L212 352 L209 358 L206 364 L203 370 L199 376 L200 369 L199 362 L199 355 L199 348 L199 341 L200 335 L202 328 L203 325 L204 321 L203 318 L201 315 L198 315 L194 315 L191 314 L189 311 L188 310 L187 308 L192 303 L196 298 L198 295 Z" stroke = "#000000" stroke-width = "1" fill = "#000000" />	<path d = "M348 190 L348 196 L351 201 L356 206 L361 209 L365 213 L364 219 L363 225 L360 231 L358 236 L355 242 L352 247 L349 252 L351 247 L353 241 L353 235 L349 230 L344 226 L339 223 L336 218 L335 212 L335 206 L337 201 L341 195 L345 191 L347 189 Z" stroke = "#000000" stroke-width = "1" fill = "#000000" />	<path d = "M234 187 L234 189 L234 191 L235 192 L236 194 L237 196 L239 197 L240 198 L242 199 L250 200 L258 202 L266 202 L270 203 L274 203 L277 203 L281 203 L285 204 L289 206 L291 209 L291 213 L290 217 L289 221 L287 224 L287 228 L287 232 L287 236 L287 240 L287 244 L287 248 L287 252 L287 255 L287 259 L287 263 L284 266 L281 269 L278 272 L276 275 L273 277 L273 273 L273 269 L273 266 L273 262 L273 258 L273 254 L273 250 L273 246 L273 242 L273 238 L273 234 L273 230 L273 226 L273 222 L273 218 L269 218 L265 218 L261 218 L257 218 L253 218 L249 218 L245 218 L241 218 L237 218 L235 222 L234 225 L233 229 L233 233 L233 237 L233 241 L233 245 L233 249 L233 253 L233 257 L233 261 L231 264 L228 267 L226 270 L223 273 L221 276 L221 272 L221 268 L220 265 L220 261 L220 257 L220 253 L220 249 L220 245 L220 241 L220 237 L222 233 L223 230 L225 226 L226 222 L229 220 L227 216 L224 213 L222 210 L220 207 L222 203 L225 200 L227 197 L229 194 L231 190 L233 187 Z" stroke = "#000000" stroke-width = "1" fill = "#000000" />	<path d = "M288 81 L288 87 L292 92 L296 97 L301 100 L305 104 L304 110 L303 116 L301 122 L298 127 L295 133 L293 138 L290 143 L291 138 L293 132 L293 126 L290 121 L285 117 L280 114 L276 109 L275 103 L275 97 L278 92 L281 86 L285 82 L287 80 Z" stroke = "#000000" stroke-width = "1" fill = "#000000" />	<path d = "M286 63 L539 502 L32 502 L286 63 Z" stroke = "#000000" stroke-width = "5" fill = "none" /></svg>