<svg width="600" height="600" viewbox = "0 0 600 600"  xmlns="http://www.w3.org/2000/svg">
<!--<json>{
  "glyph": "0332,0332,0336,0336,0331,0332,0332,0337,0305,0350,0335,0220,0333,0220,0333,0220,0333,0220,0335,0331,0331,0331,0335,0335,0333,0334,0334,0334,0220,0333,0220,0333,0220,0333,0220,0335,0331,0331,0331,0334,0332,0332,0335,0330,0330,0330,0330,0334,0334,0334,0334,0350,0334,0221,0332,0221,0332,0221,0335,0330,0334,0334,0331,0331,0335,0221,0332,0221,0333,0334,0331,0335,0221,0335,0335,0334,0330,0335,0335,0335,0335,0335,0335,0335,0335,0335,0221,0333,0221,0311,0335,0330,0334,0334,0330,0335,0335,0335,0335,0335,0335,0336,0201,0335,0335,0335,0335,0337,0330,0330,0330,0330,0335,0335,0335,0335,0335,0335,0336,0201,0201,0201,0335,0335,0201,0335,0335,0335,0335,0201,0334,0334,0334,0334,0335,0335,0337,0330,0335,0335,0330,0334,0334,0336,0201,0335,0335,0335,0335,0201,0335,0335,0330,0337,0330,0330,0335,0335,0335,0335,0330,0330,0330,0334,0334,0334,0334,0334,0334,0334,0334,0334,0221,0332,0332,0335,0335,0335,0335,0335,0335,0335,0335,0335,0331,0334,0334,0220,",
  "x0": 675.133079404,
  "y0": 406.99169030550024,
  "unit": 228.24933648880017,
  "width": 600,
  "height": 600,
  "style": {
    "color0": "black",
    "fill0": "#ffffff00",
    "line0": 1,
    "color1": "#00ff00",
    "fill1": "black",
    "line1": 5,
    "color2": "#00ff00",
    "fill2": "#ff000080",
    "line2": 1,
    "color3": "#FF7900",
    "fill3": "#FF7900",
    "line3": 1,
    "color4": "yellow",
    "fill4": "yellow",
    "line4": 1,
    "color5": "#00ff00",
    "fill5": "#00ff0080",
    "line5": 1,
    "color6": "#00ff00",
    "fill6": "#0000ff80",
    "line6": 1,
    "color7": "purple",
    "fill7": "#dda0dd80",
    "line7": 1
  }
}</json>-->	<path d = "M105 464 L105 350 L213 315 L213 429 L105 464 Z" stroke = "#000000" stroke-width = "1" fill = "rgba(255, 255, 255, 0)" />	<path d = "M213 429 L213 315 L322 279 L322 394 L213 429 Z" stroke = "#000000" stroke-width = "1" fill = "rgba(255, 255, 255, 0)" />	<path d = "M322 394 L322 279 L430 244 L430 358 L322 394 Z" stroke = "#000000" stroke-width = "1" fill = "rgba(255, 255, 255, 0)" />	<path d = "M430 358 L430 244 L539 209 L539 323 L430 358 Z" stroke = "#000000" stroke-width = "1" fill = "rgba(255, 255, 255, 0)" />	<path d = "M105 578 L105 464 L213 429 L213 543 L105 578 Z" stroke = "#000000" stroke-width = "1" fill = "rgba(255, 255, 255, 0)" />	<path d = "M213 543 L213 429 L322 394 L322 508 L213 543 Z" stroke = "#000000" stroke-width = "1" fill = "rgba(255, 255, 255, 0)" />	<path d = "M322 508 L322 394 L430 358 L430 472 L322 508 Z" stroke = "#000000" stroke-width = "1" fill = "rgba(255, 255, 255, 0)" />	<path d = "M430 472 L430 358 L539 323 L539 437 L430 472 Z" stroke = "#000000" stroke-width = "1" fill = "rgba(255, 255, 255, 0)" />	<path d = "M539 209 L430 244 L322 209 L430 174 L539 209 Z" stroke = "#000000" stroke-width = "1" fill = "rgba(255, 255, 255, 0)" />	<path d = "M430 244 L322 279 L213 244 L322 209 L430 244 Z" stroke = "#000000" stroke-width = "1" fill = "rgba(255, 255, 255, 0)" />	<path d = "M322 279 L213 315 L105 279 L213 244 L322 279 Z" stroke = "#000000" stroke-width = "1" fill = "rgba(255, 255, 255, 0)" />	<path d = "M430 174 L322 209 L213 174 L322 138 L430 174 Z" stroke = "#000000" stroke-width = "1" fill = "rgba(255, 255, 255, 0)" />	<path d = "M322 209 L213 244 L105 209 L213 174 L322 209 Z" stroke = "#000000" stroke-width = "1" fill = "rgba(255, 255, 255, 0)" />	<path d = "M322 138 L213 174 L105 138 L213 103 L322 138 Z" stroke = "#000000" stroke-width = "1" fill = "rgba(255, 255, 255, 0)" />	<path d = "M213 103 L322 68 L430 103 L322 138 L213 103 Z" stroke = "#000000" stroke-width = "1" fill = "rgba(255, 255, 255, 0)" />	<path d = "M322 138 L430 103 L539 138 L430 174 L322 138 Z" stroke = "#000000" stroke-width = "1" fill = "rgba(255, 255, 255, 0)" />    <line x1="539" y1="138" x2="539" y2="209" style="stroke:#000000;stroke-width:1" />
    <line x1="105" y1="350" x2="105" y2="279" style="stroke:#000000;stroke-width:1" />
    <line x1="105" y1="279" x2="105" y2="209" style="stroke:#000000;stroke-width:1" />
    <line x1="105" y1="209" x2="105" y2="138" style="stroke:#000000;stroke-width:1" />
    <line x1="105" y1="138" x2="146" y2="81" style="stroke:#000000;stroke-width:1" />
    <line x1="146" y1="81" x2="213" y2="103" style="stroke:#000000;stroke-width:1" />
    <line x1="430" y1="103" x2="497" y2="81" style="stroke:#000000;stroke-width:1" />
    <line x1="497" y1="81" x2="539" y2="138" style="stroke:#000000;stroke-width:1" />
	<path d = "M213 543 L322 508 L430 543 L322 578 L213 543 Z" stroke = "#000000" stroke-width = "1" fill = "rgba(255, 255, 255, 0)" />	<path d = "M539 437 L539 551 L430 587 L430 472 L539 437 Z" stroke = "#000000" stroke-width = "1" fill = "rgba(255, 255, 255, 0)" /></svg>