<svg width="600" height="600" viewbox = "0 0 600 600"  xmlns="http://www.w3.org/2000/svg">
<!--<json>{
  "glyph": "0305,0350,0335,0220,0333,0220,0333,0220,0333,0220,0333,0220,0333,0220,0335,0331,0331,0331,0331,0331,0350,0335,0221,0332,0221,0332,0221,0332,0221,0332,0221,0333,0334,0331,0335,0221,0334,0331,0335,0335,0220,0332,0335,0334,0350,0335,0221,0300,0330,0305,0350,0335,0220,0333,0220,0333,0220,0333,0220,0333,0220,0333,0220,0332,0335,0330,0334,0334,0334,0334,0334,0350,0335,0221,0332,0221,0332,0221,0332,0221,0332,0221,0332,0335,0330,0335,0335,0335,0335,0335,0335,0335,0221,0333,0221,0333,0333,0334,0334,0335,0220,0332,0334,0334,0334,0334,0334,0311,0336,0342,0335,0332,0335,0337,0220,0332,0333,0334,0334,0220,0335,0335,0335,0335,0335,0333,0335,0335,0342,0334,0201,0335,0201,0334,0201,0335,0335,0335,0342,0334,0334,0201,0335,0335,0342,0335,0335,0335,0330,0334,0330,0330,0335,0330,0334,0350,0335,0221,0300,0305,0335,0350,0335,0330,0350,0334,0221,0335,0335,0335,0335,0335,0335,0335,0335,0335,0201,0335,0335,0335,0335,0335,0311,0335,0336,0342,0330,0337,0330,0330,0336,0342,0330,0342,0330,0337,0330,0336,0342,0335,0337,0335,0335,0333,0333,0335,0335,0335,0330,0335,0335,0335,0335,0330,0334,0334,0334,0334,0330,0334,0334,0330,0335,0335,0335,0335,0335,0335,0330,0330,0334,0334,0334,0334,0334,0334,0330,0335,0335,0335,0335,0335,0335,0336,0201,0201,0335,0335,0335,0337,0335,0330,0335,0335,0330,0334,0334,0330,0334,0334,0334,0334,0336,0342,0330,0334,0334,0334,0334,0342,",
  "x0": 30.290325757678033,
  "y0": 523.5681100401902,
  "unit": 87.99999999999999,
  "width": 600,
  "height": 600,
  "style": {
    "color0": "black",
    "fill0": "#ffffff00",
    "line0": 1,
    "color1": "#00ff00",
    "fill1": "black",
    "line1": 5,
    "color2": "#00ff00",
    "fill2": "#ff000080",
    "line2": 1,
    "color3": "#FF7900",
    "fill3": "#FF7900",
    "line3": 1,
    "color4": "yellow",
    "fill4": "yellow",
    "line4": 1,
    "color5": "#00ff00",
    "fill5": "#00ff0080",
    "line5": 1,
    "color6": "#00ff00",
    "fill6": "#0000ff80",
    "line6": 1,
    "color7": "purple",
    "fill7": "#dda0dd80",
    "line7": 1
  }
}</json>-->	<path d = "M30 524 L30 436 L114 408 L114 496 L30 524 Z" stroke = "#000000" stroke-width = "1" fill = "rgba(255, 255, 255, 0)" />	<path d = "M114 496 L114 408 L198 381 L198 469 L114 496 Z" stroke = "#000000" stroke-width = "1" fill = "rgba(255, 255, 255, 0)" />	<path d = "M198 469 L198 381 L281 354 L281 442 L198 469 Z" stroke = "#000000" stroke-width = "1" fill = "rgba(255, 255, 255, 0)" />	<path d = "M281 442 L281 354 L365 327 L365 415 L281 442 Z" stroke = "#000000" stroke-width = "1" fill = "rgba(255, 255, 255, 0)" />	<path d = "M365 415 L365 327 L449 300 L449 388 L365 415 Z" stroke = "#000000" stroke-width = "1" fill = "rgba(255, 255, 255, 0)" />	<path d = "M449 388 L449 300 L532 272 L532 360 L449 388 Z" stroke = "#000000" stroke-width = "1" fill = "rgba(255, 255, 255, 0)" />	<path d = "M30 524 L114 496 L198 524 L114 551 L30 524 Z" stroke = "#000000" stroke-width = "1" fill = "rgba(255, 255, 255, 0)" />	<path d = "M114 496 L198 469 L281 496 L198 524 L114 496 Z" stroke = "#000000" stroke-width = "1" fill = "rgba(255, 255, 255, 0)" />	<path d = "M198 469 L281 442 L365 469 L281 496 L198 469 Z" stroke = "#000000" stroke-width = "1" fill = "rgba(255, 255, 255, 0)" />	<path d = "M281 442 L365 415 L449 442 L365 469 L281 442 Z" stroke = "#000000" stroke-width = "1" fill = "rgba(255, 255, 255, 0)" />	<path d = "M365 415 L449 388 L532 415 L449 442 L365 415 Z" stroke = "#000000" stroke-width = "1" fill = "rgba(255, 255, 255, 0)" />	<path d = "M365 469 L449 442 L532 469 L449 496 L365 469 Z" stroke = "#000000" stroke-width = "1" fill = "rgba(255, 255, 255, 0)" />	<path d = "M281 496 L365 469 L417 540 L333 568 L281 496 Z" stroke = "#000000" stroke-width = "1" fill = "rgba(255, 255, 255, 0)" />	<path d = "M365 469 L449 496 L500 568 L417 540 L365 469 Z" stroke = "#000000" stroke-width = "1" fill = "rgba(255, 255, 255, 0)" />	<path d = "M30 436 L30 348 L114 320 L114 408 L30 436 Z" stroke = "#000000" stroke-width = "1" fill = "rgba(255, 255, 255, 0)" />	<path d = "M114 408 L114 320 L198 293 L198 381 L114 408 Z" stroke = "#000000" stroke-width = "1" fill = "rgba(255, 255, 255, 0)" />	<path d = "M198 381 L198 293 L281 266 L281 354 L198 381 Z" stroke = "#000000" stroke-width = "1" fill = "rgba(255, 255, 255, 0)" />	<path d = "M281 354 L281 266 L365 239 L365 327 L281 354 Z" stroke = "#000000" stroke-width = "1" fill = "rgba(255, 255, 255, 0)" />	<path d = "M365 327 L365 239 L449 212 L449 300 L365 327 Z" stroke = "#000000" stroke-width = "1" fill = "rgba(255, 255, 255, 0)" />	<path d = "M449 300 L449 212 L532 184 L532 272 L449 300 Z" stroke = "#000000" stroke-width = "1" fill = "rgba(255, 255, 255, 0)" />	<path d = "M532 184 L449 212 L365 184 L449 157 L532 184 Z" stroke = "#000000" stroke-width = "1" fill = "rgba(255, 255, 255, 0)" />	<path d = "M449 212 L365 239 L281 212 L365 184 L449 212 Z" stroke = "#000000" stroke-width = "1" fill = "rgba(255, 255, 255, 0)" />	<path d = "M365 239 L281 266 L198 239 L281 212 L365 239 Z" stroke = "#000000" stroke-width = "1" fill = "rgba(255, 255, 255, 0)" />	<path d = "M281 266 L198 293 L114 266 L198 239 L281 266 Z" stroke = "#000000" stroke-width = "1" fill = "rgba(255, 255, 255, 0)" />	<path d = "M198 293 L114 320 L30 293 L114 266 L198 293 Z" stroke = "#000000" stroke-width = "1" fill = "rgba(255, 255, 255, 0)" />	<path d = "M30 293 L82 222 L166 195 L114 266 L30 293 Z" stroke = "#000000" stroke-width = "1" fill = "rgba(255, 255, 255, 0)" />	<path d = "M114 266 L166 195 L249 168 L198 239 L114 266 Z" stroke = "#000000" stroke-width = "1" fill = "rgba(255, 255, 255, 0)" />	<path d = "M281 212 L281 124 L365 96 L365 184 L281 212 Z" stroke = "#000000" stroke-width = "1" fill = "rgba(255, 255, 255, 0)" />    <line x1="281" y1="124" x2="249" y2="168" style="stroke:#000000;stroke-width:1" />
	<path d = "M249 168 L166 195 L114 124 L198 96 L249 168 Z" stroke = "#000000" stroke-width = "1" fill = "rgba(255, 255, 255, 0)" />	<path d = "M114 124 L114 212 L30 239 L30 151 L114 124 Z" stroke = "#000000" stroke-width = "1" fill = "rgba(255, 255, 255, 0)" />    <line x1="198" y1="96" x2="281" y2="124" style="stroke:#000000;stroke-width:1" />
    <line x1="198" y1="96" x2="281" y2="69" style="stroke:#000000;stroke-width:1" />
    <line x1="281" y1="69" x2="365" y2="96" style="stroke:#000000;stroke-width:1" />
    <line x1="365" y1="96" x2="449" y2="69" style="stroke:#000000;stroke-width:1" />
    <line x1="449" y1="69" x2="449" y2="157" style="stroke:#000000;stroke-width:1" />
    <line x1="449" y1="69" x2="532" y2="96" style="stroke:#000000;stroke-width:1" />
    <line x1="532" y1="96" x2="532" y2="184" style="stroke:#000000;stroke-width:1" />
	<path d = "M198 96 L114 124 L30 96 L114 69 L198 96 Z" stroke = "#000000" stroke-width = "1" fill = "rgba(255, 255, 255, 0)" />	<path d = "M114 551 L198 524 L281 551 L198 578 L114 551 Z" stroke = "#000000" stroke-width = "1" fill = "rgba(255, 255, 255, 0)" />    <line x1="114" y1="551" x2="30" y2="578" style="stroke:#000000;stroke-width:1" />
    <line x1="30" y1="578" x2="30" y2="524" style="stroke:#000000;stroke-width:1" />
    <line x1="30" y1="348" x2="30" y2="293" style="stroke:#000000;stroke-width:1" />
    <line x1="30" y1="293" x2="30" y2="239" style="stroke:#000000;stroke-width:1" />
    <line x1="30" y1="151" x2="30" y2="96" style="stroke:#000000;stroke-width:1" />
    <line x1="532" y1="360" x2="532" y2="415" style="stroke:#000000;stroke-width:1" />
    <line x1="532" y1="415" x2="532" y2="469" style="stroke:#000000;stroke-width:1" />
    <line x1="281" y1="496" x2="281" y2="551" style="stroke:#000000;stroke-width:1" />
    <line x1="281" y1="551" x2="333" y2="568" style="stroke:#000000;stroke-width:1" />
</svg>