<svg width="600" height="600" viewbox = "0 0 600 600"  xmlns="http://www.w3.org/2000/svg">
<!--<json>{
  "glyph": "0334,0331,0331,0331,0362,0203,0203,0203,0203,0203,0203,0354,0335,0330,0335,0362,0203,0203,0203,0203,0203,0203,0364,0332,0335,0335,0362,0203,0203,0203,0203,0203,0203,0364,0335,0330,0335,0362,0203,0203,0203,0203,0203,0203,0364,0335,0330,0330,0330,0330,0335,0362,0203,0203,0203,0203,0203,0203,0364,0335,0331,0335,0362,0203,0203,0203,0203,0203,0203,0364,0335,0330,0335,0362,0203,0203,0203,0203,0203,0203,0364,0335,0362,0203,0203,0203,0203,0203,0203,0364,0335,0335,0332,0332,0332,0332,0332,0332,0362,0203,0203,0203,0203,0203,0203,0364,0335,0335,0330,0330,0330,0332,0332,0332,",
  "x0": 300,
  "y0": 300,
  "unit": 79.99999999999999,
  "width": 600,
  "height": 600,
  "style": {
    "color0": "#00ff00",
    "fill0": "black",
    "line0": 1,
    "color1": "black",
    "fill1": "black",
    "line1": 5,
    "color2": "red",
    "fill2": "red",
    "line2": 1,
    "color3": "#FF7900",
    "fill3": "#FF7900",
    "line3": 1,
    "color4": "yellow",
    "fill4": "yellow",
    "line4": 1,
    "color5": "black",
    "fill5": "green",
    "line5": 4,
    "color6": "blue",
    "fill6": "blue",
    "line6": 1,
    "color7": "purple",
    "fill7": "purple",
    "line7": 1
  },
  "shapes": [
    "0220:0322,0342,0333,0342,0333,0342,0332,0332,0332,0342,0332,0342,0336,0332,0337,0342,0336,0330,0334,0342,0335,0336,0331,0332,0334,0342,0334,0342,0335,0335,0331,0336,0332,0201,0334,0342,0335,0331,0336,0332,0201,0334,0201,0335,0331,0337,0337,0337,0330,0336,0330,0335,0201,0334,0201,0336,0334,0330,0334,0201,0335,0201,0335,0336,0330,0335,0201,0334,0201,0332,0337,0337,0337,0337,0333,0333,0333,0333,0333,0331,0336,0316,0336,0333,0342,0333,0342,0333,0342,0333,0342,0333,0313,0337,0342,0336,0333,0342,0333,0342,0333,0342,0333,0342,0333,0334,0333,0342,0333,0342,0333,0342,0333,0342,0333,0337,0342,0336,0333,0342,0333,0342,0333,0342,0333,0342,0333,0334,0333,0342,0333,0342,0333,0342,0333,0342,0333,0337,0342,0336,0333,0342,0333,0342,0333,0342,0333,0342,0333,0334,0333,0342,0333,0342,0333,0342,0333,0342,0333,0342,0337,0330,0330,0342,0336,0330,0334,0342,0335,0335,0342,0335,0335,0335,0331,0331,0331,0331,0331,0337,0342,0336,0333,0342,0333,0342,0333,0342,0333,0342,0334,0331,0337,0316,0337,0313,0332,0332,",
    "01220:0333,0200,0336,0330,0332,0336,0336,0220,0337,0320,0337,0331,0333,0337,",
    "0222:0336,0332,",
    "01222:0333,0200,"
  ]
}</json>-->	<path d = "M540 300 L460 300 L380 300 L300 300 L220 300 L140 300 L60 300 Z" stroke = "#00ff00" stroke-width = "1" fill = "none" />	<path d = "M60 220 L140 220 L220 220 L300 220 L380 220 L460 220 L540 220 " stroke = "#00ff00" stroke-width = "1" fill = "none" />	<path d = "M540 140 L460 140 L380 140 L300 140 L220 140 L140 140 L60 140 " stroke = "#00ff00" stroke-width = "1" fill = "none" />	<path d = "M60 60 L140 60 L220 60 L300 60 L380 60 L460 60 L540 60 " stroke = "#00ff00" stroke-width = "1" fill = "none" />	<path d = "M540 380 L460 380 L380 380 L300 380 L220 380 L140 380 L60 380 " stroke = "#00ff00" stroke-width = "1" fill = "none" />	<path d = "M60 460 L140 460 L220 460 L300 460 L380 460 L460 460 L540 460 " stroke = "#00ff00" stroke-width = "1" fill = "none" />	<path d = "M540 540 L460 540 L380 540 L300 540 L220 540 L140 540 L60 540 " stroke = "#00ff00" stroke-width = "1" fill = "none" />	<path d = "M60 540 L60 460 L60 380 L60 300 L60 220 L60 140 L60 60 " stroke = "#00ff00" stroke-width = "1" fill = "none" />	<path d = "M540 60 L540 140 L540 220 L540 300 L540 380 L540 460 L540 540 " stroke = "#00ff00" stroke-width = "1" fill = "none" /></svg>