<svg width="600" height="600" viewbox = "0 0 600 600"  xmlns="http://www.w3.org/2000/svg">
<!--<json>{
  "glyph": "0227,0322,0230,",
  "x0": 281.3986094999999,
  "y0": 285.82751199999996,
  "unit": 276.18169715144825,
  "width": 600,
  "height": 600,
  "style": {
    "color0": "black",
    "fill0": "black",
    "line0": 1,
    "color1": "black",
    "fill1": "black",
    "line1": 5,
    "color2": "red",
    "fill2": "red",
    "line2": 1,
    "color3": "#FF7900",
    "fill3": "#FF7900",
    "line3": 1,
    "color4": "yellow",
    "fill4": "yellow",
    "line4": 1,
    "color5": "green",
    "fill5": "green",
    "line5": 1,
    "color6": "blue",
    "fill6": "blue",
    "line6": 1,
    "color7": "purple",
    "fill7": "purple",
    "line7": 1
  },
  "shapes": [
    "0220:0313,0304,0336,0332,0337,0342,0336,0333,0330,0334,0337,0342,0335,0336,0331,0332,0333,0336,0332,0337,0342,0336,0333,0334,0333,0337,0342,0335,0336,0331,0336,0332,0337,0342,0336,0333,0330,0334,0337,0342,0335,0336,0331,0336,0332,0337,0342,0336,0333,0330,0334,0337,0342,0335,0336,0331,0336,0332,0337,0342,0336,0333,0330,0334,0337,0342,0335,0336,0331,0337,0337,0337,0337,0337,0336,0336,0336,0336,0336,0336,0332,0337,0342,0336,0333,0334,0333,0337,0342,0335,0336,0331,0337,0337,0337,0337,0337,0337,0332,0336,0336,0336,0330,0336,0333,0330,0337,0336,0333,0337,01304,01313,0331,0331,0333,0333,0333,0333,0333,0336,0330,0337,0337,0337,0337,",
    "0221:0304,0334,0306,0336,0330,0335,0201,0335,0335,0201,0335,0335,0201,0335,0304,0335,0336,0330,0336,0331,0332,0330,0336,0333,0337,01306,0331,0331,0336,0332,0337,0337,0337,0333,0337,",
    "0222:0350,0335,0310,0336,0201,0334,0334,0334,0336,0201,0335,0335,0335,0336,0201,0334,0334,0334,0336,0201,0335,0335,0335,0336,0201,0334,0334,0334,0336,0201,0335,0335,0335,0336,0201,0334,0334,0334,0336,0201,0335,0335,0335,0336,0201,0334,0334,0330,0335,0337,0337,0337,0337,0337,0337,0337,0337,0337,0331,0304,0313,0336,0330,0333,0336,0331,0336,0331,0332,0336,0332,0337,01304,01350,01310,0331,0331,0332,0332,0332,0332,0330,0332,0336,0332,0337,0337,0337,0337,",
    "0223:0304,0335,0330,0334,0334,0306,0350,0335,0312,0336,0313,0337,0330,0334,0334,0334,0334,0313,0336,0330,0334,0334,0334,0334,0334,0334,0330,0335,0335,0335,0335,0312,0335,0312,0336,0313,0337,0201,0335,0335,0335,0335,0335,0312,0336,0201,0334,0334,0334,0334,0334,0336,0201,0335,0335,0335,0335,0335,0336,0201,0334,0334,0334,0334,0334,0334,0335,0336,0201,0331,0335,0334,0334,0337,0330,0335,0337,0331,0334,0337,0330,0335,0337,0331,0334,0337,0330,0334,0313,0336,0312,0337,0331,0334,0334,0334,0313,0304,0313,0336,0336,0330,0333,0333,0336,0331,0332,0336,0331,0337,01312,0331,0332,0332,0332,0332,0336,0330,0337,0337,0337,0337,",
    "0224:0304,0313,0335,0311,0305,0350,0330,0334,0334,0334,0334,0336,0330,0334,0334,0330,0335,0337,0335,0335,0335,0335,0336,0330,0335,0335,0335,0336,0201,0334,0334,0334,0336,0201,0335,0335,0335,0336,0201,0334,0334,0334,0336,0201,0335,0335,0335,0336,0201,0334,0334,0334,0336,0201,0335,0335,0335,0334,0330,0334,0337,0337,0337,0337,0337,0337,0336,0331,0334,0334,0334,0330,0335,0335,0337,0331,0335,0304,0337,0334,0313,0336,0336,0336,0333,0333,0333,0336,0330,0332,0337,0336,0336,0331,0332,0337,0337,01305,01311,0331,0332,0332,0332,0332,0336,0330,0336,0330,0332,0337,0337,0337,0337,0337,",
    "0225:0313,0304,0335,0305,0311,0334,0336,0330,0335,0337,0350,0335,0330,0335,0335,0335,0335,0330,0335,0335,0335,0336,0335,0201,0335,0335,0335,0335,0336,0201,0334,0334,0334,0334,0201,0335,0335,0335,0335,0336,0201,0334,0334,0334,0334,0201,0335,0335,0335,0335,0336,0201,0334,0334,0334,0334,0201,0335,0335,0335,0335,0336,0201,0334,0334,0334,0334,0201,0335,0335,0335,0335,0336,0201,0334,0334,0334,0334,0201,0335,0335,0335,0335,0336,0201,0334,0334,0334,0334,0201,0335,0335,0335,0335,0336,0201,0334,0334,0334,0337,0330,0337,0337,0337,0337,0337,0337,0337,0331,0304,0334,0313,",
    "0226:0313,0304,0335,0306,0350,0312,0330,0334,0334,0334,0334,0334,0336,0330,0334,0334,0330,0331,0334,0336,0342,0334,0334,0342,0330,0334,0336,0331,0342,0335,0335,0335,0335,0342,0334,0336,0342,0334,0334,0342,0330,0334,0336,0331,0342,0335,0335,0335,0335,0342,0334,0336,0342,0334,0334,0342,0334,0337,0330,0335,0337,0331,0334,0337,0330,0335,0337,0331,0313,0336,0312,0335,0337,0342,0330,0335,0335,0335,0337,0330,0335,0335,0335,0313,0337,0304,0313,",
    "0227:0331,0220,0333,0332,0222,0333,0330,0332,0335,0335,0332,0223,0335,0335,0221,0312,0336,0331,0306,0334,0313,0337,0330,0335,0304,0335,0335,0336,0312,0337,0313,0304,0330,0335,0330,0335,0330,0335,0330,0334,0331,0335,0330,0334,0334,0350,0310,0337,0335,0330,0336,0335,0304,0335,0306,0334,0330,0335,0335,0330,0335,0335,0330,0335,0335,0304,0334,0226,0335,0306,0350,0334,0312,0336,0330,0335,0335,0330,0331,0334,0334,0331,0337,0313,0304,0332,0225,0335,0305,0334,0311,0336,0330,0335,0350,0335,0337,0304,0334,0224,0335,0305,0350,0334,0311,0336,0330,0335,0335,0335,0335,0335,0304,0305,0330,0334,0334,0311,0337,0330,0335,0335,0304,0335,0313,",
    "0230:0331,0200,0335,0201,0334,0334,0350,0335,0310,0337,0201,0335,0304,0335,0336,0201,0335,0312,0336,0201,0335,0306,0350,0335,0313,0337,0201,0334,0313,0336,0312,0337,0304,0335,0335,0306,0334,0201,0335,0335,0342,0335,0350,0335,0312,0336,0201,0334,0334,0201,0335,0335,0335,0337,0313,0304,0335,0332,0335,0305,0334,0311,0336,0201,0335,0350,0335,0337,0342,0334,0336,0201,0335,0335,0201,0335,0335,0335,0337,0313,0304,0335,",
    "0231:0350,0310,0362,0203,0335,0335,0203,0335,0335,0335,0337,0203,0363,0324,0334,0334,0334,0336,0362,0203,0335,0334,0334,0337,0203,0334,0334,0334,0334,0335,0336,0203,0334,0337,0203,0363,0335,0320,0336,0331,0335,0335,0335,0337,0362,0203,0335,0335,0335,0336,0203,0335,0335,0203,0363,0331,0304,0335,0313,",
    "0232:0336,0336,0336,0336,0336,0362,0203,0337,0203,0306,0334,0337,0203,0335,0335,0203,0203,0334,0334,0203,0203,0335,0335,0203,0203,0334,0334,0203,0203,0335,0335,0203,0203,0334,0334,0203,0335,0203,0336,0336,0203,0304,0337,0337,0337,0337,0337,0364,",
    "0233:0336,0336,0362,0203,0336,0203,0334,0364,0337,0330,0335,0335,0337,0342,0336,0330,0332,0331,0337,0342,0336,0330,0334,0336,0362,0203,0337,0203,0335,0364,0335,0337,0337,0335,0335,",
    "0234:0336,0366,0330,0333,0333,0336,0331,0337,0367,0335,0335,0366,0331,0333,0333,0367,0335,0335,0337,",
    "0235:0313,0336,0314,0336,0313,0337,0234,0234,0234,0234,0314,0337,0313,",
    "0236:0336,0336,0336,0336,0347,0337,0337,0337,0337,",
    "0237:0246,0331,0332,0331,0246,0330,0333,0331,0331,0333,0246,0332,0330,",
    "01220:0333,0200,0336,0330,0332,0336,0331,0333,0337,0220,0336,0331,0333,0337,0337,0320,",
    "01221:0333,0200,0336,0330,0332,0331,0336,0333,0330,0337,0221,0336,0331,0333,0337,0337,",
    "01222:0333,0200,0336,0330,0332,0336,0331,0333,0337,0332,0222,0333,0336,0333,0331,0337,0337,",
    "01223:0333,0200,0336,0336,0330,0332,0337,0223,0336,0331,0333,0337,0337,0320,",
    "01224:0333,0200,0336,0332,0330,0224,0333,0331,0337,",
    "01225:0333,0200,0336,0336,0332,0332,0330,0337,0225,0304,0333,0331,0336,0330,0337,0337,",
    "01226:0333,0200,0336,0330,0332,0332,0337,0226,0336,0331,0336,0333,0330,0333,0333,0331,0333,0337,0337,",
    "01227:0333,0200,0336,0330,0332,0210,0227,0211,0331,0333,0337,",
    "01230:0333,0200,0336,0330,0332,0336,0230,0337,0331,0333,0337,",
    "01231:0333,0200,0336,0330,0332,0336,0331,0332,0336,0330,0337,0231,0331,0333,0336,0331,0337,0337,0337,",
    "01232:0333,0200,0336,0330,0332,0331,0336,0330,0337,0232,0336,0330,0337,0333,0337,0331,",
    "01233:0333,0200,0336,0332,0336,0330,0337,0233,0336,0330,0333,0333,0337,0337,0331,",
    "01234:0333,0200,0336,0330,0332,0336,0331,0337,0234,0336,0330,0336,0330,0337,0337,0333,0337,0331,",
    "01235:0333,0200,0336,0332,0336,0330,0337,0235,0336,0330,0337,0333,0337,0331,",
    "01236:0333,0200,0336,0330,0332,0336,0342,0335,0342,0335,0342,0335,0342,0335,0337,0236,0331,0333,0337,",
    "01237:0333,0200,0336,0330,0332,0336,0237,0313,0337,0304,0313,0331,0333,0337,"
  ]
}</json>-->    <line x1="143" y1="562" x2="143" y2="286" style="stroke:#000000;stroke-width:1" />
    <line x1="281" y1="424" x2="5" y2="424" style="stroke:#000000;stroke-width:1" />
    <line x1="212" y1="562" x2="212" y2="424" style="stroke:#000000;stroke-width:1" />
    <line x1="281" y1="493" x2="143" y2="493" style="stroke:#000000;stroke-width:1" />
    <line x1="247" y1="562" x2="247" y2="493" style="stroke:#000000;stroke-width:1" />
    <line x1="281" y1="527" x2="212" y2="527" style="stroke:#000000;stroke-width:1" />
    <line x1="264" y1="562" x2="264" y2="527" style="stroke:#000000;stroke-width:1" />
    <line x1="281" y1="545" x2="247" y2="545" style="stroke:#000000;stroke-width:1" />
    <line x1="273" y1="562" x2="273" y2="545" style="stroke:#000000;stroke-width:1" />
    <line x1="281" y1="553" x2="264" y2="553" style="stroke:#000000;stroke-width:1" />
    <line x1="277" y1="562" x2="277" y2="553" style="stroke:#000000;stroke-width:1" />
    <line x1="281" y1="558" x2="273" y2="558" style="stroke:#000000;stroke-width:1" />
	<path d = "M74 510 L74 476 L40 476 L40 510 L74 510 Z" stroke = "#000000" stroke-width = "1" fill = "none" /><circle cx="57" cy = "493" r = "17.261356071965515" stroke = "#000000" stroke-width = "1" fill = "none" />
    <line x1="57" y1="493" x2="57" y2="476" style="stroke:#000000;stroke-width:1" />
    <line x1="57" y1="493" x2="74" y2="493" style="stroke:#000000;stroke-width:1" />
    <line x1="57" y1="493" x2="57" y2="510" style="stroke:#000000;stroke-width:1" />
    <line x1="57" y1="493" x2="40" y2="493" style="stroke:#000000;stroke-width:1" />
<circle cx="51" cy = "487" r = "4.315339017991379" stroke = "#000000" stroke-width = "1" fill = "none" />
<circle cx="63" cy = "487" r = "4.315339017991379" stroke = "#000000" stroke-width = "1" fill = "none" />
<circle cx="63" cy = "499" r = "4.315339017991379" stroke = "#000000" stroke-width = "1" fill = "none" />
<circle cx="51" cy = "499" r = "4.315339017991379" stroke = "#000000" stroke-width = "1" fill = "none" />
	<path d = "M109 510 L109 476 L74 476 L74 510 L109 510 Z" stroke = "#000000" stroke-width = "1" fill = "none" />	<path d = "M100 502 L100 493 L92 493 L83 493 L83 502 L92 502 L100 502 Z" stroke = "#000000" stroke-width = "1" fill = "none" />    <line x1="92" y1="502" x2="92" y2="493" style="stroke:#000000;stroke-width:1" />
    <line x1="281" y1="562" x2="419" y2="424" style="stroke:#000000;stroke-width:1" />
    <line x1="419" y1="424" x2="281" y2="424" style="stroke:#000000;stroke-width:1" />
    <line x1="281" y1="424" x2="350" y2="355" style="stroke:#000000;stroke-width:1" />
    <line x1="350" y1="355" x2="281" y2="355" style="stroke:#000000;stroke-width:1" />
    <line x1="281" y1="355" x2="316" y2="320" style="stroke:#000000;stroke-width:1" />
    <line x1="316" y1="320" x2="281" y2="320" style="stroke:#000000;stroke-width:1" />
    <line x1="281" y1="320" x2="299" y2="303" style="stroke:#000000;stroke-width:1" />
    <line x1="299" y1="303" x2="281" y2="303" style="stroke:#000000;stroke-width:1" />
    <line x1="281" y1="303" x2="290" y2="294" style="stroke:#000000;stroke-width:1" />
	<path d = "M402 527 L402 493 L368 493 L368 527 L402 527 Z" stroke = "#000000" stroke-width = "1" fill = "none" /><circle cx="385" cy = "510" r = "17.261356071965523" stroke = "#000000" stroke-width = "1" fill = "none" />
    <line x1="385" y1="510" x2="385" y2="493" style="stroke:#000000;stroke-width:1" />
    <line x1="385" y1="510" x2="402" y2="510" style="stroke:#000000;stroke-width:1" />
    <line x1="385" y1="510" x2="385" y2="527" style="stroke:#000000;stroke-width:1" />
    <line x1="385" y1="510" x2="368" y2="510" style="stroke:#000000;stroke-width:1" />
<circle cx="379" cy = "504" r = "4.315339017991381" stroke = "#000000" stroke-width = "1" fill = "none" />
<circle cx="391" cy = "504" r = "4.315339017991381" stroke = "#000000" stroke-width = "1" fill = "none" />
<circle cx="391" cy = "516" r = "4.315339017991381" stroke = "#000000" stroke-width = "1" fill = "none" />
<circle cx="379" cy = "516" r = "4.315339017991381" stroke = "#000000" stroke-width = "1" fill = "none" />
	<path d = "M437 527 L437 493 L402 493 L402 527 L437 527 Z" stroke = "#000000" stroke-width = "1" fill = "none" />	<path d = "M432 498 L419 510 L432 522 " stroke = "#000000" stroke-width = "1" fill = "none" />    <line x1="419" y1="510" x2="424" y2="510" style="stroke:#000000;stroke-width:1" />
    <line x1="428" y1="510" x2="432" y2="510" style="stroke:#000000;stroke-width:1" />
	<path d = "M471 527 L471 493 L437 493 L437 527 L471 527 Z" stroke = "#000000" stroke-width = "1" fill = "none" />    <line x1="454" y1="527" x2="471" y2="510" style="stroke:#000000;stroke-width:1" />
    <line x1="471" y1="510" x2="454" y2="493" style="stroke:#000000;stroke-width:1" />
    <line x1="454" y1="493" x2="437" y2="510" style="stroke:#000000;stroke-width:1" />
    <line x1="437" y1="510" x2="454" y2="527" style="stroke:#000000;stroke-width:1" />
    <line x1="558" y1="445" x2="466" y2="286" style="stroke:#000000;stroke-width:1" />
    <line x1="466" y1="286" x2="558" y2="339" style="stroke:#000000;stroke-width:1" />
    <line x1="558" y1="339" x2="527" y2="286" style="stroke:#000000;stroke-width:1" />
    <line x1="527" y1="286" x2="558" y2="304" style="stroke:#000000;stroke-width:1" />
    <line x1="558" y1="304" x2="547" y2="286" style="stroke:#000000;stroke-width:1" />
	<path d = "M419 303 L419 338 L454 338 L454 303 L419 303 Z" stroke = "#000000" stroke-width = "1" fill = "none" />	<path d = "M419 303 L437 333 L454 303 " stroke = "#000000" stroke-width = "1" fill = "none" />    <line x1="437" y1="313" x2="437" y2="333" style="stroke:#000000;stroke-width:1" />
    <line x1="437" y1="313" x2="419" y2="303" style="stroke:#000000;stroke-width:1" />
    <line x1="437" y1="313" x2="454" y2="303" style="stroke:#000000;stroke-width:1" />
    <line x1="419" y1="286" x2="350" y2="166" style="stroke:#000000;stroke-width:1" />
    <line x1="350" y1="166" x2="489" y2="166" style="stroke:#000000;stroke-width:1" />
    <line x1="489" y1="166" x2="419" y2="286" style="stroke:#000000;stroke-width:1" />
	<path d = "M437 217 L437 182 L402 182 L402 217 L437 217 Z" stroke = "#000000" stroke-width = "1" fill = "none" />    <line x1="419" y1="200" x2="419" y2="182" style="stroke:#000000;stroke-width:1" />
    <line x1="419" y1="200" x2="434" y2="191" style="stroke:#000000;stroke-width:1" />
    <line x1="419" y1="200" x2="434" y2="208" style="stroke:#000000;stroke-width:1" />
    <line x1="419" y1="200" x2="419" y2="217" style="stroke:#000000;stroke-width:1" />
    <line x1="419" y1="200" x2="405" y2="208" style="stroke:#000000;stroke-width:1" />
<circle cx="419" cy = "200" r = "17.261356071965523" stroke = "#000000" stroke-width = "1" fill = "none" />
<circle cx="415" cy = "192" r = "2.1576695089956903" stroke = "#000000" stroke-width = "1" fill = "none" />
<circle cx="424" cy = "192" r = "2.1576695089956903" stroke = "#000000" stroke-width = "1" fill = "none" />
<circle cx="428" cy = "200" r = "2.1576695089956903" stroke = "#000000" stroke-width = "1" fill = "none" />
<circle cx="424" cy = "207" r = "2.1576695089956903" stroke = "#000000" stroke-width = "1" fill = "none" />
<circle cx="415" cy = "207" r = "2.1576695089956903" stroke = "#000000" stroke-width = "1" fill = "none" />
    <line x1="419" y1="200" x2="405" y2="191" style="stroke:#000000;stroke-width:1" />
<circle cx="411" cy = "200" r = "2.1576695089956903" stroke = "#000000" stroke-width = "1" fill = "none" />
    <line x1="281" y1="126" x2="327" y2="206" style="stroke:#000000;stroke-width:1" />
    <line x1="281" y1="126" x2="373" y2="126" style="stroke:#000000;stroke-width:1" />
    <line x1="327" y1="153" x2="373" y2="126" style="stroke:#000000;stroke-width:1" />
    <line x1="327" y1="153" x2="327" y2="206" style="stroke:#000000;stroke-width:1" />
    <line x1="327" y1="153" x2="343" y2="180" style="stroke:#000000;stroke-width:1" />
    <line x1="327" y1="153" x2="358" y2="153" style="stroke:#000000;stroke-width:1" />
    <line x1="343" y1="162" x2="358" y2="153" style="stroke:#000000;stroke-width:1" />
    <line x1="343" y1="162" x2="343" y2="180" style="stroke:#000000;stroke-width:1" />
    <line x1="343" y1="162" x2="348" y2="171" style="stroke:#000000;stroke-width:1" />
    <line x1="343" y1="162" x2="353" y2="162" style="stroke:#000000;stroke-width:1" />
    <line x1="281" y1="126" x2="350" y2="166" style="stroke:#000000;stroke-width:1" />
    <line x1="5" y1="286" x2="143" y2="185" style="stroke:#000000;stroke-width:1" />
    <line x1="143" y1="185" x2="111" y2="286" style="stroke:#000000;stroke-width:1" />
    <line x1="111" y1="286" x2="196" y2="224" style="stroke:#000000;stroke-width:1" />
    <line x1="196" y1="224" x2="176" y2="286" style="stroke:#000000;stroke-width:1" />
    <line x1="176" y1="286" x2="229" y2="248" style="stroke:#000000;stroke-width:1" />
    <line x1="229" y1="248" x2="216" y2="286" style="stroke:#000000;stroke-width:1" />
    <line x1="216" y1="286" x2="249" y2="262" style="stroke:#000000;stroke-width:1" />
    <line x1="249" y1="262" x2="241" y2="286" style="stroke:#000000;stroke-width:1" />
    <line x1="241" y1="286" x2="261" y2="271" style="stroke:#000000;stroke-width:1" />
    <line x1="261" y1="271" x2="256" y2="286" style="stroke:#000000;stroke-width:1" />
    <line x1="256" y1="286" x2="269" y2="277" style="stroke:#000000;stroke-width:1" />
    <line x1="269" y1="277" x2="266" y2="286" style="stroke:#000000;stroke-width:1" />
    <line x1="266" y1="286" x2="274" y2="280" style="stroke:#000000;stroke-width:1" />
    <line x1="274" y1="280" x2="272" y2="286" style="stroke:#000000;stroke-width:1" />
    <line x1="229" y1="123" x2="196" y2="224" style="stroke:#000000;stroke-width:1" />
    <line x1="196" y1="224" x2="261" y2="224" style="stroke:#000000;stroke-width:1" />
    <line x1="261" y1="224" x2="249" y2="262" style="stroke:#000000;stroke-width:1" />
    <line x1="249" y1="262" x2="274" y2="262" style="stroke:#000000;stroke-width:1" />
    <line x1="274" y1="262" x2="269" y2="277" style="stroke:#000000;stroke-width:1" />
    <line x1="269" y1="277" x2="278" y2="277" style="stroke:#000000;stroke-width:1" />
	<path d = "M154 182 L174 155 L146 134 L126 162 L154 182 Z" stroke = "#000000" stroke-width = "1" fill = "none" />    <line x1="150" y1="158" x2="160" y2="144" style="stroke:#000000;stroke-width:1" />
    <line x1="150" y1="158" x2="166" y2="164" style="stroke:#000000;stroke-width:1" />
    <line x1="150" y1="158" x2="150" y2="176" style="stroke:#000000;stroke-width:1" />
    <line x1="150" y1="158" x2="134" y2="164" style="stroke:#000000;stroke-width:1" />
    <line x1="150" y1="158" x2="140" y2="144" style="stroke:#000000;stroke-width:1" />
<circle cx="150" cy = "158" r = "17.26135607196552" stroke = "#000000" stroke-width = "1" fill = "none" />
<circle cx="158" cy = "156" r = "2.15766950899569" stroke = "#000000" stroke-width = "1" fill = "none" />
<circle cx="155" cy = "165" r = "2.15766950899569" stroke = "#000000" stroke-width = "1" fill = "none" />
<circle cx="145" cy = "165" r = "2.15766950899569" stroke = "#000000" stroke-width = "1" fill = "none" />
<circle cx="142" cy = "156" r = "2.15766950899569" stroke = "#000000" stroke-width = "1" fill = "none" />
<circle cx="150" cy = "150" r = "2.15766950899569" stroke = "#000000" stroke-width = "1" fill = "none" />
	<path d = "M182 203 L202 175 L174 155 L154 182 L182 203 Z" stroke = "#000000" stroke-width = "1" fill = "none" />	<path d = "M182 203 L199 150 L154 182 L182 203 Z" stroke = "#000000" stroke-width = "1" fill = "none" />    <line x1="182" y1="203" x2="171" y2="170" style="stroke:#000000;stroke-width:1" />
    <line x1="171" y1="170" x2="192" y2="170" style="stroke:#000000;stroke-width:1" />
    <line x1="192" y1="170" x2="188" y2="157" style="stroke:#000000;stroke-width:1" />
	<path d = "M281 562 L281 286 L5 286 L5 562 L281 562 Z" stroke = "#ff0000" stroke-width = "1" fill = "none" />    <line x1="281" y1="562" x2="558" y2="562" style="stroke:#ff0000;stroke-width:1" />
    <line x1="558" y1="562" x2="281" y2="286" style="stroke:#ff0000;stroke-width:1" />
    <line x1="281" y1="286" x2="558" y2="286" style="stroke:#ff0000;stroke-width:1" />
    <line x1="558" y1="286" x2="558" y2="445" style="stroke:#ff0000;stroke-width:1" />
    <line x1="558" y1="445" x2="281" y2="286" style="stroke:#ff0000;stroke-width:1" />
    <line x1="281" y1="286" x2="419" y2="47" style="stroke:#ff0000;stroke-width:1" />
    <line x1="419" y1="47" x2="558" y2="286" style="stroke:#ff0000;stroke-width:1" />
    <line x1="419" y1="47" x2="281" y2="126" style="stroke:#ff0000;stroke-width:1" />
    <line x1="281" y1="126" x2="281" y2="286" style="stroke:#ff0000;stroke-width:1" />
    <line x1="5" y1="286" x2="58" y2="123" style="stroke:#ff0000;stroke-width:1" />
    <line x1="58" y1="123" x2="281" y2="286" style="stroke:#ff0000;stroke-width:1" />
    <line x1="58" y1="123" x2="229" y2="123" style="stroke:#ff0000;stroke-width:1" />
    <line x1="229" y1="123" x2="281" y2="286" style="stroke:#ff0000;stroke-width:1" />
</svg>