<svg width="400" height="400" viewbox = "0 0 400 400"  xmlns="http://www.w3.org/2000/svg">
<!--<json>{
  "glyph": "0336,0336,0336,0332,0332,0332,0337,0337,0337,0331,0332,01366,01330,01333,01333,01335,01335,0331,0332,0332,0332,0332,0332,0332,0336,0331,0337,01367,01366,01335,01335,01331,01333,0331,0332,0332,0332,0332,0332,0332,0336,0331,0337,01333,01367,0336,0330,0333,0336,0336,0341,0337,0337,0330,0330,0330,0330,0330,0330,0330,0330,0332,0332,0332,0332,0332,0337,0321,0211,0211,0211,0366,0335,0335,0331,0332,0332,0367,0366,0335,0335,0331,0333,0333,0367,",
  "x0": 120.29122152393572,
  "y0": 139.29337381178016,
  "unit": 51.31581182307066,
  "width": 400,
  "height": 400,
  "style": {
    "color0": "black",
    "fill0": "black",
    "line0": 3,
    "color1": "black",
    "fill1": "black",
    "line1": 5,
    "color2": "red",
    "fill2": "red",
    "line2": 1,
    "color3": "#FF7900",
    "fill3": "#FF7900",
    "line3": 1,
    "color4": "yellow",
    "fill4": "yellow",
    "line4": 1,
    "color5": "green",
    "fill5": "green",
    "line5": 1,
    "color6": "blue",
    "fill6": "blue",
    "line6": 1,
    "color7": "purple",
    "fill7": "purple",
    "line7": 1
  },
  "shapes": [
    "0220:0336,0336,0347,0337,0337,",
    "01220:0333,0200,0336,0330,0332,0220,0331,0333,0337,",
    "0221:0304,0336,0336,0336,0336,0332,0337,0337,0337,0337,0362,0203,0335,0336,0336,0336,0203,0335,0337,0337,0337,0203,0335,0336,0336,0336,0203,0363,0335,0336,0333,0337,0337,0337,0337,0330,0306,",
    "01221:0333,0200,0336,0332,0336,0337,0306,0334,0201,0335,0201,0335,0201,0335,0201,0335,0201,0335,0201,0335,0330,0335,0221,0331,0334,0331,0335,0304,0333,0337,",
    "0222:0304,0336,0336,0336,0336,0332,0337,0337,0337,0337,0312,0337,0362,0203,0335,0336,0313,0336,0336,0336,0203,0335,0337,0337,0337,0312,0337,0203,0335,0336,0313,0336,0336,0336,0203,0363,0335,0336,0333,0337,0337,0337,0337,0306,",
    "01222:0333,0200,0336,0332,0306,0334,0201,0335,0201,0335,0201,0335,0201,0335,0201,0335,0201,0331,0350,0335,0222,0350,0332,0335,0335,0335,0304,0333,0337,",
    "0223:0304,0336,0336,0336,0336,0332,0337,0337,0337,0337,0362,0203,0203,0335,0336,0336,0336,0203,0335,0337,0337,0337,0203,0203,0335,0336,0336,0336,0203,0363,0335,0336,0333,0337,0337,0337,0337,0306,",
    "01223:0333,0200,0336,0332,0306,0334,0201,0335,0201,0335,0201,0335,0201,0335,0201,0335,0201,0335,0335,0223,0304,0333,0337,",
    "0224:0304,0336,0336,0336,0336,0332,0337,0337,0337,0337,0362,0203,0335,0336,0336,0336,0203,0335,0337,0337,0337,0203,0335,0336,0336,0336,0203,0363,0335,0336,0333,0337,0337,0337,0337,0330,0305,",
    "01224:0333,0200,0336,0330,0332,0336,0331,0332,0224,0335,0224,0335,0224,0335,0224,0335,0224,0335,0304,0331,0333,0333,0333,0337,0337,",
    "0225:0304,0334,0336,0336,0336,0336,0362,0203,0335,0337,0337,0337,0337,0311,0337,0203,0335,0336,0313,0336,0336,0336,0203,0335,0337,0337,0337,0311,0337,0203,0336,0313,0336,0335,0336,0336,0336,0203,0363,0335,0337,0337,0337,0337,0305,0311,0337,0330,0336,0313,",
    "01225:0333,0200,0336,0330,0332,0336,0331,0332,0224,0335,0224,0335,0224,0335,0224,0335,0224,0335,0335,0225,0350,0334,0331,0334,0334,0334,0330,0335,0335,0313,0304,0331,0332,0337,0337,0333,",
    "0226:0336,0330,0337,0336,0341,0332,0336,0350,0335,0342,0335,0335,0342,0335,0335,0342,0335,0335,0342,0335,0304,0337,0337,0333,0336,0336,0350,0335,0342,0335,0335,0342,0335,0335,0342,0335,0335,0342,0335,0304,0337,0332,0330,0337,",
    "01226:0333,0200,0336,0332,0336,0330,0337,0226,0331,0333,0336,0331,0337,0337,",
    "0227:0335,0312,0336,0306,0201,0334,0334,0313,0337,0201,0334,0334,0201,0334,0334,0336,0201,0304,0334,0312,0337,0313,0330,",
    "01227:0333,0200,0336,0332,0336,0330,0337,0227,0331,0336,0331,0337,0333,0337,",
    "0230:0336,0336,0201,0334,0201,0335,0201,0335,0201,0201,0335,0201,0335,0201,0335,0330,0334,0330,0335,0201,0335,0201,0201,0335,0201,0335,0335,0330,0332,0201,0337,0337,",
    "01230:0333,0200,0336,0332,0337,0230,0336,0333,0337,0331,",
    "0231:0336,0336,0336,0336,0347,0337,0337,0337,0337,",
    "01231:0333,0200,0336,0332,0337,0342,0336,0330,0335,0342,0335,0342,0335,0342,0335,0337,0231,0336,0333,0331,0337,",
    "0232:0336,0201,0336,0336,0330,0341,0331,0337,0337,0331,0337,",
    "01232:0333,0200,0336,0330,0332,0336,0331,0337,0232,0333,0336,0331,0337,0337,",
    "0233:0342,0336,0330,0336,0336,0331,0334,0306,0362,0203,0335,0335,0203,0203,0335,0335,0203,0203,0335,0335,0203,0363,0330,0335,0335,0330,0330,0335,0331,0337,0342,0336,0330,0334,0337,0331,0336,0333,0335,0304,0334,0331,0331,0331,0337,0337,0337,0330,",
    "01233:0333,0200,0336,0330,0332,0336,0331,0337,0233,0331,0336,0333,0333,0331,0337,0337,",
    "0234:0201,0336,0331,0350,0335,0336,0331,0337,0342,0336,0330,0334,0334,0331,0337,0342,0336,0330,0335,0337,0331,0304,0337,0330,",
    "01234:0333,0200,0336,0330,0332,0336,0331,0333,0332,0337,0234,0333,0331,0336,0331,0337,0337,",
    "0235:0331,0221,0333,0335,0335,0221,0335,0335,0330,",
    "01235:0333,0200,0336,0330,0332,0336,0332,0330,0337,0235,0331,0336,0333,0331,0337,0337,",
    "0236:0201,0336,0336,0334,0306,0362,0336,0203,0335,0335,0203,0203,0335,0335,0203,0203,0335,0335,0203,0363,0304,0335,0337,0337,0337,0331,",
    "01236:0333,0200,0336,0330,0332,0336,0331,0337,0236,0336,0333,0331,0333,0337,0337,",
    "0237:0304,0336,0336,0336,0332,0337,0337,0337,0342,0336,0336,0333,0337,0337,0342,0330,0336,0336,0336,0332,0337,0337,0337,0220,0306,",
    "01237:0333,0200,0336,0330,0332,0336,0220,0237,0304,0333,0333,0330,0337,0337,0331,"
  ]
}</json>-->	<path d = "M101 191 L101 139 L50 139 L50 191 L101 191 Z" stroke = "#000000" stroke-width = "3" fill = "none" />    <line x1="63" y1="178" x2="88" y2="178" style="stroke:#000000;stroke-width:3" />
<circle cx="63" cy = "178" r = "3" stroke = "#000000" stroke-width = "3" fill = "#000000" />
<path    d = "M63,178 C88,178 63,152 88,152" fill = "none" stroke-width = "3" stroke = "#000000" />	<path d = "M152 191 L152 139 L101 139 L101 191 L152 191 Z" stroke = "#000000" stroke-width = "3" fill = "none" />	<path d = "M133 178 L120 178 L120 165 L114 165 L120 159 L127 152 L133 159 L140 165 L133 165 L133 178 Z" stroke = "#000000" stroke-width = "3" fill = "none" />	<path d = "M204 191 L204 139 L152 139 L152 191 L204 191 Z" stroke = "#000000" stroke-width = "3" fill = "none" />	<path d = "M165 171 L165 159 L178 159 L178 152 L184 159 L191 165 L184 171 L178 178 L178 171 L165 171 Z" stroke = "#000000" stroke-width = "3" fill = "none" />	<path d = "M255 191 L255 139 L204 139 L204 191 L255 191 Z" stroke = "#000000" stroke-width = "3" fill = "none" />	<path d = "M217 171 L217 159 L229 159 L229 152 L236 159 L242 165 L236 171 L229 178 L229 171 L217 171 Z" stroke = "#000000" stroke-width = "3" fill = "none" />	<path d = "M306 191 L306 139 L255 139 L255 191 L306 191 Z" stroke = "#000000" stroke-width = "3" fill = "none" />  <path d="M289.72457310157813 174.022719353862           A12.828952955767667 12.828952955767667 0 0 1 271.58169384048506 174.02271935386202" fill = "none" stroke = "#000000" stroke-width = "3" />
  <path d="M271.58169384048506 174.02271935386202           A12.828952955767667 12.828952955767667 0 0 1 271.58169384048506 155.87984009276894" fill = "none" stroke = "#000000" stroke-width = "3" />
  <path d="M271.58169384048506 155.87984009276894           A12.828952955767667 12.828952955767667 0 0 1 289.72457310157813 155.87984009276897" fill = "none" stroke = "#000000" stroke-width = "3" />
	<path d = "M278 161 L290 156 L285 144 " stroke = "#000000" stroke-width = "3" fill = "none" />	<path d = "M358 191 L358 139 L306 139 L306 191 L358 191 Z" stroke = "#000000" stroke-width = "3" fill = "none" />  <path d="M341.0403849246488 174.02271935386216           A12.828952955767667 12.828952955767667 0 0 1 322.89750566355576 174.02271935386213" fill = "none" stroke = "#000000" stroke-width = "3" />
  <path d="M322.89750566355576 174.02271935386213           A12.828952955767667 12.828952955767667 0 0 1 322.8975056635558 155.87984009276906" fill = "none" stroke = "#000000" stroke-width = "3" />
  <path d="M322.8975056635558 155.87984009276906           A12.828952955767667 12.828952955767667 0 0 1 341.0403849246489 155.87984009276914" fill = "none" stroke = "#000000" stroke-width = "3" />
	<path d = "M329 161 L341 156 L336 144 " stroke = "#000000" stroke-width = "3" fill = "none" />	<path d = "M101 268 L101 216 L50 216 L50 268 L101 268 Z" stroke = "#000000" stroke-width = "3" fill = "none" /><path    d = "M63,255 C88,255 63,229 88,229" fill = "none" stroke-width = "3" stroke = "#000000" /><circle cx="88" cy = "229" r = "3" stroke = "#000000" stroke-width = "3" fill = "#000000" />
    <line x1="88" y1="229" x2="63" y2="229" style="stroke:#000000;stroke-width:3" />
	<path d = "M152 268 L152 216 L101 216 L101 268 L152 268 Z" stroke = "#000000" stroke-width = "3" fill = "none" />    <line x1="114" y1="255" x2="140" y2="255" style="stroke:#000000;stroke-width:3" />
<circle cx="114" cy = "255" r = "3" stroke = "#000000" stroke-width = "3" fill = "#000000" />
<path    d = "M114,255 C140,255 114,229 140,229" fill = "none" stroke-width = "3" stroke = "#000000" />	<path d = "M204 268 L204 216 L152 216 L152 268 L204 268 Z" stroke = "#000000" stroke-width = "3" fill = "none" />  <path d="M187.09294945543624 250.99643708846693           A12.828952955767667 12.828952955767667 0 0 1 168.95007019434323 250.99643708846682" fill = "none" stroke = "#000000" stroke-width = "3" />
  <path d="M168.95007019434323 250.99643708846682           A12.828952955767667 12.828952955767667 0 0 1 168.95007019434334 232.85355782737375" fill = "none" stroke = "#000000" stroke-width = "3" />
  <path d="M168.95007019434334 232.85355782737375           A12.828952955767667 12.828952955767667 0 0 1 187.09294945543638 232.85355782737392" fill = "none" stroke = "#000000" stroke-width = "3" />
	<path d = "M175 238 L187 233 L182 221 " stroke = "#000000" stroke-width = "3" fill = "none" />	<path d = "M255 268 L255 216 L204 216 L204 268 L255 268 Z" stroke = "#000000" stroke-width = "3" fill = "none" />  <path d="M238.40876127850683 250.99643708846742           A12.828952955767667 12.828952955767667 0 0 1 220.26588201741382 250.99643708846722" fill = "none" stroke = "#000000" stroke-width = "3" />
  <path d="M220.26588201741382 250.99643708846722           A12.828952955767667 12.828952955767667 0 0 1 220.265882017414 232.85355782737417" fill = "none" stroke = "#000000" stroke-width = "3" />
  <path d="M220.265882017414 232.85355782737417           A12.828952955767667 12.828952955767667 0 0 1 238.40876127850703 232.8535578273744" fill = "none" stroke = "#000000" stroke-width = "3" />
	<path d = "M227 238 L238 233 L233 221 " stroke = "#000000" stroke-width = "3" fill = "none" />	<path d = "M306 268 L306 216 L255 216 L255 268 L306 268 Z" stroke = "#000000" stroke-width = "3" fill = "none" />	<path d = "M274 229 L287 229 L287 242 L293 242 L287 248 L281 255 L274 248 L268 242 L274 242 L274 229 Z" stroke = "#000000" stroke-width = "3" fill = "none" />	<path d = "M358 268 L358 216 L306 216 L306 268 L358 268 Z" stroke = "#000000" stroke-width = "3" fill = "none" />	<path d = "M319 248 L319 236 L332 236 L332 229 L338 236 L345 242 L338 248 L332 255 L332 248 L319 248 Z" stroke = "#000000" stroke-width = "3" fill = "none" />	<path d = "M101 345 L101 293 L50 293 L50 345 L101 345 Z" stroke = "#000000" stroke-width = "3" fill = "none" />	<path d = "M63 325 L63 312 L75 312 L75 306 L82 312 L88 319 L82 325 L75 332 L75 325 L63 325 Z" stroke = "#000000" stroke-width = "3" fill = "none" />	<path d = "M152 345 L152 293 L101 293 L101 345 L152 345 Z" stroke = "#000000" stroke-width = "3" fill = "none" /><path    d = "M114,332 C140,332 114,306 140,306" fill = "none" stroke-width = "3" stroke = "#000000" /><circle cx="140" cy = "306" r = "3" stroke = "#000000" stroke-width = "3" fill = "#000000" />
    <line x1="140" y1="306" x2="114" y2="306" style="stroke:#000000;stroke-width:3" />
<circle cx="178" cy = "319" r = "6.4144764778838335" stroke = "#000000" stroke-width = "3" fill = "none" />
<path    d = "M50,114 C50,37 203,114 203,37" fill = "none" stroke-width = "5" stroke = "#000000" /><path    d = "M203,37 C203,114 357,37 357,114" fill = "none" stroke-width = "5" stroke = "#000000" /></svg>