<svg width="400" height="170" viewbox = "0 0 400 170"  xmlns="http://www.w3.org/2000/svg">
<!--<json>{
  "glyph": "0336,0336,0332,0332,0332,0332,0332,0337,0337,01320,01321,01322,01323,01324,01325,01326,01327,0331,0332,0332,0332,0332,0332,0332,0332,0336,0330,0333,0336,0336,0331,0332,0332,0332,0332,0332,0332,0332,0332,0332,0337,0337,0176,0365,0333,0333,041,0365,0333,0333,0100,0365,0333,0333,043,0365,0333,0333,044,0365,0333,0333,045,0365,0333,0333,0136,0365,0333,0333,046,0365,",
  "x0": 68.85978816225563,
  "y0": 94.72665996689359,
  "unit": 46.65073802097332,
  "width": 400,
  "height": 170,
  "style": {
    "color0": "black",
    "fill0": "black",
    "line0": 3,
    "color1": "black",
    "fill1": "black",
    "line1": 5,
    "color2": "red",
    "fill2": "red",
    "line2": 1,
    "color3": "#FF7900",
    "fill3": "#FF7900",
    "line3": 1,
    "color4": "yellow",
    "fill4": "yellow",
    "line4": 1,
    "color5": "green",
    "fill5": "green",
    "line5": 1,
    "color6": "blue",
    "fill6": "blue",
    "line6": 1,
    "color7": "purple",
    "fill7": "purple",
    "line7": 1
  },
  "shapes": [
    "0220:0342,0335,0342,0335,0335,0342,0335,0336,0330,0340,0331,0337,0337,0330,0340,0331,0336,",
    "01220:0333,0200,0336,0330,0332,0220,0331,0333,0337,",
    "0221:0342,0316,0336,0313,0336,0333,0342,0333,0342,0333,0342,0333,0342,0333,0337,0342,0336,0333,0342,0333,0342,0333,0342,0333,0342,0333,0337,0316,0337,0342,0334,0342,0335,",
    "01221:0333,0200,0332,0221,0313,",
    "0222:0333,0221,0221,0221,0221,0334,0221,0334,0221,0221,0221,0221,0334,0221,0335,0335,0335,0333,0334,0221,0335,0335,0221,0330,0334,0334,0221,0335,0335,0221,0330,0334,0334,0221,0335,0335,0221,0334,0332,0332,0332,0334,0221,0334,0221,0334,0221,0334,0221,0332,",
    "01222:0333,0200,0336,0332,0330,0332,0336,0222,0313,0331,0331,0333,0333,0333,0333,0337,0337,",
    "0223:0304,0336,0336,0336,0336,0332,0337,0337,0337,0337,0362,0203,0203,0335,0336,0336,0336,0203,0335,0337,0337,0337,0203,0203,0335,0336,0336,0336,0203,0363,0335,0336,0333,0337,0337,0337,0337,0306,",
    "01223:0333,0200,0336,0332,0306,0334,0201,0335,0201,0335,0201,0335,0201,0335,0201,0335,0201,0335,0335,0223,0304,0333,0337,",
    "0224:0304,0336,0336,0336,0336,0332,0337,0337,0337,0337,0362,0203,0335,0336,0336,0336,0203,0335,0337,0337,0337,0203,0335,0336,0336,0336,0203,0363,0335,0336,0333,0337,0337,0337,0337,0330,0305,",
    "01224:0333,0200,0336,0330,0332,0336,0331,0332,0224,0335,0224,0335,0224,0335,0224,0335,0224,0335,0304,0331,0333,0333,0333,0337,0337,",
    "0225:0304,0334,0336,0336,0336,0336,0362,0203,0335,0337,0337,0337,0337,0311,0337,0203,0335,0336,0313,0336,0336,0336,0203,0335,0337,0337,0337,0311,0337,0203,0336,0313,0336,0335,0336,0336,0336,0203,0363,0335,0337,0337,0337,0337,0305,0311,0337,0330,0336,0313,",
    "01225:0333,0200,0336,0330,0332,0336,0331,0332,0224,0335,0224,0335,0224,0335,0224,0335,0224,0335,0335,0225,0350,0334,0331,0334,0334,0334,0330,0335,0335,0313,0304,0331,0332,0337,0337,0333,",
    "0226:0336,0330,0337,0336,0341,0332,0336,0350,0335,0342,0335,0335,0342,0335,0335,0342,0335,0335,0342,0335,0304,0337,0337,0333,0336,0336,0350,0335,0342,0335,0335,0342,0335,0335,0342,0335,0335,0342,0335,0304,0337,0332,0330,0337,",
    "01226:0333,0200,0336,0332,0336,0330,0337,0226,0331,0333,0336,0331,0337,0337,",
    "0227:0335,0312,0336,0306,0201,0334,0334,0313,0337,0201,0334,0334,0201,0334,0334,0336,0201,0304,0334,0312,0337,0313,0330,",
    "01227:0333,0200,0336,0332,0336,0330,0337,0227,0331,0336,0331,0337,0333,0337,",
    "0230:0336,0336,0201,0334,0201,0335,0201,0335,0201,0201,0335,0201,0335,0201,0335,0330,0334,0330,0335,0201,0335,0201,0201,0335,0201,0335,0335,0330,0332,0201,0337,0337,",
    "01230:0333,0200,0336,0332,0337,0230,0336,0333,0337,0331,",
    "0231:0336,0336,0336,0336,0347,0337,0337,0337,0337,",
    "01231:0333,0200,0336,0332,0337,0342,0336,0330,0335,0342,0335,0342,0335,0342,0335,0337,0231,0336,0333,0331,0337,",
    "0232:0336,0201,0336,0336,0330,0341,0331,0337,0337,0331,0337,",
    "01232:0333,0200,0336,0330,0332,0336,0331,0337,0232,0333,0336,0331,0337,0337,",
    "0233:0342,0336,0330,0336,0336,0331,0334,0306,0362,0203,0335,0335,0203,0203,0335,0335,0203,0203,0335,0335,0203,0363,0330,0335,0335,0330,0330,0335,0331,0337,0342,0336,0330,0334,0337,0331,0336,0333,0335,0304,0334,0331,0331,0331,0337,0337,0337,0330,",
    "01233:0333,0200,0336,0330,0332,0336,0331,0337,0233,0331,0336,0333,0333,0331,0337,0337,",
    "0234:0201,0336,0331,0350,0335,0336,0331,0337,0342,0336,0330,0334,0334,0331,0337,0342,0336,0330,0335,0337,0331,0304,0337,0330,",
    "01234:0333,0200,0336,0330,0332,0336,0331,0333,0332,0337,0234,0333,0331,0336,0331,0337,0337,",
    "0235:0331,0221,0333,0335,0335,0221,0335,0335,0330,",
    "01235:0333,0200,0336,0330,0332,0336,0332,0330,0337,0235,0331,0336,0333,0331,0337,0337,",
    "0236:0201,0336,0336,0334,0306,0362,0336,0203,0335,0335,0203,0203,0335,0335,0203,0203,0335,0335,0203,0363,0304,0335,0337,0337,0337,0331,",
    "01236:0333,0200,0336,0330,0332,0336,0331,0337,0236,0336,0333,0331,0333,0337,0337,",
    "0237:0304,0336,0336,0336,0332,0337,0337,0337,0342,0336,0336,0333,0337,0337,0342,0330,0336,0336,0336,0332,0337,0337,0337,0220,0306,",
    "01237:0333,0200,0336,0330,0332,0336,0220,0237,0304,0333,0333,0330,0337,0337,0331,"
  ]
}</json>-->	<path d = "M57 95 L57 48 L11 48 L11 95 L57 95 Z" stroke = "#000000" stroke-width = "3" fill = "none" />	<path d = "M46 83 L46 60 L22 60 L22 83 L46 83 Z" stroke = "#000000" stroke-width = "3" fill = "#000000" />    <line x1="46" y1="89" x2="22" y2="89" style="stroke:#000000;stroke-width:3" />
	<path d = "M104 95 L104 48 L57 48 L57 95 L104 95 Z" stroke = "#000000" stroke-width = "3" fill = "none" />	<path d = "M92 83 L92 60 L69 60 L69 83 L92 83 Z" stroke = "#000000" stroke-width = "5" fill = "#000000" />    <line x1="92" y1="89" x2="69" y2="89" style="stroke:#000000;stroke-width:5" />
    <line x1="63" y1="48" x2="63" y2="54" style="stroke:#000000;stroke-width:3" />
	<path d = "M150 95 L150 48 L104 48 L104 95 L150 95 Z" stroke = "#000000" stroke-width = "3" fill = "none" />	<path d = "M139 83 L139 60 L116 60 L116 83 L139 83 Z" stroke = "#ff0000" stroke-width = "1" fill = "#ff0000" />    <line x1="139" y1="89" x2="116" y2="89" style="stroke:#ff0000;stroke-width:1" />
    <line x1="110" y1="48" x2="110" y2="54" style="stroke:#000000;stroke-width:3" />
    <line x1="116" y1="48" x2="116" y2="54" style="stroke:#000000;stroke-width:3" />
	<path d = "M197 95 L197 48 L150 48 L150 95 L197 95 Z" stroke = "#000000" stroke-width = "3" fill = "none" />	<path d = "M185 83 L185 60 L162 60 L162 83 L185 83 Z" stroke = "#ff7900" stroke-width = "1" fill = "#ff7900" />    <line x1="185" y1="89" x2="162" y2="89" style="stroke:#ff7900;stroke-width:1" />
    <line x1="156" y1="48" x2="156" y2="54" style="stroke:#000000;stroke-width:3" />
    <line x1="162" y1="48" x2="162" y2="54" style="stroke:#000000;stroke-width:3" />
    <line x1="168" y1="48" x2="168" y2="54" style="stroke:#000000;stroke-width:3" />
	<path d = "M244 95 L244 48 L197 48 L197 95 L244 95 Z" stroke = "#000000" stroke-width = "3" fill = "none" />	<path d = "M232 83 L232 60 L209 60 L209 83 L232 83 Z" stroke = "#ffff00" stroke-width = "1" fill = "#ffff00" />    <line x1="232" y1="89" x2="209" y2="89" style="stroke:#ffff00;stroke-width:1" />
    <line x1="203" y1="48" x2="203" y2="54" style="stroke:#000000;stroke-width:3" />
    <line x1="209" y1="48" x2="209" y2="54" style="stroke:#000000;stroke-width:3" />
    <line x1="215" y1="48" x2="215" y2="54" style="stroke:#000000;stroke-width:3" />
    <line x1="220" y1="48" x2="220" y2="54" style="stroke:#000000;stroke-width:3" />
	<path d = "M290 95 L290 48 L244 48 L244 95 L290 95 Z" stroke = "#000000" stroke-width = "3" fill = "none" />	<path d = "M279 83 L279 60 L255 60 L255 83 L279 83 Z" stroke = "#008000" stroke-width = "1" fill = "#008000" />    <line x1="279" y1="89" x2="255" y2="89" style="stroke:#008000;stroke-width:1" />
    <line x1="250" y1="48" x2="250" y2="54" style="stroke:#000000;stroke-width:3" />
    <line x1="255" y1="48" x2="255" y2="54" style="stroke:#000000;stroke-width:3" />
    <line x1="261" y1="48" x2="261" y2="54" style="stroke:#000000;stroke-width:3" />
    <line x1="267" y1="48" x2="267" y2="54" style="stroke:#000000;stroke-width:3" />
    <line x1="273" y1="48" x2="273" y2="54" style="stroke:#000000;stroke-width:3" />
	<path d = "M337 95 L337 48 L290 48 L290 95 L337 95 Z" stroke = "#000000" stroke-width = "3" fill = "none" />	<path d = "M325 83 L325 60 L302 60 L302 83 L325 83 Z" stroke = "#0000ff" stroke-width = "1" fill = "#0000ff" />    <line x1="325" y1="89" x2="302" y2="89" style="stroke:#0000ff;stroke-width:1" />
    <line x1="296" y1="48" x2="296" y2="54" style="stroke:#000000;stroke-width:3" />
    <line x1="302" y1="48" x2="302" y2="54" style="stroke:#000000;stroke-width:3" />
    <line x1="308" y1="48" x2="308" y2="54" style="stroke:#000000;stroke-width:3" />
    <line x1="314" y1="48" x2="314" y2="54" style="stroke:#000000;stroke-width:3" />
    <line x1="320" y1="48" x2="320" y2="54" style="stroke:#000000;stroke-width:3" />
    <line x1="325" y1="48" x2="325" y2="54" style="stroke:#000000;stroke-width:3" />
	<path d = "M384 95 L384 48 L337 48 L337 95 L384 95 Z" stroke = "#000000" stroke-width = "3" fill = "none" />	<path d = "M372 83 L372 60 L349 60 L349 83 L372 83 Z" stroke = "#800080" stroke-width = "1" fill = "#800080" />    <line x1="372" y1="89" x2="349" y2="89" style="stroke:#800080;stroke-width:1" />
    <line x1="343" y1="48" x2="343" y2="54" style="stroke:#000000;stroke-width:3" />
    <line x1="349" y1="48" x2="349" y2="54" style="stroke:#000000;stroke-width:3" />
    <line x1="355" y1="48" x2="355" y2="54" style="stroke:#000000;stroke-width:3" />
    <line x1="360" y1="48" x2="360" y2="54" style="stroke:#000000;stroke-width:3" />
    <line x1="366" y1="48" x2="366" y2="54" style="stroke:#000000;stroke-width:3" />
    <line x1="372" y1="48" x2="372" y2="54" style="stroke:#000000;stroke-width:3" />
    <line x1="378" y1="48" x2="378" y2="54" style="stroke:#000000;stroke-width:3" />
    <text x="28" y = "124" fill = "#000000" font-size = "23.32536901048666px" font-family = "Arial">~</text>
    <text x="75" y = "124" fill = "#000000" font-size = "23.32536901048666px" font-family = "Arial">!</text>
    <text x="121" y = "124" fill = "#000000" font-size = "23.32536901048666px" font-family = "Arial">@</text>
    <text x="168" y = "124" fill = "#000000" font-size = "23.32536901048666px" font-family = "Arial">#</text>
    <text x="215" y = "124" fill = "#000000" font-size = "23.32536901048666px" font-family = "Arial">$</text>
    <text x="261" y = "124" fill = "#000000" font-size = "23.32536901048666px" font-family = "Arial">%</text>
    <text x="308" y = "124" fill = "#000000" font-size = "23.32536901048666px" font-family = "Arial">^</text>
    <text x="355" y = "124" fill = "#000000" font-size = "23.32536901048666px" font-family = "Arial">&amp;</text>
</svg>