<svg width="400" height="170" viewbox = "0 0 400 170"  xmlns="http://www.w3.org/2000/svg">
<!--<json>{
  "glyph": "0336,0336,0332,0337,0337,01330,01331,01332,01333,01334,01335,01336,01337,0331,0332,0332,0332,0332,0332,0332,0332,0332,0336,0330,0333,0336,0336,0332,0337,0337,0141,0365,0333,0333,0163,0365,0333,0333,0144,0365,0333,0333,0146,0365,0333,0333,0147,0365,0333,0333,0150,0365,0333,0333,0152,0365,0333,0333,0153,0365,",
  "x0": 23.405242707710187,
  "y0": 94.72665996689359,
  "unit": 46.65073802097332,
  "width": 400,
  "height": 170,
  "style": {
    "color0": "black",
    "fill0": "black",
    "line0": 3,
    "color1": "black",
    "fill1": "black",
    "line1": 5,
    "color2": "red",
    "fill2": "red",
    "line2": 1,
    "color3": "#FF7900",
    "fill3": "#FF7900",
    "line3": 1,
    "color4": "yellow",
    "fill4": "yellow",
    "line4": 1,
    "color5": "green",
    "fill5": "green",
    "line5": 1,
    "color6": "blue",
    "fill6": "blue",
    "line6": 1,
    "color7": "purple",
    "fill7": "purple",
    "line7": 1
  },
  "shapes": [
    "0220:0342,0335,0342,0335,0335,0342,0335,0336,0330,0340,0331,0337,0337,0330,0340,0331,0336,",
    "01220:0333,0200,0336,0330,0332,0220,0331,0333,0337,",
    "0221:0342,0316,0336,0313,0336,0333,0342,0333,0342,0333,0342,0333,0342,0333,0337,0342,0336,0333,0342,0333,0342,0333,0342,0333,0342,0333,0337,0316,0337,0342,0334,0342,0335,",
    "01221:0333,0200,0332,0221,0313,",
    "0222:0333,0221,0221,0221,0221,0334,0221,0334,0221,0221,0221,0221,0334,0221,0335,0335,0335,0333,0334,0221,0335,0335,0221,0330,0334,0334,0221,0335,0335,0221,0330,0334,0334,0221,0335,0335,0221,0334,0332,0332,0332,0334,0221,0334,0221,0334,0221,0334,0221,0332,",
    "01222:0333,0200,0336,0332,0330,0332,0336,0222,0313,0331,0331,0333,0333,0333,0333,0337,0337,",
    "0223:0304,0336,0336,0336,0336,0332,0337,0337,0337,0337,0362,0203,0203,0335,0336,0336,0336,0203,0335,0337,0337,0337,0203,0203,0335,0336,0336,0336,0203,0363,0335,0336,0333,0337,0337,0337,0337,0306,",
    "01223:0333,0200,0336,0332,0306,0334,0201,0335,0201,0335,0201,0335,0201,0335,0201,0335,0201,0335,0335,0223,0304,0333,0337,",
    "0224:0304,0336,0336,0336,0336,0332,0337,0337,0337,0337,0362,0203,0335,0336,0336,0336,0203,0335,0337,0337,0337,0203,0335,0336,0336,0336,0203,0363,0335,0336,0333,0337,0337,0337,0337,0330,0305,",
    "01224:0333,0200,0336,0330,0332,0336,0331,0332,0224,0335,0224,0335,0224,0335,0224,0335,0224,0335,0304,0331,0333,0333,0333,0337,0337,",
    "0225:0304,0334,0336,0336,0336,0336,0362,0203,0335,0337,0337,0337,0337,0311,0337,0203,0335,0336,0313,0336,0336,0336,0203,0335,0337,0337,0337,0311,0337,0203,0336,0313,0336,0335,0336,0336,0336,0203,0363,0335,0337,0337,0337,0337,0305,0311,0337,0330,0336,0313,",
    "01225:0333,0200,0336,0330,0332,0336,0331,0332,0224,0335,0224,0335,0224,0335,0224,0335,0224,0335,0335,0225,0350,0334,0331,0334,0334,0334,0330,0335,0335,0313,0304,0331,0332,0337,0337,0333,",
    "0226:0336,0330,0337,0336,0341,0332,0336,0350,0335,0342,0335,0335,0342,0335,0335,0342,0335,0335,0342,0335,0304,0337,0337,0333,0336,0336,0350,0335,0342,0335,0335,0342,0335,0335,0342,0335,0335,0342,0335,0304,0337,0332,0330,0337,",
    "01226:0333,0200,0336,0332,0336,0330,0337,0226,0331,0333,0336,0331,0337,0337,",
    "0227:0335,0312,0336,0306,0201,0334,0334,0313,0337,0201,0334,0334,0201,0334,0334,0336,0201,0304,0334,0312,0337,0313,0330,",
    "01227:0333,0200,0336,0332,0336,0330,0337,0227,0331,0336,0331,0337,0333,0337,",
    "0230:0336,0336,0201,0334,0201,0335,0201,0335,0201,0201,0335,0201,0335,0201,0335,0330,0334,0330,0335,0201,0335,0201,0201,0335,0201,0335,0335,0330,0332,0201,0337,0337,",
    "01230:0333,0200,0336,0332,0337,0230,0336,0333,0337,0331,",
    "0231:0336,0336,0336,0336,0347,0337,0337,0337,0337,",
    "01231:0333,0200,0336,0332,0337,0342,0336,0330,0335,0342,0335,0342,0335,0342,0335,0337,0231,0336,0333,0331,0337,",
    "0232:0336,0201,0336,0336,0330,0341,0331,0337,0337,0331,0337,",
    "01232:0333,0200,0336,0330,0332,0336,0331,0337,0232,0333,0336,0331,0337,0337,",
    "0233:0342,0336,0330,0336,0336,0331,0334,0306,0362,0203,0335,0335,0203,0203,0335,0335,0203,0203,0335,0335,0203,0363,0330,0335,0335,0330,0330,0335,0331,0337,0342,0336,0330,0334,0337,0331,0336,0333,0335,0304,0334,0331,0331,0331,0337,0337,0337,0330,",
    "01233:0333,0200,0336,0330,0332,0336,0331,0337,0233,0331,0336,0333,0333,0331,0337,0337,",
    "0234:0201,0336,0331,0350,0335,0336,0331,0337,0342,0336,0330,0334,0334,0331,0337,0342,0336,0330,0335,0337,0331,0304,0337,0330,",
    "01234:0333,0200,0336,0330,0332,0336,0331,0333,0332,0337,0234,0333,0331,0336,0331,0337,0337,",
    "0235:0331,0221,0333,0335,0335,0221,0335,0335,0330,",
    "01235:0333,0200,0336,0330,0332,0336,0332,0330,0337,0235,0331,0336,0333,0331,0337,0337,",
    "0236:0201,0336,0336,0334,0306,0362,0336,0203,0335,0335,0203,0203,0335,0335,0203,0203,0335,0335,0203,0363,0304,0335,0337,0337,0337,0331,",
    "01236:0333,0200,0336,0330,0332,0336,0331,0337,0236,0336,0333,0331,0333,0337,0337,",
    "0237:0304,0336,0336,0336,0332,0337,0337,0337,0342,0336,0336,0333,0337,0337,0342,0330,0336,0336,0336,0332,0337,0337,0337,0220,0306,",
    "01237:0333,0200,0336,0330,0332,0336,0220,0237,0304,0333,0333,0330,0337,0337,0331,"
  ]
}</json>-->	<path d = "M58 95 L58 48 L12 48 L12 95 L58 95 Z" stroke = "#000000" stroke-width = "3" fill = "none" />	<path d = "M41 83 L29 83 L29 71 L23 71 L29 66 L35 60 L41 66 L47 71 L41 71 L41 83 Z" stroke = "#000000" stroke-width = "3" fill = "none" />	<path d = "M105 95 L105 48 L58 48 L58 95 L105 95 Z" stroke = "#000000" stroke-width = "3" fill = "none" />	<path d = "M76 60 L88 60 L88 71 L93 71 L88 77 L82 83 L76 77 L70 71 L76 71 L76 60 Z" stroke = "#000000" stroke-width = "3" fill = "none" />	<path d = "M152 95 L152 48 L105 48 L105 95 L152 95 Z" stroke = "#000000" stroke-width = "3" fill = "none" />	<path d = "M140 66 L140 77 L128 77 L128 83 L123 77 L117 71 L123 66 L128 60 L128 66 L140 66 Z" stroke = "#000000" stroke-width = "3" fill = "none" />	<path d = "M198 95 L198 48 L152 48 L152 95 L198 95 Z" stroke = "#000000" stroke-width = "3" fill = "none" />	<path d = "M163 77 L163 66 L175 66 L175 60 L181 66 L187 71 L181 77 L175 83 L175 77 L163 77 Z" stroke = "#000000" stroke-width = "3" fill = "none" />	<path d = "M245 95 L245 48 L198 48 L198 95 L245 95 Z" stroke = "#000000" stroke-width = "3" fill = "none" />  <path d="M213.42411599635008 63.154527655910094           A11.66268450524334 11.66268450524334 0 0 1 229.9176425973438 63.15452765591006" fill = "none" stroke = "#000000" stroke-width = "3" />
  <path d="M213.42411599635014 79.64805425690379           A11.66268450524334 11.66268450524334 0 0 1 213.42411599635008 63.154527655910094" fill = "none" stroke = "#000000" stroke-width = "3" />
  <path d="M229.91764259734384 79.6480542569037           A11.66268450524334 11.66268450524334 0 0 1 213.42411599635014 79.64805425690379" fill = "none" stroke = "#000000" stroke-width = "3" />
	<path d = "M225 90 L230 80 L219 75 " stroke = "#000000" stroke-width = "3" fill = "none" />	<path d = "M292 95 L292 48 L245 48 L245 95 L292 95 Z" stroke = "#000000" stroke-width = "3" fill = "none" />  <path d="M276.56838061831724 79.6480542569037           A11.66268450524334 11.66268450524334 0 0 1 260.07485401732356 79.64805425690372" fill = "none" stroke = "#000000" stroke-width = "3" />
  <path d="M260.07485401732356 79.64805425690372           A11.66268450524334 11.66268450524334 0 0 1 260.07485401732356 63.15452765591002" fill = "none" stroke = "#000000" stroke-width = "3" />
  <path d="M260.07485401732356 63.15452765591002           A11.66268450524334 11.66268450524334 0 0 1 276.56838061831724 63.154527655910044" fill = "none" stroke = "#000000" stroke-width = "3" />
	<path d = "M266 68 L277 63 L272 52 " stroke = "#000000" stroke-width = "3" fill = "none" />	<path d = "M338 95 L338 48 L292 48 L292 95 L338 95 Z" stroke = "#000000" stroke-width = "3" fill = "none" />    <line x1="327" y1="71" x2="303" y2="71" style="stroke:#000000;stroke-width:3" />
	<path d = "M385 95 L385 48 L338 48 L338 95 L385 95 Z" stroke = "#000000" stroke-width = "3" fill = "none" />    <line x1="362" y1="71" x2="362" y2="60" style="stroke:#000000;stroke-width:3" />
    <line x1="362" y1="71" x2="350" y2="71" style="stroke:#000000;stroke-width:3" />
    <line x1="362" y1="71" x2="362" y2="83" style="stroke:#000000;stroke-width:3" />
    <line x1="362" y1="71" x2="373" y2="71" style="stroke:#000000;stroke-width:3" />
    <text x="29" y = "118" fill = "#000000" font-size = "23.32536901048668px" font-family = "Arial">a</text>
    <text x="76" y = "118" fill = "#000000" font-size = "23.32536901048668px" font-family = "Arial">s</text>
    <text x="123" y = "118" fill = "#000000" font-size = "23.32536901048668px" font-family = "Arial">d</text>
    <text x="169" y = "118" fill = "#000000" font-size = "23.32536901048668px" font-family = "Arial">f</text>
    <text x="216" y = "118" fill = "#000000" font-size = "23.32536901048668px" font-family = "Arial">g</text>
    <text x="262" y = "118" fill = "#000000" font-size = "23.32536901048668px" font-family = "Arial">h</text>
    <text x="309" y = "118" fill = "#000000" font-size = "23.32536901048668px" font-family = "Arial">j</text>
    <text x="356" y = "118" fill = "#000000" font-size = "23.32536901048668px" font-family = "Arial">k</text>
</svg>